<?xml version="1.0" encoding="UTF-8" standalone="no" ?>
<svg id="svg1" xmlns:svg="http://www.w3.org/2000/svg" version="1.1" Version="5" width="101.32" xmlns:sodipodi="http://sodipodi.sourceforge.net/DTD/sodipodi-0.dtd" height="130.30667" viewBox="0 0 101.32 130.30667" xmlns:inkscape="http://www.inkscape.org/namespaces/inkscape" sodipodi:docname="ALOA-Logo-locksmiths-cmyk.eps" xmlns="http://www.w3.org/2000/svg" Template="No">  <defs id="defs1"></defs>
  <sodipodi:namedview pagecolor="#ffffff" id="namedview1" inkscape:pagecheckerboard="0" inkscape:deskcolor="#d1d1d1" bordercolor="#000000" borderopacity="0.25" inkscape:showpageshadow="2" inkscape:pageopacity="0.0">
    <inkscape:page x="0" height="130.30667" margin="0" y="0" id="page1" width="101.32" inkscape:label="1" bleed="0"></inkscape:page>
  </sodipodi:namedview>
  <g id="g1" inkscape:groupmode="layer" inkscape:label="1">
    <g id="group-R5">
      <path d="m 523.125,326.973 c -12.734,10.097 -32.969,5.73 -48.75,-14.16 -15.742,-19.903 -15.352,-40.625 -2.598,-50.711 11.582,-9.172 28.907,-7.004 44.328,9.109 1.532,1.594 0.125,5.559 1.532,7.344 1.465,1.875 5.722,1.504 6.992,3.437 11.965,18.633 10.051,35.852 -1.504,44.981" id="path2" style="fill:#231f20;fill-opacity:1;fill-rule:nonzero;stroke:none" transform="matrix(0.13333333,0,0,-0.13333333,0,130.30667)"></path>
      <path d="m 239.277,326.973 c -11.543,-9.129 -13.472,-26.348 -1.472,-44.981 1.242,-1.933 5.484,-1.562 6.968,-3.437 1.418,-1.785 0.012,-5.75 1.536,-7.344 15.414,-16.113 32.746,-18.281 44.336,-9.109 12.734,10.086 13.14,30.808 -2.622,50.711 -15.757,19.89 -36.011,24.257 -48.746,14.16" id="path3" style="fill:#231f20;fill-opacity:1;fill-rule:nonzero;stroke:none" transform="matrix(0.13333333,0,0,-0.13333333,0,130.30667)"></path>
      <path d="m 553.535,462.656 -8.113,10.149 -5.402,-2.657 -4.485,5.832 -2.547,-2.058 -2.539,-2.043 4.492,-5.828 -3.535,-4.488 8.137,-10.137 -4.621,-3.711 c -6.582,-5.887 -14.57,3.574 -16.961,6.543 l 6.18,6.601 -4.336,5.879 -6.25,-3.769 c -2.395,2.969 -1.914,7.304 1.054,9.687 l 11.817,9.473 11.797,9.457 c 2.968,2.394 7.312,1.914 9.687,-1.055 l -5.039,-5.293 4.324,-5.867 8.032,4.746 c 2.371,-2.965 10.64,-12.179 3.484,-17.32 z M 526.289,271.719 c -19.707,-24.903 -48.586,-34.832 -64.512,-22.235 -14.941,11.825 -12.968,39.266 3.575,63.172 l -4.688,5.489 -79.469,60.703 -79.441,-60.703 -4.703,-5.489 c 16.558,-23.906 18.519,-51.347 3.586,-63.172 -15.926,-12.597 -44.801,-2.668 -64.508,22.235 -19.703,24.863 -22.77,55.254 -6.848,67.883 14.059,11.121 38.176,4.636 57.196,-14.133 l 6.714,3.476 76.668,58.586 -88.156,67.391 -14.066,5.254 14.265,18.027 8.364,-12.488 90.929,-69.512 90.953,69.512 8.36,12.488 14.258,-18.027 -14.051,-5.254 -88.164,-67.391 76.648,-58.586 6.746,-3.476 c 18.996,18.769 43.125,25.254 57.18,14.133 15.938,-12.629 12.871,-43.02 -6.836,-67.883 z m -318.723,189.902 -5.148,4.141 c -7.176,5.14 1.098,14.355 3.484,17.324 l 8.004,-4.75 4.348,5.879 -5.055,5.281 c 2.383,2.969 6.719,3.449 9.696,1.067 l 11.808,-9.469 11.797,-9.461 c 2.977,-2.387 3.457,-6.731 1.066,-9.699 l -6.25,3.769 -4.343,-5.867 6.172,-6.594 c -2.383,-2.969 -10.368,-12.441 -16.946,-6.562 l -4.621,3.711 8.133,10.144 -3.527,4.485 4.484,5.832 -2.555,2.043 -2.547,2.05 -4.488,-5.82 -5.375,2.645 z m 13.356,48.082 c 2.308,2.918 6.551,3.418 9.473,1.11 l 36.222,-28.684 c 2.91,-2.32 3.406,-6.551 1.098,-9.473 -2.317,-2.91 -6.547,-3.41 -9.469,-1.097 l -36.219,28.687 c -2.922,2.305 -3.418,6.547 -1.105,9.457 z m 274.879,-25.238 36.211,28.676 c 2.929,2.304 7.168,1.816 9.48,-1.106 2.297,-2.91 1.801,-7.148 -1.094,-9.457 l -36.226,-28.687 c -2.91,-2.305 -7.16,-1.813 -9.484,1.105 -2.293,2.918 -1.797,7.156 1.113,9.469 z m -115.867,304.75 c -130.723,0 -236.696,-134.828 -236.696,-301.156 0,-166.329 105.973,-301.153 236.696,-301.153 130.718,0 236.687,134.824 236.687,301.153 0,166.328 -105.969,301.156 -236.687,301.156" id="path4" style="fill:#231f20;fill-opacity:1;fill-rule:nonzero;stroke:none" transform="matrix(0.13333333,0,0,-0.13333333,0,130.30667)"></path>
      <path d="m 380.449,465.977 c 0,0 27.903,14.703 40.762,20.488 61.973,27.89 88.203,78.867 88.203,132.746 v 178.133 c -22.969,-5.731 -118.738,41.5 -128.965,58.742 -10.215,-17.242 -105.98,-64.473 -128.972,-58.742 V 619.211 c 0,-53.879 26.234,-104.856 88.211,-132.746 12.863,-5.785 40.761,-20.488 40.761,-20.488" id="path5" style="fill:#ee2922;fill-opacity:1;fill-rule:nonzero;stroke:none" transform="matrix(0.13333333,0,0,-0.13333333,0,130.30667)"></path>
      <path d="m 380.449,465.977 c 0,0 27.903,14.703 40.762,20.488 61.973,27.89 88.203,78.867 88.203,132.746 v 178.133 c -22.969,-5.731 -118.738,41.5 -128.965,58.742 -10.215,-17.242 -105.98,-64.473 -128.972,-58.742 V 619.211 c 0,-53.879 26.234,-104.856 88.211,-132.746 12.863,-5.785 40.761,-20.488 40.761,-20.488 z" id="path6" style="fill:none;stroke:#ee2922;stroke-width:11.765;stroke-linecap:butt;stroke-linejoin:miter;stroke-miterlimit:4;stroke-dasharray:none;stroke-opacity:1" transform="matrix(0.13333333,0,0,-0.13333333,0,130.30667)"></path>
      <path d="m 470.645,745.559 -7.989,19.23 -7.453,-19.23 z m 24.14,-18.684 h -25.652 v 1.973 c 4.898,0.398 6.336,0.48 6.336,3.09 0,2.136 -2.531,8 -3.645,10.535 h -17.801 c -2.226,-5.703 -3.503,-8.942 -3.503,-10.215 0,-3.012 3.804,-3.25 6.511,-3.41 v -1.973 h -16.093 v 1.973 c 4.296,0.64 5.39,3.332 7.753,9.269 l 17.598,43.383 h 2.227 l 17.656,-41.641 c 3.547,-8.472 4.824,-11.168 8.613,-11.011 z m -100.527,26.598 c 0,-6.887 0.469,-25.489 14.012,-25.489 13.546,0 14.015,18.602 14.015,25.489 0,11.558 -2.93,25.496 -14.015,25.496 -11.082,0 -14.012,-13.938 -14.012,-25.496 z m 42.051,0 c 0,-16.621 -11.817,-28.102 -28.039,-28.102 -16.239,0 -28.032,11.481 -28.032,28.102 0,17.265 12.75,28.109 28.032,28.109 15.285,0 28.039,-10.844 28.039,-28.109 z M 370.746,726.875 H 324.98 v 1.973 c 4.434,0.566 6.805,0.797 6.805,5.629 v 38.316 c 0,5.23 -3.238,5.383 -6.805,5.621 v 1.981 h 27.633 v -1.981 c -5.543,-0.238 -7.996,-0.312 -7.996,-7.277 v -37.375 c 0,-3.797 1.746,-4.434 7.047,-4.434 11.949,0 16.395,6.567 20.035,15.516 h 2.285 z m -75.211,18.684 -7.992,19.23 -7.438,-19.23 z m 24.153,-18.684 h -25.649 v 1.973 c 4.91,0.398 6.336,0.48 6.336,3.09 0,2.136 -2.539,8 -3.645,10.535 h -17.816 c -2.215,-5.703 -3.48,-8.942 -3.48,-10.215 0,-3.012 3.8,-3.25 6.492,-3.41 v -1.973 h -16.074 v 1.973 c 4.277,0.64 5.386,3.332 7.761,9.269 l 17.578,43.383 h 2.211 l 17.657,-41.641 c 3.566,-8.472 4.824,-11.168 8.629,-11.011 v -1.973" id="path7" style="fill:#231f20;fill-opacity:1;fill-rule:nonzero;stroke:none" transform="matrix(0.13333333,0,0,-0.13333333,0,130.30667)"></path>
      <path d="m 409.961,626.781 c 0,16.496 -13.367,29.875 -29.879,29.875 -16.488,0 -29.852,-13.379 -29.852,-29.875 0,-12.66 7.95,-23.343 19.071,-27.687 l -8.996,-93.203 h 39.273 l -9.004,93.144 c 11.281,4.262 19.387,14.973 19.387,27.746" id="path8" style="fill:#231f20;fill-opacity:1;fill-rule:nonzero;stroke:none" transform="matrix(0.13333333,0,0,-0.13333333,0,130.30667)"></path>
      <path d="m 683.293,488.059 c 0,213.175 -135.813,385.984 -303.359,385.984 -167.547,0 -303.3676,-172.809 -303.3676,-385.984 0,-213.184 135.8206,-385.981 303.3676,-385.981 167.546,0 303.359,172.797 303.359,385.981 z" id="path9" style="fill:none;stroke:#ee2922;stroke-width:15;stroke-linecap:butt;stroke-linejoin:miter;stroke-miterlimit:10;stroke-dasharray:none;stroke-opacity:1" transform="matrix(0.13333333,0,0,-0.13333333,0,130.30667)"></path>
      <path d="m 693.723,250.879 c 32.476,69.414 51.132,150.519 51.132,237.18 0,98.699 -24.203,190.207 -65.468,265.441" id="path10" style="fill:none;stroke:#ee2922;stroke-width:30;stroke-linecap:butt;stroke-linejoin:miter;stroke-miterlimit:10;stroke-dasharray:none;stroke-opacity:1" transform="matrix(0.13333333,0,0,-0.13333333,0,130.30667)"></path>
      <path d="M 80.4688,753.48 C 39.1992,678.254 15,586.754 15,488.059 15,401.406 33.6523,320.305 66.1328,250.891" id="path11" style="fill:none;stroke:#ee2922;stroke-width:30;stroke-linecap:butt;stroke-linejoin:miter;stroke-miterlimit:10;stroke-dasharray:none;stroke-opacity:1" transform="matrix(0.13333333,0,0,-0.13333333,0,130.30667)"></path>
      <path d="m 125.66,405.332 -14.976,-9.402 0.019,-0.102 17.563,-2.312 z m -19.746,-7.742 31.856,21.316 1.132,-5.125 -9.66,-6.125 3.254,-14.746 11.356,-1.59 1.046,-4.738 -37.859,5.879 -1.125,5.129" id="path12" style="fill:#231f20;fill-opacity:1;fill-rule:nonzero;stroke:none" transform="matrix(0.13333333,0,0,-0.13333333,0,130.30667)"></path>
      <path d="m 101.277,422.883 31.403,4.344 -2.59,18.722 3.957,0.547 3.242,-23.418 -35.359,-4.902 -0.653,4.707" id="path13" style="fill:#231f20;fill-opacity:1;fill-rule:nonzero;stroke:none" transform="matrix(0.13333333,0,0,-0.13333333,0,130.30667)"></path>
      <path d="m 120.93,452.98 c 1.715,0.555 3.25,1.375 4.593,2.461 1.336,1.075 2.391,2.411 3.153,4.032 0.758,1.601 1.082,3.496 0.957,5.664 -0.121,2.16 -0.649,4 -1.586,5.511 -0.938,1.52 -2.129,2.743 -3.582,3.661 -1.457,0.918 -3.07,1.562 -4.84,1.933 -1.777,0.363 -3.562,0.496 -5.355,0.399 -1.797,-0.102 -3.563,-0.434 -5.282,-0.996 -1.722,-0.567 -3.25,-1.387 -4.593,-2.461 -1.344,-1.079 -2.391,-2.422 -3.157,-4.032 -0.758,-1.613 -1.078,-3.507 -0.961,-5.664 0.121,-2.16 0.657,-4.004 1.586,-5.519 0.942,-1.524 2.137,-2.735 3.59,-3.653 1.449,-0.925 3.067,-1.57 4.84,-1.933 1.773,-0.371 3.559,-0.508 5.355,-0.399 1.797,0.094 3.555,0.426 5.282,0.996 z m -12.09,-5.058 c -2.285,0.586 -4.332,1.543 -6.145,2.879 -1.812,1.34 -3.2887,3.039 -4.4411,5.109 -1.1562,2.078 -1.8086,4.52 -1.9648,7.352 -0.1602,2.828 0.2148,5.336 1.1289,7.523 0.914,2.188 2.1914,4.051 3.844,5.578 1.648,1.528 3.578,2.711 5.785,3.555 2.207,0.84 4.523,1.328 6.953,1.465 2.43,0.137 4.789,-0.09 7.074,-0.68 2.285,-0.59 4.336,-1.551 6.149,-2.887 1.808,-1.332 3.281,-3.035 4.418,-5.113 1.132,-2.066 1.777,-4.519 1.937,-7.351 0.156,-2.832 -0.211,-5.332 -1.105,-7.52 -0.895,-2.187 -2.168,-4.043 -3.821,-5.574 -1.648,-1.524 -3.578,-2.715 -5.785,-3.555 -2.203,-0.84 -4.523,-1.332 -6.953,-1.465 -2.43,-0.136 -4.785,0.086 -7.074,0.684" id="path14" style="fill:#231f20;fill-opacity:1;fill-rule:nonzero;stroke:none" transform="matrix(0.13333333,0,0,-0.13333333,0,130.30667)"></path>
      <path d="m 117.738,506.113 -16.808,-5.472 -0.008,-0.098 16.473,-6.523 z m -21.0349,-2.699 36.0859,12.926 -0.152,-5.25 -10.856,-3.59 -0.433,-15.098 10.632,-4.304 -0.14,-4.844 -35.2892,14.91 0.1523,5.25" id="path15" style="fill:#231f20;fill-opacity:1;fill-rule:nonzero;stroke:none" transform="matrix(0.13333333,0,0,-0.13333333,0,130.30667)"></path>
      <path d="m 106.477,554.977 c -1.364,-1.403 -2.223,-3.325 -2.575,-5.766 -0.14,-0.992 -0.179,-1.981 -0.125,-2.965 0.067,-0.988 0.27,-1.879 0.625,-2.691 0.36,-0.805 0.891,-1.489 1.606,-2.047 0.711,-0.555 1.644,-0.918 2.797,-1.082 1.09,-0.156 2.015,0.039 2.789,0.586 0.765,0.543 1.441,1.324 2.023,2.332 0.582,1.011 1.113,2.176 1.586,3.488 0.477,1.309 0.981,2.641 1.512,3.996 0.531,1.356 1.117,2.68 1.758,3.969 0.636,1.289 1.414,2.414 2.328,3.379 0.914,0.961 1.992,1.683 3.238,2.16 1.25,0.48 2.742,0.594 4.492,0.34 1.883,-0.27 3.434,-0.918 4.649,-1.953 1.215,-1.035 2.148,-2.274 2.797,-3.711 0.656,-1.442 1.05,-3.004 1.195,-4.696 0.148,-1.687 0.101,-3.339 -0.133,-4.953 -0.281,-1.984 -0.801,-3.82 -1.547,-5.515 -0.746,-1.692 -1.719,-3.133 -2.918,-4.325 -1.195,-1.191 -2.636,-2.066 -4.316,-2.617 -1.676,-0.547 -3.59,-0.668 -5.735,-0.363 l 0.641,4.453 c 1.484,-0.211 2.805,-0.105 3.961,0.32 1.152,0.418 2.148,1.055 2.973,1.895 0.832,0.84 1.5,1.863 2.007,3.07 0.512,1.207 0.86,2.469 1.047,3.789 0.153,1.055 0.207,2.133 0.164,3.239 -0.046,1.097 -0.246,2.113 -0.601,3.039 -0.352,0.925 -0.902,1.711 -1.656,2.359 -0.746,0.645 -1.766,1.059 -3.051,1.246 -1.223,0.176 -2.254,-0.004 -3.11,-0.539 -0.851,-0.535 -1.593,-1.301 -2.226,-2.309 -0.633,-1 -1.192,-2.156 -1.688,-3.472 -0.488,-1.309 -0.988,-2.641 -1.507,-3.996 -0.512,-1.36 -1.075,-2.688 -1.68,-3.977 -0.609,-1.293 -1.328,-2.43 -2.156,-3.402 -0.832,-0.977 -1.828,-1.711 -2.996,-2.199 -1.161,-0.493 -2.551,-0.618 -4.168,-0.383 -1.782,0.254 -3.274,0.84 -4.473,1.75 -1.195,0.914 -2.133,2.031 -2.805,3.355 -0.668,1.328 -1.097,2.785 -1.2888,4.379 -0.1875,1.594 -0.168,3.199 0.0625,4.817 0.2613,1.816 0.7153,3.464 1.3673,4.957 0.652,1.488 1.527,2.754 2.613,3.793 1.098,1.035 2.391,1.793 3.891,2.269 1.496,0.473 3.226,0.606 5.183,0.391 l -0.64,-4.453 c -2.578,0.097 -4.551,-0.551 -5.91,-1.957" id="path16" style="fill:#231f20;fill-opacity:1;fill-rule:nonzero;stroke:none" transform="matrix(0.13333333,0,0,-0.13333333,0,130.30667)"></path>
      <path d="m 110.266,597.633 3.898,-0.895 -4.457,-19.394 11.059,-2.543 4.156,18.082 3.894,-0.899 -4.152,-18.078 12.035,-2.769 4.492,19.543 3.903,-0.899 -5.559,-24.172 -34.793,8 5.524,24.024" id="path17" style="fill:#231f20;fill-opacity:1;fill-rule:nonzero;stroke:none" transform="matrix(0.13333333,0,0,-0.13333333,0,130.30667)"></path>
      <path d="m 124.043,625.102 c -1.77,-1.332 -3.035,-3.188 -3.809,-5.567 -0.66,-2.031 -0.843,-3.89 -0.55,-5.582 0.289,-1.687 0.921,-3.207 1.902,-4.558 0.98,-1.352 2.223,-2.52 3.727,-3.5 1.503,-0.985 3.144,-1.758 4.917,-2.336 1.934,-0.629 3.836,-1.004 5.708,-1.121 1.875,-0.118 3.601,0.082 5.191,0.597 1.586,0.52 2.996,1.383 4.23,2.594 1.239,1.207 2.184,2.828 2.848,4.859 0.484,1.489 0.672,2.891 0.555,4.211 -0.114,1.313 -0.473,2.531 -1.071,3.656 -0.597,1.122 -1.421,2.118 -2.472,2.989 -1.047,0.867 -2.254,1.578 -3.621,2.125 l 1.468,4.515 c 4.137,-1.836 6.989,-4.39 8.551,-7.671 1.563,-3.278 1.637,-7.086 0.223,-11.43 -0.86,-2.629 -2.055,-4.781 -3.598,-6.449 -1.543,-1.676 -3.32,-2.903 -5.328,-3.684 -2.008,-0.785 -4.191,-1.152 -6.562,-1.102 -2.368,0.051 -4.786,0.481 -7.258,1.282 -2.473,0.808 -4.68,1.91 -6.621,3.316 -1.95,1.402 -3.508,3.043 -4.692,4.914 -1.176,1.875 -1.902,3.969 -2.183,6.289 -0.282,2.313 0.004,4.774 0.847,7.371 0.575,1.774 1.364,3.379 2.356,4.809 0.988,1.426 2.144,2.613 3.465,3.551 1.324,0.937 2.808,1.593 4.453,1.968 1.644,0.375 3.418,0.395 5.301,0.063 l -1.461,-4.516 c -2.579,0.274 -4.746,-0.254 -6.516,-1.593" id="path18" style="fill:#231f20;fill-opacity:1;fill-rule:nonzero;stroke:none" transform="matrix(0.13333333,0,0,-0.13333333,0,130.30667)"></path>
      <path d="m 165.703,653.145 c 1.11,-3.149 0.75,-6.782 -1.07,-10.899 -1.856,-4.203 -4.305,-7.051 -7.348,-8.531 -3.043,-1.477 -6.738,-1.258 -11.097,0.672 l -20.86,9.207 1.918,4.347 20.859,-9.214 c 2.926,-1.289 5.489,-1.497 7.68,-0.606 2.199,0.887 3.945,2.797 5.235,5.723 1.226,2.773 1.406,5.219 0.539,7.332 -0.871,2.117 -2.77,3.824 -5.7,5.113 l -20.855,9.215 1.922,4.344 20.851,-9.211 c 4.18,-1.848 6.825,-4.344 7.926,-7.492" id="path19" style="fill:#231f20;fill-opacity:1;fill-rule:nonzero;stroke:none" transform="matrix(0.13333333,0,0,-0.13333333,0,130.30667)"></path>
      <path d="m 165.199,687.703 c 0.36,0.953 0.508,1.871 0.465,2.766 -0.043,0.89 -0.309,1.734 -0.793,2.535 -0.48,0.797 -1.285,1.519 -2.414,2.168 -1.562,0.894 -3.082,1.191 -4.562,0.887 -1.485,-0.297 -2.778,-1.418 -3.891,-3.356 l -5.883,-10.226 10.789,-6.207 4.938,8.585 c 0.547,0.95 1,1.903 1.351,2.848 z m -14.539,7.215 c 1.695,2.945 3.742,4.832 6.141,5.664 2.402,0.828 4.859,0.527 7.375,-0.922 1.879,-1.082 3.281,-2.453 4.203,-4.117 0.93,-1.672 1.109,-3.59 0.551,-5.766 l 0.086,-0.05 c 0.687,0.796 1.394,1.359 2.129,1.691 0.726,0.328 1.468,0.496 2.218,0.508 0.758,0.008 1.524,-0.11 2.313,-0.348 0.785,-0.238 1.574,-0.531 2.375,-0.879 0.789,-0.375 1.578,-0.773 2.375,-1.191 0.797,-0.422 1.605,-0.785 2.422,-1.106 0.82,-0.316 1.629,-0.558 2.429,-0.734 0.809,-0.172 1.594,-0.191 2.364,-0.059 l -2.645,-4.597 c -0.484,-0.102 -1.027,-0.047 -1.637,0.168 -0.605,0.211 -1.257,0.496 -1.953,0.863 -0.691,0.363 -1.441,0.754 -2.234,1.172 -0.805,0.422 -1.617,0.773 -2.453,1.058 -0.817,0.321 -1.617,0.582 -2.395,0.801 -0.773,0.215 -1.527,0.285 -2.25,0.196 -0.722,-0.082 -1.41,-0.34 -2.058,-0.77 -0.657,-0.434 -1.27,-1.156 -1.852,-2.168 l -5.781,-10.055 13.219,-7.601 -2.372,-4.121 -30.945,17.797 8.375,14.566" id="path20" style="fill:#231f20;fill-opacity:1;fill-rule:nonzero;stroke:none" transform="matrix(0.13333333,0,0,-0.13333333,0,130.30667)"></path>
      <path d="m 164.395,716.43 29.511,-20.09 -2.672,-3.93 -29.511,20.094 2.672,3.926" id="path21" style="fill:#231f20;fill-opacity:1;fill-rule:nonzero;stroke:none" transform="matrix(0.13333333,0,0,-0.13333333,0,130.30667)"></path>
      <path d="m 171.543,720.141 -3.137,2.48 17.707,22.395 3.141,-2.481 -7.383,-9.332 24.867,-19.664 -2.949,-3.723 -24.863,19.657 -7.383,-9.332" id="path22" style="fill:#231f20;fill-opacity:1;fill-rule:nonzero;stroke:none" transform="matrix(0.13333333,0,0,-0.13333333,0,130.30667)"></path>
      <path d="m 228.535,737.672 -3.355,-3.363 -10.332,10.316 -24.684,5.145 3.996,4 19.59,-4.442 -4.648,19.406 3.82,3.821 5.281,-24.567 10.332,-10.316" id="path23" style="fill:#231f20;fill-opacity:1;fill-rule:nonzero;stroke:none" transform="matrix(0.13333333,0,0,-0.13333333,0,130.30667)"></path>
      <path d="m 143.285,782.852 -4.398,3.246 c 0.715,1.457 1.203,2.668 1.465,3.625 0.257,0.961 0.367,1.98 0.324,3.07 -0.055,1.738 -0.504,3.625 -1.344,5.664 -0.84,2.035 -1.977,4.027 -3.414,5.981 -1.133,1.48 -1.797,2.57 -1.992,3.261 -0.199,0.692 -0.043,1.379 0.461,2.059 0.535,0.73 1.234,1.047 2.09,0.945 0.402,-0.058 1.039,-0.406 1.902,-1.043 l 15.984,-11.805 z m -2.347,-3.184 -12.907,-17.48 -0.75,-1.02 c -0.699,-0.941 -1.414,-1.539 -2.144,-1.789 -0.727,-0.246 -1.422,-0.133 -2.074,0.351 -1.075,0.793 -1.399,1.836 -0.961,3.137 0.347,1.078 0.543,1.711 0.586,1.903 0.039,0.191 0,0.457 -0.122,0.789 -0.187,0.617 -0.742,1.273 -1.652,1.945 l -39.3202,29.035 c -0.9219,0.672 -1.7071,1.012 -2.3555,1.004 -0.3516,0.02 -0.6172,-0.023 -0.7852,-0.117 -0.1718,-0.098 -0.7187,-0.469 -1.6484,-1.121 -1.1094,-0.797 -2.207,-0.797 -3.2774,-0.004 -0.6562,0.48 -0.9726,1.109 -0.9492,1.883 0.0235,0.769 0.3867,1.625 1.0782,2.574 l 0.7578,1.019 12.9336,17.52 0.9843,1.332 c 0.8516,1.152 1.6211,1.863 2.2969,2.129 0.9219,0.371 1.7227,0.305 2.4063,-0.195 1.1562,-0.852 1.4101,-2.012 0.7695,-3.481 -0.5195,-1.195 -0.8086,-1.914 -0.8633,-2.156 -0.0547,-0.242 -0.0469,-0.555 0.0352,-0.938 0.1836,-0.738 0.7695,-1.476 1.7656,-2.215 l 46.1958,-34.105" id="path24" style="fill:#231f20;fill-opacity:1;fill-rule:nonzero;stroke:none" transform="matrix(0.13333333,0,0,-0.13333333,0,130.30667)"></path>
      <path d="m 136.758,869.309 -3.676,3.777 c 2.637,2.336 5.438,4.062 8.41,5.18 2.977,1.125 6.211,1.679 9.715,1.679 9.277,-0.011 17.93,-4.152 25.961,-12.414 7.875,-8.097 11.738,-16.621 11.594,-25.578 -0.102,-6.902 -2.555,-13.086 -7.375,-18.539 l -3.746,3.848 c 0.468,0.73 0.765,1.371 0.89,1.922 0.125,0.554 0.121,1.171 -0.008,1.867 -0.3,1.566 -1.39,3.32 -3.273,5.258 l -30.437,31.293 c -1.2,1.242 -2.364,2.011 -3.485,2.332 -0.758,0.218 -1.465,0.277 -2.125,0.183 -0.652,-0.094 -1.469,-0.367 -2.445,-0.808 z m -2.867,-2.793 c -0.786,-1.578 -1.071,-2.969 -0.856,-4.168 0.219,-1.2 1.004,-2.5 2.363,-3.899 l 30.43,-31.297 c 2,-2.054 3.688,-3.23 5.067,-3.523 1.121,-0.27 2.418,0.008 3.875,0.844 l 3.746,-3.852 c -5.59,-4.621 -11.828,-6.891 -18.707,-6.816 -8.954,0.101 -17.368,4.203 -25.243,12.3 -3.945,4.063 -6.914,8.313 -8.902,12.762 -1.988,4.449 -2.914,8.961 -2.777,13.539 0.093,3.496 0.734,6.711 1.926,9.641 1.195,2.93 2.996,5.68 5.402,8.246 l 3.676,-3.777" id="path25" style="fill:#231f20;fill-opacity:1;fill-rule:nonzero;stroke:none" transform="matrix(0.13333333,0,0,-0.13333333,0,130.30667)"></path>
      <path d="m 233.969,864.816 -3.266,4.981 c 2.016,1.551 3.727,3.816 5.121,6.797 0.735,1.609 1.156,3.398 1.278,5.359 0.109,1.965 -0.106,3.899 -0.649,5.797 -0.301,1.051 -0.383,1.879 -0.258,2.484 0.129,0.61 0.489,1.11 1.09,1.504 0.653,0.426 1.36,0.539 2.113,0.332 0.758,-0.203 1.379,-0.672 1.856,-1.406 0.809,-1.226 1.309,-3.016 1.512,-5.375 0.203,-2.359 0.05,-4.758 -0.457,-7.187 -0.621,-2.973 -1.59,-5.52 -2.911,-7.633 -1.324,-2.11 -3.132,-3.992 -5.429,-5.653 z m -34.832,52.883 -3.239,4.942 c 1.473,0.66 2.711,1.14 3.704,1.437 0.988,0.297 2.832,0.766 5.531,1.406 1.707,0.418 2.793,0.782 3.258,1.082 0.789,0.52 1.156,1.266 1.097,2.243 l -0.109,1.328 c -0.102,0.863 0.293,1.593 1.195,2.183 0.735,0.485 1.442,0.633 2.121,0.457 0.684,-0.179 1.297,-0.687 1.852,-1.531 l 11.133,-16.988 c 0.711,-1.094 0.984,-2.039 0.82,-2.852 -0.172,-0.808 -0.566,-1.426 -1.195,-1.836 -0.653,-0.425 -1.317,-0.562 -1.989,-0.394 -0.671,0.16 -1.441,0.64 -2.308,1.433 -1.985,1.774 -3.649,3.098 -4.996,3.965 -2.864,1.824 -5.574,3.043 -8.121,3.668 -1.723,0.43 -3.278,0.606 -4.668,0.531 -1.391,-0.078 -2.754,-0.433 -4.086,-1.074 z m -6.492,2.871 3.238,-4.941 c -1.445,-1.297 -2.184,-2.793 -2.199,-4.477 -0.028,-1.687 0.675,-3.621 2.101,-5.8 l 22.11,-33.735 1.148,-1.758 c 0.41,-0.625 0.973,-1.203 1.687,-1.722 0.715,-0.528 1.438,-0.899 2.165,-1.125 0.793,-0.258 1.507,-0.34 2.156,-0.254 0.637,0.094 1.41,0.371 2.304,0.844 l 3.266,-4.985 c -5.285,-3.461 -10.773,-5.094 -16.465,-4.89 -5.019,0.175 -9.742,1.738 -14.172,4.695 -4.425,2.953 -8.48,7.238 -12.152,12.848 -2.695,4.109 -4.644,8.308 -5.84,12.605 -1.203,4.293 -1.578,8.453 -1.14,12.477 0.449,4.066 1.664,7.894 3.644,11.496 1.984,3.593 4.375,6.312 7.184,8.148 l 0.965,0.574" id="path26" style="fill:#231f20;fill-opacity:1;fill-rule:nonzero;stroke:none" transform="matrix(0.13333333,0,0,-0.13333333,0,130.30667)"></path>
      <path d="m 284.402,942.012 27.215,-31.063 c 0.727,-0.84 1.379,-1.441 1.969,-1.797 0.578,-0.359 1.242,-0.554 1.984,-0.593 0.754,-0.067 1.25,-0.145 1.493,-0.227 0.582,-0.269 1.007,-0.758 1.265,-1.461 0.602,-1.617 -0.246,-2.848 -2.539,-3.695 l -23.031,-8.524 c -1.098,-0.402 -2.031,-0.488 -2.797,-0.254 -0.762,0.243 -1.305,0.79 -1.621,1.641 -0.36,0.977 -0.078,1.949 0.848,2.918 0.578,0.594 0.945,1.055 1.105,1.371 0.16,0.32 0.18,0.684 0.066,1.094 -0.082,0.211 -0.382,0.652 -0.91,1.328 l -12.332,15.328 c -1.144,1.414 -1.929,2.684 -2.347,3.817 -0.395,1.066 -0.379,2.386 0.039,3.968 l 5.242,19.485 c 0.5,1.816 0.469,3.504 -0.11,5.062 -0.312,0.856 -0.836,1.563 -1.566,2.129 -0.73,0.563 -1.527,0.856 -2.406,0.879 l -1.903,0.074 c -1.195,0.043 -1.98,0.571 -2.351,1.578 -0.309,0.825 -0.235,1.614 0.215,2.371 0.3,0.493 0.941,0.922 1.918,1.286 l 16.304,6.031 c 1.071,0.394 1.989,0.461 2.758,0.207 0.774,-0.254 1.313,-0.805 1.629,-1.66 0.477,-1.282 0.113,-2.453 -1.086,-3.524 l -2.074,-1.859 c -0.871,-0.742 -1.848,-2.043 -2.934,-3.899 -0.8,-1.406 -1.629,-3.57 -2.492,-6.492 z m -1.722,-51.082 -20.422,-7.555 -1.195,-0.445 c -1.098,-0.407 -2.02,-0.512 -2.766,-0.317 -0.746,0.192 -1.266,0.668 -1.543,1.43 -0.465,1.25 -0.16,2.301 0.91,3.148 0.887,0.711 1.399,1.133 1.539,1.27 0.137,0.144 0.25,0.383 0.332,0.723 0.188,0.625 0.078,1.472 -0.316,2.539 l -16.953,45.847 c -0.395,1.063 -0.871,1.778 -1.414,2.129 -0.286,0.207 -0.524,0.317 -0.719,0.332 -0.199,0.012 -0.863,0.004 -1.992,-0.035 -1.371,-0.055 -2.286,0.543 -2.75,1.797 -0.286,0.762 -0.2,1.461 0.238,2.094 0.445,0.629 1.219,1.152 2.316,1.558 l 1.192,0.438 20.426,7.555 1.191,0.441 c 1.098,0.41 2.019,0.516 2.766,0.32 0.75,-0.191 1.265,-0.668 1.546,-1.429 0.465,-1.254 0.161,-2.305 -0.918,-3.149 -0.882,-0.715 -1.394,-1.133 -1.531,-1.277 -0.14,-0.137 -0.254,-0.375 -0.332,-0.715 -0.183,-0.625 -0.082,-1.473 0.313,-2.539 l 16.957,-45.848 c 0.633,-1.707 1.445,-2.551 2.449,-2.527 l 1.586,0.066 c 1.293,0.067 2.18,-0.547 2.656,-1.828 0.586,-1.59 -0.207,-2.785 -2.375,-3.586 l -1.191,-0.437" id="path27" style="fill:#231f20;fill-opacity:1;fill-rule:nonzero;stroke:none" transform="matrix(0.13333333,0,0,-0.13333333,0,130.30667)"></path>
      <path d="m 345.938,969.941 -0.594,5.336 c 1.953,0.09 3.66,0.028 5.125,-0.183 1.465,-0.215 3.57,-0.723 6.312,-1.528 0.68,-0.187 1.227,-0.261 1.649,-0.211 0.613,0.067 1.043,0.333 1.289,0.782 l 0.906,1.527 c 0.438,0.774 1.031,1.195 1.773,1.281 0.872,0.098 1.547,-0.148 2.028,-0.734 0.472,-0.586 0.785,-1.559 0.933,-2.914 l 1.797,-16.012 c 0.106,-0.941 -0.078,-1.738 -0.547,-2.398 -0.461,-0.657 -1.117,-1.035 -1.957,-1.125 -0.648,-0.074 -1.269,0.066 -1.871,0.429 -0.316,0.223 -0.586,0.512 -0.804,0.868 -0.219,0.351 -0.457,0.953 -0.723,1.812 -0.531,1.543 -1.328,3.106 -2.391,4.692 -1.058,1.582 -2.246,2.972 -3.558,4.171 -2.625,2.356 -5.75,3.758 -9.367,4.207 z m 0.113,-58.457 0.621,-5.531 c -2.656,-0.297 -5.672,0.137 -9.043,1.297 -1.258,0.418 -2.121,0.68 -2.594,0.793 -0.469,0.105 -0.918,0.141 -1.34,0.094 -0.644,-0.074 -1.117,-0.231 -1.422,-0.481 -0.296,-0.242 -0.753,-0.828 -1.371,-1.746 -0.504,-0.777 -1.093,-1.207 -1.777,-1.281 -1.812,-0.203 -2.871,1.086 -3.184,3.867 l -1.976,17.66 c -0.102,0.91 0.074,1.707 0.515,2.395 0.454,0.687 1.063,1.094 1.833,1.211 0.707,0.113 1.289,-0.024 1.746,-0.414 0.449,-0.391 0.882,-1.125 1.296,-2.188 1.055,-2.703 2.422,-5.187 4.102,-7.453 1.68,-2.269 3.551,-4.141 5.613,-5.613 2.106,-1.535 4.43,-2.403 6.981,-2.61 z m -4.571,63.61 0.625,-5.582 c -1.945,-0.778 -3.378,-1.797 -4.3,-3.063 -0.926,-1.261 -1.289,-2.738 -1.102,-4.422 0.184,-1.617 0.777,-2.984 1.781,-4.097 1.012,-1.117 2.567,-2.114 4.661,-2.992 1.445,-0.59 4.675,-1.672 9.703,-3.239 3.05,-0.933 5.433,-1.82 7.148,-2.66 1.719,-0.84 3.367,-1.945 4.965,-3.301 4.269,-3.586 6.711,-8.144 7.328,-13.672 0.469,-4.175 -0.141,-8.109 -1.82,-11.8 -1.684,-3.7 -4.231,-6.731 -7.625,-9.114 -1.828,-1.25 -3.864,-2.304 -6.11,-3.164 -2.246,-0.855 -4.371,-1.394 -6.379,-1.621 l -0.621,5.531 c 2.743,0.993 4.664,2.168 5.774,3.524 1.109,1.351 1.547,3.058 1.316,5.129 -0.242,2.168 -1.429,3.972 -3.554,5.402 -1.415,0.922 -4.024,1.973 -7.821,3.152 -4.176,1.301 -7.043,2.243 -8.594,2.825 -1.558,0.574 -3.066,1.293 -4.542,2.144 -6.567,3.653 -10.25,9.086 -11.059,16.297 -0.414,3.692 -0.031,7.18 1.133,10.473 1.172,3.293 3.008,6.043 5.511,8.258 3.489,3.078 8.016,5.074 13.582,5.992" id="path28" style="fill:#231f20;fill-opacity:1;fill-rule:nonzero;stroke:none" transform="matrix(0.13333333,0,0,-0.13333333,0,130.30667)"></path>
      <path d="m 434.348,971.605 21.472,-3.015 1.309,-0.18 c 2.414,-0.344 3.508,-1.347 3.269,-3.023 -0.183,-1.324 -0.957,-2.106 -2.3,-2.344 -1.118,-0.207 -1.77,-0.332 -1.953,-0.391 -0.188,-0.054 -0.403,-0.214 -0.637,-0.48 -0.457,-0.457 -0.762,-1.254 -0.93,-2.383 l -6.785,-48.402 c -0.164,-1.129 -0.09,-1.977 0.234,-2.547 0.149,-0.32 0.301,-0.527 0.469,-0.633 0.164,-0.105 0.762,-0.41 1.777,-0.918 1.231,-0.598 1.747,-1.555 1.563,-2.879 -0.234,-1.676 -1.563,-2.344 -3.977,-2.008 l -1.304,0.188 -21.516,3.019 -1.601,0.223 c -1.418,0.199 -2.461,0.57 -3.125,1.106 -0.665,0.539 -0.926,1.242 -0.809,2.109 0.203,1.418 1.094,2.199 2.691,2.336 1.301,0.144 2.075,0.242 2.309,0.293 0.242,0.047 0.484,0.199 0.762,0.457 0.562,0.515 0.933,1.398 1.113,2.656 z m -17.793,2.497 5.718,-28.461 6.262,14.058 -2.258,-16.051 -16.422,-35.91 -2.57,0.364 -10.945,58.285 c -0.383,1.965 -0.879,3.316 -1.496,4.058 -0.364,0.477 -1.043,0.887 -2.051,1.227 -2.031,0.746 -2.938,1.887 -2.727,3.437 0.122,0.84 0.508,1.45 1.172,1.836 0.664,0.379 1.555,0.493 2.688,0.336 z m -21.887,-19.61 3.074,-15.32 -2.039,-14.559 c -0.207,-1.476 -0.305,-2.55 -0.273,-3.211 0.019,-0.66 0.168,-1.406 0.449,-2.23 0.476,-1.516 1.262,-2.711 2.351,-3.59 l 1.633,-1.41 c 1.114,-0.914 1.614,-1.824 1.485,-2.723 -0.227,-1.644 -1.551,-2.297 -3.977,-1.957 l -12.137,1.703 c -2.414,0.34 -3.504,1.317 -3.281,2.926 0.074,0.52 0.235,0.899 0.481,1.145 0.246,0.242 0.703,0.496 1.367,0.765 3.855,1.434 6.109,4.535 6.773,9.305 l 4.094,29.156" id="path29" style="fill:#231f20;fill-opacity:1;fill-rule:nonzero;stroke:none" transform="matrix(0.13333333,0,0,-0.13333333,0,130.30667)"></path>
      <path d="m 484.199,888.266 -20.383,7.668 -1.179,0.449 c -1.106,0.414 -1.867,0.937 -2.305,1.57 -0.437,0.637 -0.519,1.336 -0.234,2.098 0.468,1.25 1.394,1.84 2.761,1.777 1.125,-0.047 1.789,-0.058 1.996,-0.047 0.196,0.016 0.426,0.125 0.719,0.328 0.547,0.352 1.02,1.059 1.43,2.125 l 17.207,45.746 c 0.406,1.067 0.516,1.911 0.332,2.536 -0.078,0.347 -0.188,0.586 -0.324,0.726 -0.149,0.137 -0.656,0.563 -1.531,1.274 -1.067,0.855 -1.372,1.91 -0.903,3.16 0.285,0.762 0.805,1.234 1.555,1.422 0.754,0.191 1.672,0.078 2.773,-0.336 l 1.184,-0.446 20.379,-7.671 1.191,-0.45 c 1.094,-0.41 1.863,-0.937 2.305,-1.57 0.437,-0.637 0.516,-1.336 0.223,-2.098 -0.465,-1.25 -1.383,-1.839 -2.75,-1.777 -1.133,0.047 -1.797,0.059 -1.997,0.047 -0.195,-0.016 -0.437,-0.125 -0.718,-0.328 -0.547,-0.352 -1.028,-1.059 -1.426,-2.125 l -17.219,-45.746 c -0.398,-1.067 -0.508,-1.91 -0.32,-2.535 0.078,-0.34 0.183,-0.586 0.32,-0.723 0.137,-0.141 0.653,-0.567 1.531,-1.277 1.067,-0.856 1.372,-1.911 0.903,-3.161 -0.293,-0.761 -0.813,-1.234 -1.555,-1.422 -0.754,-0.191 -1.68,-0.078 -2.773,0.336 l -1.192,0.45" id="path30" style="fill:#231f20;fill-opacity:1;fill-rule:nonzero;stroke:none" transform="matrix(0.13333333,0,0,-0.13333333,0,130.30667)"></path>
      <path d="m 577.961,912.973 -10.219,-17.157 c -0.476,-0.812 -1.101,-1.332 -1.863,-1.562 -0.762,-0.231 -1.504,-0.129 -2.227,0.309 -0.703,0.414 -1.14,0.988 -1.339,1.726 -0.184,0.738 -0.106,1.555 0.238,2.445 l 1.101,2.809 c 1.133,2.852 1.661,5.586 1.59,8.203 -0.054,1.625 -0.496,3.199 -1.336,4.723 l 3.02,5.074 z m -47.578,28.328 11.035,-6.574 -3.02,-5.075 c -1.765,0.028 -3.359,-0.332 -4.785,-1.074 -2.343,-1.183 -4.492,-2.953 -6.457,-5.305 l -1.941,-2.312 c -0.625,-0.727 -1.309,-1.18 -2.039,-1.371 -0.742,-0.184 -1.457,-0.067 -2.16,0.348 -0.723,0.429 -1.172,1.035 -1.328,1.816 -0.168,0.777 0,1.57 0.48,2.383 z m 33.062,-19.684 -29.343,-49.301 c -0.657,-1.089 -0.911,-2 -0.774,-2.726 0.063,-0.41 0.168,-0.711 0.317,-0.899 0.156,-0.183 0.691,-0.742 1.621,-1.668 1.16,-1.109 1.375,-2.281 0.64,-3.511 -0.437,-0.727 -1.148,-1.102 -2.144,-1.11 -0.727,-0.019 -1.719,0.344 -2.981,1.094 l -1.386,0.824 -18.711,11.141 -1.387,0.824 c -1.231,0.731 -2.051,1.473 -2.449,2.227 -0.41,0.75 -0.383,1.504 0.066,2.261 0.731,1.231 1.856,1.602 3.391,1.106 1.25,-0.371 2,-0.574 2.234,-0.625 0.242,-0.043 0.535,0.012 0.899,0.176 0.703,0.226 1.386,0.886 2.031,1.972 l 29.344,49.305 18.632,-11.09" id="path31" style="fill:#231f20;fill-opacity:1;fill-rule:nonzero;stroke:none" transform="matrix(0.13333333,0,0,-0.13333333,0,130.30667)"></path>
      <path d="m 598.035,856.898 5.832,-5.41 14.473,15.617 c 1.238,1.336 1.621,2.446 1.152,3.325 l -0.808,1.422 c -0.649,1.128 -0.5,2.191 0.425,3.191 1.157,1.242 2.59,1.07 4.309,-0.527 l 0.93,-0.86 15.933,-14.769 0.969,-0.895 c 1.785,-1.66 2.109,-3.109 0.957,-4.355 -0.906,-0.977 -1.98,-1.18 -3.223,-0.606 -1.023,0.469 -1.64,0.735 -1.828,0.797 -0.183,0.059 -0.445,0.051 -0.789,-0.027 -0.644,-0.117 -1.347,-0.598 -2.129,-1.434 L 601.152,816.66 c -1.211,-1.312 -1.601,-2.445 -1.14,-3.394 l 0.781,-1.457 c 0.66,-1.192 0.535,-2.297 -0.402,-3.297 -1.172,-1.266 -2.649,-1.071 -4.446,0.59 l -0.965,0.898 -15.937,14.766 -1.008,0.929 c -1.668,1.551 -1.914,2.957 -0.738,4.223 0.926,1 1.988,1.238 3.183,0.707 l 1.512,-0.668 c 0.891,-0.426 1.973,0.055 3.262,1.441 l 15.332,16.543 -5.84,5.411 z m -27.801,-23.968 -15.976,14.8 -0.93,0.864 c -0.855,0.797 -1.375,1.574 -1.543,2.324 -0.164,0.758 0.031,1.43 0.578,2.027 0.907,0.981 1.985,1.18 3.235,0.61 1.023,-0.469 1.636,-0.731 1.824,-0.797 0.183,-0.063 0.449,-0.055 0.793,0.031 0.64,0.117 1.348,0.59 2.117,1.43 l 33.223,35.851 c 0.769,0.832 1.203,1.575 1.258,2.227 0.058,0.344 0.05,0.609 -0.028,0.789 -0.078,0.18 -0.383,0.773 -0.93,1.762 -0.664,1.199 -0.542,2.281 0.364,3.261 0.547,0.598 1.211,0.84 1.972,0.735 0.762,-0.114 1.582,-0.563 2.442,-1.36 l 0.93,-0.863 15.972,-14.801 0.93,-0.863 c 1.699,-1.57 1.973,-2.977 0.82,-4.219 -0.93,-1.004 -1.98,-1.226 -3.152,-0.672 l -1.445,0.668 c -0.911,0.407 -1.997,-0.062 -3.223,-1.402 l -33.227,-35.848 c -1.238,-1.339 -1.629,-2.449 -1.148,-3.328 l 0.777,-1.386 c 0.637,-1.125 0.5,-2.192 -0.437,-3.196 -1.145,-1.242 -2.571,-1.078 -4.27,0.492 l -0.926,0.864" id="path32" style="fill:#231f20;fill-opacity:1;fill-rule:nonzero;stroke:none" transform="matrix(0.13333333,0,0,-0.13333333,0,130.30667)"></path>
      <path d="m 670.547,814.746 4.289,3.227 c 1.07,-1.641 1.883,-3.145 2.449,-4.516 0.559,-1.367 1.192,-3.437 1.887,-6.211 0.183,-0.68 0.406,-1.187 0.664,-1.523 0.367,-0.493 0.809,-0.731 1.324,-0.711 L 682.938,805 c 0.878,0.016 1.554,-0.277 2.003,-0.875 0.528,-0.703 0.657,-1.406 0.391,-2.113 -0.254,-0.707 -0.937,-1.469 -2.031,-2.289 l -12.879,-9.684 c -0.754,-0.566 -1.535,-0.816 -2.336,-0.746 -0.813,0.062 -1.465,0.437 -1.973,1.113 -0.39,0.524 -0.586,1.129 -0.578,1.824 0.031,0.391 0.149,0.774 0.332,1.141 0.196,0.371 0.598,0.883 1.203,1.535 1.055,1.246 2,2.731 2.825,4.449 0.828,1.719 1.421,3.45 1.785,5.188 0.691,3.453 0.324,6.859 -1.133,10.203 z m 2.168,6.457 -4.492,-3.371 c -1.653,1.281 -3.262,1.996 -4.817,2.148 -1.558,0.153 -3.015,-0.281 -4.375,-1.296 -1.297,-0.981 -2.168,-2.188 -2.613,-3.625 -0.449,-1.438 -0.52,-3.278 -0.219,-5.532 0.227,-1.543 0.942,-4.875 2.141,-9.996 0.742,-3.105 1.191,-5.609 1.34,-7.515 0.156,-1.903 0.047,-3.887 -0.325,-5.95 -0.917,-5.5 -3.601,-9.918 -8.046,-13.261 -3.36,-2.52 -7.063,-3.996 -11.094,-4.426 -4.031,-0.426 -7.942,0.219 -11.719,1.945 -2.004,0.938 -3.945,2.153 -5.828,3.653 -1.875,1.496 -3.43,3.054 -4.641,4.668 l 4.453,3.343 c 2.247,-1.855 4.239,-2.914 5.965,-3.183 1.731,-0.27 3.418,0.222 5.09,1.472 1.746,1.309 2.695,3.243 2.844,5.809 0.074,1.684 -0.344,4.461 -1.25,8.332 -1.008,4.258 -1.652,7.203 -1.945,8.84 -0.293,1.637 -0.442,3.301 -0.457,5 -0.188,7.508 2.617,13.445 8.425,17.808 2.957,2.231 6.161,3.676 9.59,4.34 3.43,0.664 6.738,0.477 9.91,-0.551 4.426,-1.441 8.45,-4.324 12.063,-8.652 z m -52.461,-36.25 -4.453,-3.34 c -1.602,2.133 -2.766,4.946 -3.477,8.442 -0.281,1.293 -0.488,2.172 -0.636,2.636 -0.145,0.457 -0.34,0.86 -0.594,1.2 -0.391,0.519 -0.774,0.847 -1.133,0.976 -0.371,0.137 -1.106,0.235 -2.207,0.301 -0.93,0.035 -1.594,0.328 -2,0.879 -1.106,1.453 -0.527,3.019 1.707,4.707 l 14.211,10.676 c 0.73,0.547 1.504,0.8 2.32,0.769 0.821,-0.035 1.477,-0.359 1.977,-0.957 0.457,-0.558 0.633,-1.129 0.523,-1.715 -0.105,-0.589 -0.515,-1.339 -1.226,-2.238 -1.789,-2.277 -3.235,-4.715 -4.328,-7.312 -1.102,-2.606 -1.766,-5.161 -1.985,-7.692 -0.254,-2.594 0.18,-5.035 1.301,-7.332" id="path33" style="fill:#231f20;fill-opacity:1;fill-rule:nonzero;stroke:none" transform="matrix(0.13333333,0,0,-0.13333333,0,130.30667)"></path>
      <path d="m 98.2891,197.078 3.7969,5.551 12.016,1.777 c 1.015,0.164 2.211,0.684 3.589,1.563 1.539,0.976 2.098,2.527 1.684,4.648 -0.219,1.16 -0.281,1.973 -0.18,2.43 0.102,0.461 0.446,0.871 1.032,1.238 0.711,0.461 1.41,0.57 2.082,0.324 0.445,-0.164 0.832,-0.418 1.164,-0.769 0.332,-0.344 0.808,-1.008 1.433,-1.992 l 6.266,-9.825 c 1.183,-1.855 1.031,-3.261 -0.457,-4.21 -0.527,-0.34 -1.024,-0.469 -1.473,-0.411 -0.453,0.071 -1.066,0.364 -1.84,0.871 -1.418,0.926 -2.589,1.485 -3.523,1.668 -1.359,0.262 -2.75,0.305 -4.176,0.149 l -2.613,-0.383 z m -4.7618,-0.855 -17.3554,-11.055 c -1.0352,-0.656 -1.6485,-1.328 -1.8438,-2.012 -0.1328,-0.383 -0.1718,-0.683 -0.1172,-0.918 0.0469,-0.226 0.2696,-0.937 0.6602,-2.14 0.5234,-1.465 0.1992,-2.567 -0.9688,-3.313 -0.7656,-0.484 -1.5781,-0.496 -2.4335,-0.035 -0.5352,0.254 -1.1954,0.996 -1.9727,2.215 l -0.8594,1.348 -11.3008,17.753 -0.8437,1.309 c -0.7539,1.191 -1.1328,2.129 -1.1172,2.813 -0.0156,0.957 0.3242,1.66 1.0156,2.097 1.168,0.746 2.3008,0.578 3.4024,-0.515 0.9258,-0.86 1.4804,-1.368 1.6679,-1.512 0.1797,-0.137 0.4688,-0.227 0.8477,-0.235 0.7031,-0.117 1.5781,0.157 2.6094,0.821 l 13.4492,8.562 19.6953,28.371 c 0.7344,1.063 1.082,2.129 1.043,3.184 -0.0039,1.004 0.0625,1.687 0.1992,2.059 0.1445,0.371 0.4531,0.703 0.9293,1.007 1.375,0.879 2.711,0.313 3.996,-1.711 l 12.415,-19.492 c 0.66,-1.035 0.996,-1.824 1.011,-2.383 0,-0.925 -0.347,-1.621 -1.035,-2.058 -0.851,-0.539 -1.758,-0.578 -2.726,-0.11 l -1.454,0.696 c -0.578,0.261 -1.156,0.215 -1.742,-0.156 -0.664,-0.422 -1.222,-0.989 -1.672,-1.68 l -15.4997,-22.91" id="path34" style="fill:#231f20;fill-opacity:1;fill-rule:nonzero;stroke:none" transform="matrix(0.13333333,0,0,-0.13333333,0,130.30667)"></path>
      <path d="m 148.723,174.836 3.882,3.289 c 2.079,-2.684 3.563,-5.496 4.45,-8.445 0.89,-2.942 1.215,-6.094 0.988,-9.465 -0.617,-8.945 -5.168,-17.02 -13.652,-24.227 -8.321,-7.07 -16.789,-10.234 -25.411,-9.511 -6.652,0.535 -12.453,3.308 -17.398,8.308 l 3.953,3.36 c 0.676,-0.497 1.274,-0.829 1.793,-0.985 0.524,-0.148 1.125,-0.187 1.805,-0.109 1.527,0.187 3.289,1.125 5.281,2.812 l 32.145,27.305 c 1.273,1.086 2.093,2.16 2.468,3.223 0.258,0.714 0.368,1.386 0.321,2.031 -0.051,0.637 -0.262,1.437 -0.625,2.414 z m -2.508,2.937 c -1.469,0.86 -2.785,1.223 -3.957,1.094 -1.172,-0.125 -2.477,-0.801 -3.914,-2.019 l -32.149,-27.305 c -2.109,-1.797 -3.351,-3.352 -3.722,-4.66 -0.332,-1.063 -0.149,-2.324 0.558,-3.789 l -3.9529,-3.36 c -4.0937,5.684 -5.8789,11.844 -5.3633,18.477 0.6836,8.625 5.1836,16.477 13.5042,23.535 4.168,3.547 8.461,6.133 12.879,7.754 4.414,1.633 8.828,2.227 13.23,1.809 3.371,-0.325 6.43,-1.153 9.172,-2.493 2.75,-1.336 5.281,-3.25 7.602,-5.742 l -3.887,-3.301" id="path35" style="fill:#231f20;fill-opacity:1;fill-rule:nonzero;stroke:none" transform="matrix(0.13333333,0,0,-0.13333333,0,130.30667)"></path>
      <path d="m 155.934,81.543 3.968,4.7265 c 2.672,-1.6992 5.512,-2.4023 8.528,-2.0898 3.425,0.3633 6.633,2.3359 9.629,5.8984 l 19.761,23.5669 c 2.77,3.3 3.442,6.668 2,10.085 -0.425,1.016 -0.636,1.758 -0.632,2.227 0.007,0.469 0.23,0.969 0.675,1.496 0.524,0.633 1.129,0.887 1.809,0.762 0.676,-0.117 1.535,-0.606 2.57,-1.477 l 8.86,-7.429 c 0.746,-0.625 1.234,-1.067 1.453,-1.309 0.226,-0.254 0.394,-0.547 0.511,-0.898 0.329,-0.891 0.227,-1.641 -0.3,-2.266 -0.446,-0.539 -1.012,-0.82 -1.7,-0.859 -0.218,-0.024 -1.011,0.097 -2.375,0.332 -1.546,0.312 -3.117,0.117 -4.718,-0.567 -1.61,-0.683 -3.043,-1.789 -4.317,-3.312 L 181.855,86.8281 c -3.394,-4.0547 -7.074,-6.6328 -11.039,-7.7343 -2.921,-0.8399 -6.086,-0.8125 -9.488,0.0781 -1.687,0.4297 -3.484,1.2187 -5.394,2.3711 z m -10.547,35.07 23.769,28.348 c 0.707,0.84 1.078,1.574 1.114,2.207 0.039,0.332 0.011,0.586 -0.071,0.762 -0.078,0.168 -0.41,0.722 -0.98,1.648 -0.703,1.125 -0.645,2.172 0.16,3.137 0.527,0.625 1.164,0.91 1.906,0.832 0.742,-0.07 1.547,-0.461 2.414,-1.192 l 0.942,-0.792 16.121,-13.516 0.937,-0.789 1.184,-1.242 c 0.305,-0.457 0.461,-0.957 0.469,-1.493 0,-0.539 -0.184,-1.027 -0.543,-1.457 -0.813,-0.964 -1.832,-1.199 -3.059,-0.703 -1.016,0.403 -1.613,0.625 -1.801,0.672 -0.179,0.063 -0.433,0.031 -0.761,-0.055 -0.618,-0.148 -1.274,-0.644 -1.985,-1.484 L 159.77,101.16 c -1.719,-2.0389 -2.868,-3.5116 -3.43,-4.41 -0.57,-0.8984 -0.957,-1.8164 -1.168,-2.7539 -0.192,-0.8594 -0.207,-1.5938 -0.043,-2.1797 0.164,-0.5859 0.648,-1.5039 1.449,-2.7539 l -3.976,-4.7344 -0.789,0.6641 c -3.137,2.6367 -5.508,5.0976 -7.118,7.3828 -1.886,2.6953 -3.211,5.4492 -3.968,8.262 -0.762,2.812 -0.86,5.34 -0.297,7.578 0.593,2.371 2.246,5.176 4.957,8.398" id="path36" style="fill:#231f20;fill-opacity:1;fill-rule:nonzero;stroke:none" transform="matrix(0.13333333,0,0,-0.13333333,0,130.30667)"></path>
      <path d="m 266.781,84.4258 2.399,5.1836 c 1.293,-0.8789 2.312,-1.6485 3.066,-2.3047 0.75,-0.6641 2.078,-1.9336 3.981,-3.8164 1.218,-1.1914 2.07,-1.8945 2.558,-2.1211 0.824,-0.3789 1.625,-0.3008 2.399,0.2461 l 1.027,0.7695 c 0.66,0.5274 1.461,0.5664 2.402,0.1367 0.774,-0.3593 1.262,-0.8593 1.461,-1.5117 0.203,-0.6445 0.102,-1.4062 -0.308,-2.2969 l -8.243,-17.8125 c -0.527,-1.1406 -1.168,-1.8554 -1.918,-2.1289 -0.75,-0.2734 -1.457,-0.2617 -2.109,0.0391 -0.687,0.3242 -1.133,0.793 -1.344,1.4258 -0.211,0.6367 -0.211,1.5156 -0.004,2.6289 0.442,2.539 0.672,4.5781 0.7,6.1211 0.023,3.2812 -0.36,6.125 -1.149,8.5351 -0.527,1.6328 -1.176,3 -1.949,4.1016 -0.773,1.1055 -1.762,2.0391 -2.969,2.8047 z m -25.558,-55.6055 2.414,5.2227 c 2.304,-0.8477 5.039,-1.0938 8.195,-0.7149 1.691,0.2188 3.379,0.7852 5.043,1.6914 1.672,0.9102 3.145,2.0703 4.426,3.4961 0.707,0.7813 1.34,1.2696 1.906,1.4766 0.563,0.2109 1.156,0.1641 1.789,-0.1172 0.684,-0.3242 1.137,-0.8398 1.352,-1.5625 0.218,-0.7344 0.152,-1.4766 -0.203,-2.2461 -0.594,-1.2891 -1.809,-2.6172 -3.633,-3.9883 -1.832,-1.375 -3.875,-2.4687 -6.129,-3.2968 -2.762,-1.0157 -5.336,-1.5157 -7.746,-1.5157 -2.407,0 -4.875,0.5274 -7.414,1.5547 z m 24.593,62.3906 -2.398,-5.1757 c -1.801,0.5195 -3.402,0.3632 -4.797,-0.4883 -1.394,-0.8399 -2.621,-2.4102 -3.68,-4.6875 l -16.355,-35.3789 -0.856,-1.836 c -0.304,-0.6562 -0.488,-1.4179 -0.55,-2.2656 -0.067,-0.8516 -0.008,-1.6406 0.183,-2.3437 0.196,-0.793 0.492,-1.418 0.895,-1.8946 0.398,-0.4883 1.023,-0.9804 1.871,-1.4648 l -2.418,-5.2266 c -5.539,2.5586 -9.684,6.2305 -12.434,10.9961 -2.422,4.211 -3.547,8.8789 -3.386,14.0235 0.156,5.1367 1.593,10.6562 4.316,16.5351 1.996,4.3047 4.445,8.0547 7.352,11.2305 2.91,3.1719 6.125,5.6133 9.648,7.3125 3.566,1.7109 7.324,2.6758 11.289,2.8906 3.961,0.207 7.414,-0.3594 10.352,-1.7266 l 0.968,-0.5" id="path37" style="fill:#231f20;fill-opacity:1;fill-rule:nonzero;stroke:none" transform="matrix(0.13333333,0,0,-0.13333333,0,130.30667)"></path>
      <path d="m 309.148,74.1406 18.485,-4.4726 -0.278,-56.9649 c 0.012,-1.0039 0.086,-1.9101 0.211,-2.72263 0.137,-0.64453 0.633,-1.26953 1.493,-1.86328 0.711,-0.52735 1.183,-0.9961 1.41,-1.40625 0.219,-0.41016 0.261,-0.91016 0.121,-1.48438 -0.379,-1.59375 -1.766,-2.10156 -4.149,-1.52343 l -22.886,5.53515 c -0.918,0.21485 -1.598,0.61719 -2.039,1.19142 -0.446,0.5781 -0.578,1.2305 -0.403,1.9648 0.153,0.6133 0.379,1.043 0.703,1.2891 0.317,0.2422 0.961,0.4961 1.93,0.75 0.684,0.1562 1.192,0.3906 1.527,0.6953 0.332,0.3125 0.567,0.7422 0.7,1.2891 0.125,0.5156 0.187,0.9843 0.195,1.4062 l 0.137,7.0117 -12.793,3.086 2.558,5.1562 10.274,-2.4804 0.57,39.3242 z m -5.98,-10.8867 0.047,-10.0586 -15.281,-27.6601 c -0.454,-0.7969 -0.766,-1.5586 -0.942,-2.293 -0.469,-1.9336 0.102,-3.5234 1.703,-4.7852 l 1.434,-1.1211 c 0.894,-0.7031 1.215,-1.5937 0.957,-2.6562 -0.371,-1.5352 -1.672,-2.0234 -3.902,-1.4844 l -11.653,2.8125 c -1.129,0.2735 -1.968,0.7305 -2.508,1.3555 -0.543,0.6367 -0.714,1.3672 -0.511,2.1875 0.215,0.8906 1.062,1.4648 2.547,1.7187 1.386,0.2461 2.429,0.5157 3.132,0.8203 0.704,0.293 1.422,0.7618 2.161,1.3985 1.156,1.043 2.265,2.539 3.316,4.4805 l 19.5,35.2851" id="path38" style="fill:#231f20;fill-opacity:1;fill-rule:nonzero;stroke:none" transform="matrix(0.13333333,0,0,-0.13333333,0,130.30667)"></path>
      <path d="m 399.258,28.3516 -4.824,8.5547 0.261,13.0664 c 0.063,2.6367 -0.281,4.6679 -1.023,6.082 -0.742,1.418 -2.078,2.6484 -4.004,3.6914 -0.664,0.3242 -1.113,0.6758 -1.348,1.0469 -0.254,0.3593 -0.371,0.8281 -0.351,1.3945 0.019,0.8477 0.301,1.4648 0.859,1.8477 0.567,0.3789 1.453,0.5546 2.676,0.5351 l 11.797,-0.2422 c 1.601,-0.0429 2.656,-0.3125 3.144,-0.8203 0.528,-0.5195 0.782,-1.125 0.762,-1.8086 -0.012,-0.664 -0.164,-1.1523 -0.477,-1.4844 -0.304,-0.3203 -1.027,-0.75 -2.167,-1.2968 -1.692,-0.8125 -2.969,-2.0899 -3.86,-3.8399 -0.625,-1.2695 -0.957,-3.0156 -1.008,-5.2148 z M 374.902,64.9102 399.102,20.8125 398.672,0 385.793,0.273438 354.902,56.125 c -0.668,1.2109 -1.214,2.0508 -1.644,2.5273 -0.438,0.4883 -0.992,0.8399 -1.68,1.0743 l -1.777,0.7031 c -0.469,0.168 -0.84,0.4609 -1.113,0.8711 -0.282,0.4101 -0.411,0.8672 -0.395,1.375 0.008,0.539 0.16,1.0273 0.453,1.4765 0.293,0.4493 0.672,0.7696 1.152,0.9454 0.536,0.207 1.989,0.2851 4.344,0.2343 z m -20.105,-16.1485 4.828,-8.4101 -0.52,-25.2813 c -0.046,-2.1992 0.286,-4.0156 0.997,-5.44139 0.711,-1.4336 1.855,-2.625 3.445,-3.5625 l 1.394,-0.83203 c 0.805,-0.48829 1.204,-1.21094 1.18,-2.14844 -0.012,-0.73047 -0.324,-1.31641 -0.93,-1.77735 -0.511,-0.398434 -1.554,-0.585934 -3.125,-0.546871 l -10.898,0.226562 c -2.863,0.058599 -4.273,0.906249 -4.238,2.539059 0.008,0.56641 0.164,1.01563 0.472,1.33594 0.309,0.32422 0.965,0.75391 1.989,1.29688 3.05,1.61328 4.625,4.61324 4.714,9.01564 l 0.692,33.5859" id="path39" style="fill:#231f20;fill-opacity:1;fill-rule:nonzero;stroke:none" transform="matrix(0.13333333,0,0,-0.13333333,0,130.30667)"></path>
      <path d="m 485.156,84.5898 5.637,-18.457 c 0.262,-0.8789 0.223,-1.6601 -0.102,-2.3515 -0.332,-0.6954 -0.886,-1.1524 -1.668,-1.3985 -0.753,-0.2226 -1.457,-0.1758 -2.097,0.1758 -0.656,0.3437 -1.184,0.9297 -1.606,1.7578 l -1.289,2.6172 c -1.304,2.6562 -2.918,4.8164 -4.832,6.4648 -1.203,1.0157 -2.617,1.7188 -4.25,2.1094 l -1.668,5.461 z m -15.613,-4.7656 16.18,-53.0273 c 0.363,-1.1719 0.84,-1.9414 1.445,-2.3242 0.332,-0.2227 0.613,-0.3399 0.852,-0.3516 0.234,-0.0078 0.984,0.0117 2.246,0.0703 1.55,0.1055 2.515,-0.5 2.925,-1.8281 0.239,-0.7813 0.039,-1.5352 -0.593,-2.2461 -0.469,-0.5391 -1.368,-1.0156 -2.727,-1.4258 l -1.492,-0.457 -20.125,-6.1328 -1.484,-0.461 c -1.332,-0.3984 -2.383,-0.5078 -3.184,-0.3008 -0.805,0.1954 -1.328,0.7032 -1.574,1.5118 -0.41,1.3281 0.058,2.375 1.406,3.1445 1.086,0.6562 1.719,1.0547 1.902,1.1914 0.188,0.1484 0.344,0.4023 0.461,0.7617 0.293,0.6446 0.266,1.5625 -0.097,2.7344 l -16.18,53.0273 z m -35.559,-10.8594 11.868,3.625 1.668,-5.4609 c -1.172,-1.2383 -1.954,-2.6172 -2.352,-4.1211 -0.664,-2.4414 -0.805,-5.125 -0.395,-8.0547 l 0.383,-2.8906 c 0.117,-0.918 0,-1.7109 -0.343,-2.3555 -0.34,-0.6445 -0.887,-1.082 -1.637,-1.3164 -0.793,-0.2343 -1.504,-0.1562 -2.168,0.2344 -0.664,0.3906 -1.125,1.0156 -1.399,1.8828 l -5.625,18.457" id="path40" style="fill:#231f20;fill-opacity:1;fill-rule:nonzero;stroke:none" transform="matrix(0.13333333,0,0,-0.13333333,0,130.30667)"></path>
      <path d="m 540.652,77.0117 c 2.746,1.0156 4.922,1.6719 6.543,1.9649 1.621,0.2929 3.203,0.3398 4.746,0.1562 1.633,-0.2148 3.079,-0.7422 4.36,-1.582 1.277,-0.832 2.273,-1.9141 3.008,-3.2344 l 4.746,-8.5351 c 0.488,-0.879 1.023,-1.1602 1.597,-0.8399 0.215,0.1172 0.371,0.2852 0.453,0.4883 0.086,0.2148 0.165,0.5664 0.243,1.0859 0.168,1.3086 0.605,2.168 1.32,2.5664 0.469,0.2657 1.07,0.2735 1.812,0.0391 0.747,-0.2344 1.25,-0.6055 1.528,-1.0938 0.476,-0.8593 0.64,-2.1171 0.515,-3.7968 -0.136,-1.6719 -0.539,-3.3203 -1.21,-4.961 -0.625,-1.5351 -1.485,-2.8632 -2.579,-3.9961 -1.101,-1.1328 -2.546,-2.1953 -4.336,-3.1953 -3.625,-2.0078 -7.031,-2.5468 -10.222,-1.5976 -3.188,0.9453 -5.813,3.2695 -7.871,6.9922 l -3.852,6.9218 c -0.855,1.543 -1.363,2.4336 -1.531,2.6563 -0.75,1.0273 -1.66,1.7578 -2.734,2.207 -1.336,0.5195 -2.793,0.4492 -4.368,-0.2031 l -2.449,4.4023 c 1.367,1.0469 2.207,2.0235 2.539,2.9219 0.274,0.8008 0.332,1.5703 0.195,2.3242 -0.144,0.75 -0.566,1.7383 -1.25,2.9766 l -6.074,10.9297 c -0.968,1.7265 -2.019,2.8398 -3.164,3.3203 -1.14,0.4766 -2.734,0.4687 -4.773,-0.0117 l -2.539,4.582 1.074,0.594 c 3.047,1.691 5.711,3.027 7.976,3.996 3.36,1.473 6.778,2.012 10.274,1.609 5.027,-0.554 8.848,-3.203 11.476,-7.9295 2.157,-3.875 2.704,-7.7226 1.668,-11.5429 -0.437,-1.6094 -1.164,-3.125 -2.148,-4.5391 -0.996,-1.418 -2.656,-3.3125 -4.973,-5.6758 z m -28.609,21.6719 26.922,-48.457 c 0.598,-1.0743 1.23,-1.7305 1.894,-1.9727 0.379,-0.1484 0.672,-0.207 0.911,-0.168 0.234,0.0391 0.957,0.2149 2.183,0.5391 1.485,0.4297 2.57,0.0352 3.235,-1.1719 0.402,-0.7148 0.363,-1.4961 -0.11,-2.3242 -0.34,-0.625 -1.109,-1.2695 -2.32,-1.9453 l -1.399,-0.7734 -18.398,-10.2227 -1.074,-0.5937 c -0.989,-0.5469 -1.856,-0.7813 -2.598,-0.7149 -0.742,0.0781 -1.309,0.4609 -1.687,1.1445 -0.625,1.1211 -0.493,2.1758 0.418,3.1446 0.734,0.8008 1.164,1.2851 1.281,1.4336 0.105,0.1562 0.176,0.4023 0.203,0.7422 0.09,0.625 -0.137,1.4179 -0.676,2.375 l -22.93,41.289 c -0.535,0.9649 -1.089,1.5703 -1.66,1.8242 -0.3,0.1563 -0.554,0.2344 -0.742,0.2149 -0.183,-0.0196 -0.816,-0.125 -1.891,-0.3203 -1.3,-0.2539 -2.265,0.1757 -2.89,1.3086 -0.383,0.6836 -0.41,1.3671 -0.078,2.0312 0.332,0.6719 0.996,1.2774 1.98,1.8359 l 1.074,0.5938 18.352,10.1875" id="path41" style="fill:#231f20;fill-opacity:1;fill-rule:nonzero;stroke:none" transform="matrix(0.13333333,0,0,-0.13333333,0,130.30667)"></path>
      <path d="m 614.082,90.0781 -3.984,4.7266 c 2.136,2.3359 3.308,5.0195 3.515,8.0393 0.215,3.437 -1.172,6.941 -4.179,10.496 l -19.864,23.488 c -2.785,3.289 -5.984,4.512 -9.597,3.68 -1.078,-0.242 -1.836,-0.332 -2.305,-0.242 -0.461,0.078 -0.91,0.39 -1.359,0.918 -0.528,0.625 -0.672,1.257 -0.45,1.914 0.235,0.644 0.871,1.406 1.907,2.285 l 8.828,7.461 c 0.742,0.625 1.25,1.035 1.531,1.211 0.281,0.175 0.605,0.293 0.969,0.351 0.933,0.164 1.66,-0.058 2.183,-0.683 0.453,-0.528 0.637,-1.133 0.559,-1.817 -0.02,-0.226 -0.266,-0.988 -0.731,-2.285 -0.57,-1.476 -0.644,-3.058 -0.246,-4.758 0.411,-1.687 1.25,-3.3 2.532,-4.812 l 19.89,-23.516 c 3.418,-4.043 5.332,-8.105 5.742,-12.199 0.332,-3.027 -0.234,-6.1329 -1.679,-9.336 -0.711,-1.5898 -1.797,-3.2305 -3.262,-4.9219 z M 577.727,85.6563 553.84,113.898 c -0.715,0.84 -1.367,1.329 -1.985,1.473 -0.332,0.09 -0.585,0.117 -0.769,0.059 -0.18,-0.047 -0.781,-0.274 -1.801,-0.684 -1.219,-0.496 -2.234,-0.273 -3.055,0.695 -0.527,0.625 -0.695,1.289 -0.5,2.012 0.2,0.723 0.723,1.445 1.594,2.176 l 0.938,0.793 16.062,13.594 0.942,0.789 1.414,0.949 c 0.508,0.223 1.023,0.293 1.562,0.203 0.528,-0.086 0.969,-0.34 1.336,-0.781 0.813,-0.957 0.871,-2 0.18,-3.125 -0.578,-0.938 -0.903,-1.485 -0.981,-1.66 -0.086,-0.164 -0.105,-0.43 -0.066,-0.762 0.039,-0.625 0.41,-1.367 1.125,-2.207 l 25.562,-30.2228 c 1.719,-2.0429 2.981,-3.4179 3.774,-4.1328 0.789,-0.7109 1.621,-1.25 2.508,-1.6133 0.82,-0.3398 1.535,-0.4765 2.136,-0.4179 0.618,0.0703 1.606,0.3828 2.961,0.957 l 3.993,-4.7149 -0.79,-0.664 c -3.125,-2.6485 -5.949,-4.5625 -8.488,-5.7539 -2.969,-1.4063 -5.906,-2.2461 -8.804,-2.5196 -2.903,-0.2617 -5.415,0.0704 -7.52,0.9961 -2.238,0.9961 -4.719,3.0977 -7.441,6.3204" id="path42" style="fill:#231f20;fill-opacity:1;fill-rule:nonzero;stroke:none" transform="matrix(0.13333333,0,0,-0.13333333,0,130.30667)"></path>
      <path d="m 650.762,134.285 4.074,-3.512 c -1.691,-1.953 -4.106,-3.625 -7.258,-5.019 -1.16,-0.527 -1.953,-0.91 -2.363,-1.145 -0.402,-0.222 -0.742,-0.496 -1.004,-0.808 -0.41,-0.481 -0.648,-0.899 -0.695,-1.27 -0.047,-0.371 0.007,-1.086 0.175,-2.148 0.157,-0.879 0.02,-1.574 -0.41,-2.07 -1.152,-1.329 -2.754,-1.114 -4.804,0.652 l -13.008,11.211 c -0.664,0.578 -1.067,1.25 -1.199,2.031 -0.137,0.781 0.027,1.477 0.496,2.063 0.429,0.546 0.925,0.828 1.511,0.847 0.578,0.02 1.36,-0.207 2.356,-0.691 2.527,-1.223 5.129,-2.082 7.805,-2.59 2.683,-0.496 5.234,-0.594 7.664,-0.281 2.5,0.293 4.714,1.211 6.66,2.73 z m -38.489,41.352 -3.933,3.386 c 1.328,1.348 2.578,2.422 3.762,3.235 1.179,0.82 3.003,1.836 5.476,3.066 0.598,0.313 1.035,0.625 1.301,0.938 0.391,0.449 0.523,0.918 0.398,1.394 l -0.359,1.68 c -0.195,0.832 -0.063,1.523 0.418,2.07 0.559,0.645 1.191,0.918 1.914,0.813 0.723,-0.098 1.582,-0.586 2.578,-1.446 l 11.797,-10.168 c 0.691,-0.593 1.086,-1.277 1.191,-2.05 0.098,-0.77 -0.117,-1.477 -0.656,-2.09 -0.406,-0.477 -0.945,-0.781 -1.597,-0.93 -0.383,-0.047 -0.762,-0.015 -1.145,0.09 -0.391,0.109 -0.957,0.371 -1.699,0.813 -1.399,0.742 -2.989,1.328 -4.785,1.757 -1.789,0.418 -3.543,0.625 -5.262,0.606 -3.41,-0.051 -6.543,-1.106 -9.399,-3.164 z m -6.543,0.711 4.106,-3.535 c -0.859,-1.825 -1.215,-3.497 -1.035,-5 0.183,-1.504 0.887,-2.782 2.129,-3.86 1.187,-1.023 2.508,-1.598 3.953,-1.726 1.457,-0.125 3.203,0.183 5.273,0.937 1.407,0.527 4.407,1.895 8.992,4.082 2.778,1.348 5.051,2.285 6.821,2.813 1.765,0.539 3.66,0.839 5.679,0.929 5.383,0.262 10.11,-1.367 14.18,-4.875 3.078,-2.656 5.227,-5.84 6.469,-9.558 1.226,-3.723 1.426,-7.551 0.574,-11.465 -0.469,-2.09 -1.223,-4.172 -2.246,-6.262 -1.023,-2.078 -2.18,-3.855 -3.445,-5.332 l -4.082,3.508 c 1.289,2.508 1.882,4.598 1.773,6.289 -0.098,1.687 -0.906,3.184 -2.437,4.5 -1.594,1.379 -3.618,1.875 -6.067,1.492 -1.601,-0.269 -4.14,-1.25 -7.605,-2.906 -3.821,-1.816 -6.465,-3.039 -7.949,-3.645 -1.477,-0.613 -3.02,-1.101 -4.622,-1.464 -7.058,-1.727 -13.242,-0.301 -18.554,4.277 -2.715,2.344 -4.739,5.07 -6.074,8.164 -1.329,3.105 -1.836,6.262 -1.512,9.473 0.445,4.472 2.344,8.859 5.679,13.164" id="path43" style="fill:#231f20;fill-opacity:1;fill-rule:nonzero;stroke:none" transform="matrix(0.13333333,0,0,-0.13333333,0,130.30667)"></path>
      <path d="m 654.629,242.266 16.172,-10.528 c 0.762,-0.496 1.242,-1.113 1.433,-1.855 0.2,-0.75 0.071,-1.465 -0.379,-2.149 -0.429,-0.656 -1.003,-1.062 -1.718,-1.218 -0.723,-0.149 -1.504,-0.039 -2.356,0.32 l -2.676,1.172 c -2.703,1.203 -5.32,1.816 -7.847,1.855 -1.574,0.012 -3.117,-0.359 -4.613,-1.113 l -4.786,3.117 z m -8.906,-13.68 46.472,-30.234 c 1.028,-0.676 1.899,-0.957 2.602,-0.852 0.398,0.039 0.691,0.129 0.879,0.273 0.183,0.137 0.742,0.637 1.679,1.497 1.114,1.074 2.247,1.238 3.407,0.488 0.683,-0.449 1.015,-1.153 0.996,-2.11 -0.012,-0.714 -0.403,-1.66 -1.172,-2.843 l -0.852,-1.309 -11.472,-17.637 -0.852,-1.308 c -0.762,-1.153 -1.504,-1.914 -2.242,-2.274 -0.742,-0.363 -1.477,-0.312 -2.18,0.145 -1.164,0.762 -1.472,1.863 -0.945,3.32 0.406,1.192 0.633,1.914 0.691,2.141 0.047,0.222 0.008,0.515 -0.136,0.867 -0.188,0.695 -0.801,1.367 -1.828,2.043 l -46.473,30.223 z m -20.274,-31.176 6.77,10.403 4.785,-3.106 c -0.102,-1.707 0.184,-3.262 0.848,-4.668 1.054,-2.293 2.683,-4.441 4.875,-6.434 l 2.156,-1.964 c 0.683,-0.633 1.094,-1.297 1.25,-2.02 0.144,-0.723 0.012,-1.406 -0.418,-2.07 -0.449,-0.684 -1.047,-1.086 -1.809,-1.211 -0.754,-0.129 -1.511,0.058 -2.285,0.555 l -16.172,10.515" id="path44" style="fill:#231f20;fill-opacity:1;fill-rule:nonzero;stroke:none" transform="matrix(0.13333333,0,0,-0.13333333,0,130.30667)"></path>
      <path d="m 553.738,741.27 c 1.821,-1.993 3.575,-3.055 5.254,-3.192 1.684,-0.137 3.305,0.52 4.856,1.981 1.562,1.461 2.312,3.027 2.273,4.703 -0.035,1.676 -0.984,3.5 -2.828,5.468 l -6.359,6.782 -9.563,-8.961 z m 13.567,10.531 c 2.461,-2.625 3.652,-5.246 3.562,-7.86 -0.074,-2.617 -1.336,-5.062 -3.765,-7.343 -2.434,-2.282 -4.961,-3.383 -7.59,-3.317 -2.625,0.074 -5.157,1.438 -7.598,4.082 l -7.461,7.95 -10.644,-9.985 -3.25,3.461 26.043,24.426 10.703,-11.414" id="path45" style="fill:#231f20;fill-opacity:1;fill-rule:nonzero;stroke:none" transform="matrix(0.13333333,0,0,-0.13333333,0,130.30667)"></path>
      <path d="m 577.629,713.598 c 0.73,-0.696 1.519,-1.203 2.359,-1.512 0.832,-0.313 1.711,-0.402 2.641,-0.273 0.918,0.132 1.902,0.585 2.937,1.367 1.446,1.078 2.317,2.355 2.625,3.836 0.305,1.48 -0.203,3.117 -1.55,4.898 l -7.071,9.445 -9.961,-7.468 5.938,-7.918 c 0.652,-0.879 1.348,-1.672 2.082,-2.375 z M 590,724.117 c 2.031,-2.726 2.961,-5.347 2.773,-7.883 -0.183,-2.531 -1.433,-4.671 -3.75,-6.41 -1.738,-1.297 -3.554,-2.047 -5.449,-2.234 -1.894,-0.192 -3.738,0.398 -5.515,1.769 l -0.079,-0.058 c 0.458,-0.946 0.692,-1.821 0.711,-2.621 0.02,-0.801 -0.117,-1.547 -0.41,-2.246 -0.293,-0.692 -0.703,-1.356 -1.23,-1.981 -0.528,-0.625 -1.113,-1.242 -1.746,-1.844 -0.657,-0.57 -1.328,-1.14 -2.035,-1.707 -0.692,-0.566 -1.356,-1.164 -1.961,-1.789 -0.618,-0.629 -1.164,-1.273 -1.641,-1.941 -0.48,-0.676 -0.801,-1.387 -0.984,-2.149 l -3.176,4.243 c 0.09,0.488 0.351,0.968 0.793,1.441 0.437,0.473 0.957,0.957 1.558,1.453 0.618,0.496 1.262,1.028 1.965,1.594 0.703,0.566 1.348,1.176 1.946,1.832 0.613,0.625 1.168,1.254 1.675,1.883 0.508,0.629 0.864,1.289 1.075,1.988 0.207,0.699 0.238,1.43 0.097,2.203 -0.137,0.766 -0.554,1.621 -1.258,2.551 l -6.953,9.285 -12.207,-9.148 -2.851,3.804 28.574,21.407 L 590,724.117" id="path46" style="fill:#231f20;fill-opacity:1;fill-rule:nonzero;stroke:none" transform="matrix(0.13333333,0,0,-0.13333333,0,130.30667)"></path>
      <path d="m 583.613,692.695 c -1.269,-1.289 -2.265,-2.715 -2.961,-4.285 -0.703,-1.574 -1.023,-3.25 -0.964,-5.031 0.058,-1.777 0.632,-3.602 1.73,-5.473 1.094,-1.871 2.398,-3.265 3.926,-4.191 1.531,-0.922 3.14,-1.457 4.859,-1.613 1.711,-0.153 3.442,0.007 5.188,0.492 1.75,0.484 3.398,1.176 4.953,2.086 1.551,0.91 2.969,2.011 4.234,3.293 1.281,1.289 2.27,2.722 2.973,4.289 0.703,1.57 1.023,3.246 0.965,5.027 -0.059,1.785 -0.633,3.609 -1.739,5.481 -1.093,1.871 -2.402,3.261 -3.925,4.183 -1.524,0.922 -3.145,1.461 -4.864,1.617 -1.711,0.157 -3.437,-0.011 -5.183,-0.488 -1.75,-0.484 -3.403,-1.184 -4.953,-2.09 -1.551,-0.91 -2.957,-2.008 -4.239,-3.297 z m 8.45,10.02 c 2.3,0.519 4.558,0.598 6.785,0.234 2.215,-0.355 4.304,-1.195 6.281,-2.515 1.973,-1.317 3.672,-3.204 5.105,-5.645 1.426,-2.445 2.239,-4.848 2.434,-7.211 0.184,-2.363 -0.109,-4.605 -0.883,-6.715 -0.769,-2.113 -1.941,-4.047 -3.523,-5.804 -1.582,-1.754 -3.418,-3.246 -5.52,-4.477 -2.097,-1.23 -4.304,-2.105 -6.597,-2.621 -2.305,-0.523 -4.575,-0.602 -6.79,-0.242 -2.226,0.363 -4.316,1.207 -6.269,2.531 -1.953,1.328 -3.645,3.211 -5.078,5.66 -1.438,2.445 -2.246,4.844 -2.449,7.195 -0.207,2.356 0.078,4.59 0.847,6.704 0.774,2.109 1.953,4.043 3.528,5.8 1.582,1.758 3.418,3.25 5.515,4.481 2.102,1.23 4.309,2.101 6.614,2.625" id="path47" style="fill:#231f20;fill-opacity:1;fill-rule:nonzero;stroke:none" transform="matrix(0.13333333,0,0,-0.13333333,0,130.30667)"></path>
      <path d="m 631.609,650.605 -3.629,-1.679 -7.835,16.984 -10.309,-4.758 6.875,-14.89 -3.637,-1.676 -6.875,14.891 -14.844,-6.856 -1.992,4.317 32.422,14.957 9.824,-21.29" id="path48" style="fill:#231f20;fill-opacity:1;fill-rule:nonzero;stroke:none" transform="matrix(0.13333333,0,0,-0.13333333,0,130.30667)"></path>
      <path d="m 642.645,621.117 -3.758,-1.375 -6.844,18.68 -10.664,-3.906 6.394,-17.414 -3.757,-1.379 -6.387,17.414 -11.594,-4.254 6.903,-18.824 -3.758,-1.375 -8.535,23.281 33.503,12.297 8.497,-23.145" id="path49" style="fill:#231f20;fill-opacity:1;fill-rule:nonzero;stroke:none" transform="matrix(0.13333333,0,0,-0.13333333,0,130.30667)"></path>
      <path d="m 644.895,595.676 c 0.679,1.836 0.703,3.937 0.039,6.316 -0.266,0.961 -0.625,1.887 -1.079,2.766 -0.449,0.879 -0.996,1.613 -1.648,2.211 -0.652,0.601 -1.414,1.011 -2.285,1.234 -0.879,0.227 -1.875,0.18 -2.996,-0.133 -1.067,-0.293 -1.836,-0.843 -2.324,-1.648 -0.481,-0.813 -0.793,-1.793 -0.918,-2.953 -0.129,-1.16 -0.149,-2.438 -0.063,-3.828 0.102,-1.395 0.168,-2.821 0.227,-4.274 0.058,-1.449 0.047,-2.894 -0.02,-4.336 -0.066,-1.437 -0.32,-2.777 -0.769,-4.027 -0.461,-1.25 -1.157,-2.344 -2.114,-3.281 -0.945,-0.938 -2.273,-1.645 -3.972,-2.11 -1.836,-0.508 -3.516,-0.535 -5.039,-0.074 -1.536,0.457 -2.879,1.215 -4.051,2.274 -1.184,1.058 -2.168,2.332 -2.981,3.82 -0.808,1.488 -1.433,3.023 -1.867,4.594 -0.535,1.929 -0.801,3.82 -0.789,5.668 0,1.851 0.313,3.566 0.938,5.136 0.617,1.574 1.582,2.949 2.902,4.129 1.316,1.176 3.016,2.051 5.105,2.629 l 1.204,-4.336 c -1.45,-0.398 -2.622,-1.023 -3.5,-1.879 -0.887,-0.847 -1.54,-1.828 -1.969,-2.929 -0.422,-1.102 -0.625,-2.309 -0.61,-3.618 0.024,-1.308 0.207,-2.609 0.559,-3.89 0.293,-1.028 0.676,-2.039 1.152,-3.028 0.489,-0.992 1.075,-1.843 1.77,-2.546 0.699,-0.708 1.519,-1.204 2.469,-1.497 0.937,-0.293 2.043,-0.265 3.293,0.082 1.187,0.329 2.07,0.907 2.632,1.739 0.559,0.828 0.93,1.836 1.118,3.008 0.171,1.171 0.222,2.457 0.144,3.851 -0.078,1.402 -0.144,2.824 -0.223,4.274 -0.07,1.449 -0.089,2.89 -0.05,4.316 0.039,1.43 0.234,2.758 0.605,3.984 0.371,1.227 0.996,2.293 1.863,3.211 0.872,0.914 2.09,1.594 3.665,2.028 1.738,0.476 3.339,0.543 4.804,0.187 1.465,-0.359 2.766,-1.008 3.906,-1.953 1.153,-0.945 2.129,-2.109 2.942,-3.492 0.816,-1.383 1.441,-2.863 1.875,-4.434 0.496,-1.769 0.738,-3.461 0.738,-5.09 0,-1.625 -0.293,-3.132 -0.879,-4.523 -0.586,-1.387 -1.465,-2.598 -2.644,-3.641 -1.192,-1.035 -2.715,-1.843 -4.59,-2.433 l -1.199,4.336 c 2.402,0.941 3.945,2.328 4.629,4.16" id="path50" style="fill:#231f20;fill-opacity:1;fill-rule:nonzero;stroke:none" transform="matrix(0.13333333,0,0,-0.13333333,0,130.30667)"></path>
      <path d="m 652.246,561.852 c 0.84,1.765 1.024,3.863 0.574,6.289 -0.183,0.98 -0.465,1.929 -0.84,2.839 -0.378,0.915 -0.867,1.696 -1.46,2.348 -0.598,0.652 -1.321,1.125 -2.168,1.422 -0.864,0.301 -1.86,0.34 -3.008,0.121 -1.074,-0.199 -1.899,-0.68 -2.446,-1.449 -0.554,-0.766 -0.945,-1.719 -1.168,-2.863 -0.226,-1.145 -0.351,-2.414 -0.375,-3.813 -0.027,-1.394 -0.078,-2.82 -0.144,-4.269 -0.059,-1.457 -0.188,-2.899 -0.383,-4.321 -0.183,-1.426 -0.555,-2.746 -1.109,-3.953 -0.559,-1.207 -1.352,-2.234 -2.375,-3.09 -1.028,-0.855 -2.403,-1.445 -4.141,-1.765 -1.863,-0.352 -3.547,-0.235 -5.027,0.351 -1.488,0.586 -2.766,1.453 -3.852,2.606 -1.082,1.152 -1.961,2.504 -2.644,4.058 -0.672,1.551 -1.172,3.129 -1.477,4.735 -0.359,1.965 -0.469,3.867 -0.301,5.715 0.157,1.843 0.618,3.523 1.368,5.039 0.742,1.511 1.828,2.8 3.242,3.867 1.406,1.058 3.176,1.793 5.301,2.191 l 0.839,-4.422 c -1.472,-0.281 -2.691,-0.8 -3.648,-1.574 -0.957,-0.777 -1.691,-1.695 -2.207,-2.758 -0.512,-1.058 -0.813,-2.246 -0.91,-3.551 -0.086,-1.308 -0.02,-2.617 0.234,-3.925 0.195,-1.051 0.488,-2.09 0.891,-3.114 0.386,-1.027 0.906,-1.925 1.543,-2.687 0.633,-0.762 1.414,-1.328 2.332,-1.699 0.918,-0.371 2.011,-0.434 3.293,-0.196 1.211,0.231 2.136,0.735 2.761,1.512 0.633,0.777 1.094,1.75 1.368,2.902 0.273,1.153 0.429,2.43 0.476,3.829 0.039,1.394 0.09,2.824 0.141,4.273 0.047,1.449 0.152,2.887 0.308,4.305 0.161,1.422 0.469,2.73 0.942,3.918 0.469,1.191 1.179,2.207 2.129,3.047 0.933,0.839 2.215,1.406 3.816,1.707 1.777,0.332 3.367,0.261 4.805,-0.215 1.426,-0.477 2.676,-1.235 3.73,-2.274 1.067,-1.039 1.946,-2.285 2.637,-3.73 0.691,-1.445 1.191,-2.969 1.492,-4.574 0.344,-1.805 0.442,-3.516 0.305,-5.133 -0.137,-1.621 -0.559,-3.102 -1.25,-4.434 -0.703,-1.332 -1.692,-2.472 -2.949,-3.402 -1.27,-0.934 -2.864,-1.613 -4.786,-2.043 l -0.832,4.418 c 2.485,0.738 4.133,1.992 4.973,3.762" id="path51" style="fill:#231f20;fill-opacity:1;fill-rule:nonzero;stroke:none" transform="matrix(0.13333333,0,0,-0.13333333,0,130.30667)"></path>
      <path d="m 660.066,542.23 -35.398,-4.609 -0.613,4.707 35.398,4.617 0.613,-4.715" id="path52" style="fill:#231f20;fill-opacity:1;fill-rule:nonzero;stroke:none" transform="matrix(0.13333333,0,0,-0.13333333,0,130.30667)"></path>
      <path d="m 638.523,527.52 c -1.714,-0.582 -3.242,-1.422 -4.57,-2.508 -1.324,-1.094 -2.359,-2.449 -3.113,-4.071 -0.742,-1.621 -1.043,-3.507 -0.899,-5.671 0.149,-2.161 0.696,-3.997 1.653,-5.504 0.945,-1.504 2.156,-2.711 3.621,-3.614 1.465,-0.906 3.078,-1.531 4.851,-1.882 1.782,-0.348 3.567,-0.465 5.364,-0.344 1.797,0.117 3.554,0.469 5.273,1.051 1.707,0.586 3.235,1.421 4.563,2.507 1.336,1.094 2.371,2.45 3.113,4.071 0.742,1.621 1.047,3.508 0.898,5.672 -0.144,2.164 -0.691,3.996 -1.64,5.503 -0.957,1.504 -2.157,2.711 -3.621,3.618 -1.465,0.902 -3.086,1.527 -4.868,1.879 -1.777,0.347 -3.562,0.464 -5.359,0.343 -1.797,-0.117 -3.555,-0.468 -5.266,-1.05 z m 12.036,5.183 c 2.293,-0.562 4.343,-1.5 6.171,-2.82 1.825,-1.313 3.329,-3.004 4.5,-5.059 1.172,-2.058 1.856,-4.508 2.04,-7.332 0.187,-2.828 -0.165,-5.34 -1.051,-7.535 -0.891,-2.199 -2.153,-4.066 -3.781,-5.617 -1.641,-1.543 -3.555,-2.746 -5.75,-3.613 -2.2,-0.864 -4.512,-1.379 -6.934,-1.543 -2.434,-0.161 -4.797,0.039 -7.082,0.605 -2.293,0.566 -4.356,1.512 -6.184,2.824 -1.824,1.313 -3.308,3.004 -4.468,5.063 -1.157,2.062 -1.829,4.508 -2.012,7.336 -0.195,2.824 0.144,5.336 1.023,7.531 0.867,2.199 2.117,4.07 3.762,5.613 1.629,1.547 3.543,2.746 5.738,3.617 2.199,0.864 4.516,1.375 6.946,1.54 2.421,0.16 4.785,-0.04 7.082,-0.61" id="path53" style="fill:#231f20;fill-opacity:1;fill-rule:nonzero;stroke:none" transform="matrix(0.13333333,0,0,-0.13333333,0,130.30667)"></path>
      <path d="m 663.496,487.25 -29.355,-18.145 -0.008,-0.101 28.941,-0.645 -0.094,-4.5 -35.695,0.801 0.117,5.195 29.063,18.008 v 0.098 l -28.645,0.637 0.102,4.504 35.691,-0.801 -0.117,-5.051" id="path54" style="fill:#231f20;fill-opacity:1;fill-rule:nonzero;stroke:none" transform="matrix(0.13333333,0,0,-0.13333333,0,130.30667)"></path>
      <path d="m 639.473,437.715 17.187,4.152 0.012,0.098 -15.91,7.781 z m 21.179,1.055 -36.98,-10.079 0.558,5.227 11.102,2.734 1.609,15.02 -10.261,5.113 0.508,4.817 34.023,-17.606 -0.559,-5.226" id="path55" style="fill:#231f20;fill-opacity:1;fill-rule:nonzero;stroke:none" transform="matrix(0.13333333,0,0,-0.13333333,0,130.30667)"></path>
      <path d="m 657.234,414.602 -31.171,5.742 -3.426,-18.598 -3.926,0.727 4.277,23.261 35.11,-6.457 -0.864,-4.675" id="path56" style="fill:#231f20;fill-opacity:1;fill-rule:nonzero;stroke:none" transform="matrix(0.13333333,0,0,-0.13333333,0,130.30667)"></path>
      <path d="m 643.047,373.633 c 1.523,1.23 2.598,3.047 3.23,5.43 0.254,0.968 0.411,1.945 0.469,2.929 0.063,0.988 -0.047,1.895 -0.301,2.746 -0.261,0.84 -0.715,1.582 -1.347,2.215 -0.645,0.637 -1.535,1.106 -2.657,1.406 -1.062,0.286 -2.011,0.196 -2.832,-0.254 -0.832,-0.449 -1.589,-1.152 -2.296,-2.078 -0.692,-0.937 -1.356,-2.031 -1.981,-3.281 -0.625,-1.25 -1.277,-2.512 -1.965,-3.801 -0.679,-1.277 -1.426,-2.519 -2.207,-3.73 -0.789,-1.199 -1.687,-2.227 -2.715,-3.074 -1.011,-0.852 -2.175,-1.446 -3.465,-1.77 -1.296,-0.332 -2.792,-0.273 -4.5,0.188 -1.835,0.488 -3.3,1.316 -4.386,2.476 -1.082,1.176 -1.864,2.512 -2.344,4.016 -0.48,1.515 -0.691,3.105 -0.645,4.804 0.059,1.692 0.293,3.333 0.711,4.903 0.52,1.933 1.243,3.703 2.192,5.293 0.933,1.601 2.066,2.922 3.394,3.957 1.328,1.043 2.864,1.746 4.602,2.09 1.726,0.351 3.641,0.254 5.73,-0.305 l -1.148,-4.355 c -1.457,0.39 -2.773,0.441 -3.977,0.156 -1.191,-0.281 -2.254,-0.801 -3.171,-1.531 -0.918,-0.743 -1.711,-1.68 -2.356,-2.825 -0.644,-1.133 -1.144,-2.351 -1.484,-3.633 -0.274,-1.035 -0.457,-2.097 -0.535,-3.203 -0.09,-1.093 -0.012,-2.117 0.234,-3.086 0.242,-0.957 0.699,-1.804 1.363,-2.539 0.676,-0.722 1.633,-1.257 2.895,-1.589 1.187,-0.325 2.246,-0.266 3.152,0.164 0.906,0.441 1.731,1.113 2.481,2.031 0.742,0.93 1.433,2.012 2.082,3.254 0.632,1.25 1.289,2.508 1.96,3.797 0.672,1.289 1.375,2.539 2.137,3.75 0.754,1.211 1.606,2.257 2.539,3.125 0.942,0.879 2.016,1.484 3.227,1.836 1.219,0.351 2.613,0.312 4.187,-0.11 1.739,-0.457 3.157,-1.207 4.239,-2.262 1.086,-1.046 1.882,-2.265 2.39,-3.664 0.512,-1.386 0.766,-2.89 0.766,-4.492 0.008,-1.609 -0.195,-3.203 -0.617,-4.773 -0.481,-1.778 -1.121,-3.36 -1.946,-4.766 -0.816,-1.406 -1.836,-2.558 -3.035,-3.457 -1.211,-0.91 -2.59,-1.504 -4.133,-1.808 -1.543,-0.293 -3.269,-0.215 -5.191,0.222 l 1.16,4.348 c 2.551,-0.399 4.578,0.019 6.094,1.25" id="path57" style="fill:#231f20;fill-opacity:1;fill-rule:nonzero;stroke:none" transform="matrix(0.13333333,0,0,-0.13333333,0,130.30667)"></path>
      <path d="m 192.359,247.16 9.082,14.668 -0.058,0.078 -16.395,-5.519 z m 13.981,15.262 -18.758,-32.371 -3.191,4.004 5.828,9.519 -9.196,11.524 -10.636,-3.496 -2.949,3.703 35.703,11.133 3.199,-4.016" id="path58" style="fill:#231f20;fill-opacity:1;fill-rule:nonzero;stroke:none" transform="matrix(0.13333333,0,0,-0.13333333,0,130.30667)"></path>
      <path d="m 225.984,233.938 c -0.296,1.882 -1.296,3.679 -2.996,5.39 -0.691,0.684 -1.441,1.297 -2.242,1.824 -0.805,0.528 -1.629,0.899 -2.469,1.094 -0.839,0.195 -1.683,0.176 -2.535,-0.047 -0.855,-0.234 -1.679,-0.754 -2.484,-1.554 -0.762,-0.762 -1.153,-1.602 -1.18,-2.52 -0.023,-0.918 0.188,-1.902 0.637,-2.949 0.449,-1.055 1.047,-2.149 1.793,-3.281 0.746,-1.141 1.492,-2.317 2.238,-3.524 0.75,-1.211 1.438,-2.441 2.07,-3.691 0.633,-1.262 1.055,-2.52 1.278,-3.801 0.215,-1.277 0.144,-2.551 -0.211,-3.801 -0.356,-1.25 -1.149,-2.488 -2.367,-3.707 -1.309,-1.308 -2.727,-2.141 -4.246,-2.48 -1.524,-0.344 -3.032,-0.356 -4.54,-0.012 -1.507,0.332 -2.964,0.937 -4.367,1.816 -1.398,0.871 -2.664,1.875 -3.793,3 -1.382,1.383 -2.511,2.86 -3.398,4.442 -0.883,1.574 -1.442,3.183 -1.668,4.816 -0.231,1.629 -0.07,3.262 0.488,4.902 0.551,1.629 1.574,3.192 3.074,4.688 l 3.102,-3.105 c -1.035,-1.036 -1.73,-2.129 -2.07,-3.282 -0.348,-1.152 -0.434,-2.297 -0.262,-3.429 0.168,-1.141 0.578,-2.266 1.223,-3.368 0.64,-1.105 1.425,-2.121 2.343,-3.039 0.739,-0.742 1.547,-1.414 2.434,-2.019 0.883,-0.617 1.793,-1.055 2.723,-1.321 0.933,-0.261 1.871,-0.292 2.812,-0.085 0.942,0.203 1.867,0.761 2.766,1.66 0.847,0.847 1.316,1.758 1.398,2.742 0.078,0.976 -0.086,2.004 -0.496,3.086 -0.414,1.086 -0.992,2.195 -1.723,3.351 -0.738,1.153 -1.484,2.325 -2.242,3.524 -0.761,1.191 -1.465,2.402 -2.125,3.644 -0.652,1.231 -1.117,2.45 -1.39,3.672 -0.278,1.219 -0.262,2.43 0.035,3.621 0.301,1.203 1.015,2.364 2.14,3.489 1.246,1.238 2.575,2.058 3.993,2.461 1.414,0.41 2.836,0.476 4.261,0.222 1.426,-0.254 2.817,-0.769 4.176,-1.551 1.356,-0.781 2.598,-1.738 3.727,-2.871 1.261,-1.261 2.285,-2.59 3.062,-3.976 0.781,-1.375 1.262,-2.793 1.434,-4.258 0.172,-1.465 0.004,-2.918 -0.504,-4.363 -0.508,-1.457 -1.414,-2.883 -2.731,-4.278 l -3.105,3.106 c 1.594,1.953 2.238,3.875 1.937,5.762" id="path59" style="fill:#231f20;fill-opacity:1;fill-rule:nonzero;stroke:none" transform="matrix(0.13333333,0,0,-0.13333333,0,130.30667)"></path>
      <path d="m 250.309,213.223 c -0.528,1.836 -1.735,3.496 -3.629,4.98 -0.774,0.606 -1.586,1.125 -2.45,1.543 -0.867,0.43 -1.726,0.695 -2.582,0.789 -0.859,0.09 -1.691,-0.027 -2.511,-0.359 -0.817,-0.332 -1.578,-0.946 -2.282,-1.848 -0.66,-0.836 -0.949,-1.715 -0.859,-2.633 0.09,-0.918 0.414,-1.867 0.992,-2.851 0.567,-0.989 1.293,-2.004 2.172,-3.039 0.879,-1.043 1.762,-2.117 2.653,-3.231 0.886,-1.105 1.722,-2.246 2.5,-3.41 0.781,-1.172 1.355,-2.383 1.726,-3.621 0.367,-1.242 0.453,-2.5 0.25,-3.789 -0.199,-1.289 -0.836,-2.609 -1.898,-3.969 -1.145,-1.461 -2.45,-2.457 -3.918,-2.976 -1.465,-0.528 -2.961,-0.711 -4.5,-0.567 -1.539,0.149 -3.051,0.578 -4.551,1.27 -1.5,0.703 -2.875,1.543 -4.133,2.531 -1.535,1.199 -2.84,2.527 -3.91,3.984 -1.07,1.465 -1.816,2.989 -2.242,4.578 -0.422,1.594 -0.461,3.243 -0.114,4.922 0.356,1.692 1.184,3.371 2.489,5.032 l 3.457,-2.707 c -0.906,-1.153 -1.457,-2.325 -1.66,-3.504 -0.207,-1.184 -0.153,-2.325 0.156,-3.438 0.305,-1.113 0.848,-2.18 1.621,-3.195 0.769,-1.016 1.676,-1.934 2.695,-2.735 0.821,-0.644 1.707,-1.21 2.66,-1.707 0.954,-0.5 1.907,-0.82 2.868,-0.976 0.953,-0.149 1.886,-0.07 2.8,0.254 0.911,0.32 1.758,0.976 2.539,1.98 0.743,0.949 1.094,1.907 1.063,2.891 -0.039,0.976 -0.332,1.984 -0.871,3.008 -0.543,1.015 -1.25,2.062 -2.117,3.117 -0.871,1.055 -1.754,2.129 -2.653,3.223 -0.898,1.093 -1.75,2.214 -2.547,3.359 -0.796,1.141 -1.41,2.305 -1.828,3.476 -0.422,1.18 -0.558,2.383 -0.402,3.602 0.152,1.223 0.719,2.461 1.703,3.723 1.086,1.375 2.301,2.351 3.66,2.929 1.356,0.567 2.758,0.809 4.203,0.731 1.45,-0.078 2.891,-0.418 4.336,-1.035 1.442,-0.614 2.789,-1.414 4.043,-2.395 1.41,-1.101 2.582,-2.293 3.532,-3.57 0.941,-1.281 1.585,-2.629 1.933,-4.063 0.348,-1.425 0.356,-2.89 0.027,-4.394 -0.328,-1.496 -1.058,-3.02 -2.191,-4.57 l -3.457,2.703 c 1.34,2.14 1.746,4.121 1.227,5.957" id="path60" style="fill:#231f20;fill-opacity:1;fill-rule:nonzero;stroke:none" transform="matrix(0.13333333,0,0,-0.13333333,0,130.30667)"></path>
      <path d="m 256.137,187.258 c -0.453,-1.711 -0.594,-3.399 -0.43,-5.07 0.168,-1.668 0.707,-3.243 1.621,-4.727 0.918,-1.484 2.289,-2.742 4.125,-3.801 1.836,-1.051 3.625,-1.59 5.363,-1.637 1.743,-0.039 3.375,0.293 4.903,0.997 1.523,0.703 2.91,1.679 4.156,2.929 1.242,1.258 2.305,2.645 3.172,4.18 0.875,1.523 1.539,3.133 1.992,4.844 0.453,1.707 0.602,3.398 0.43,5.066 -0.164,1.672 -0.707,3.254 -1.621,4.727 -0.918,1.484 -2.289,2.754 -4.125,3.8 -1.836,1.055 -3.621,1.602 -5.364,1.637 -1.742,0.043 -3.371,-0.293 -4.898,-0.992 -1.523,-0.695 -2.91,-1.672 -4.156,-2.93 -1.246,-1.261 -2.305,-2.648 -3.176,-4.172 -0.871,-1.523 -1.535,-3.144 -1.992,-4.851 z m 2.285,12.586 c 1.699,1.554 3.574,2.726 5.633,3.496 2.054,0.773 4.234,1.074 6.547,0.918 2.308,-0.156 4.664,-0.93 7.058,-2.305 2.403,-1.375 4.254,-3.015 5.563,-4.922 1.304,-1.914 2.144,-3.953 2.515,-6.113 0.375,-2.168 0.317,-4.375 -0.168,-6.633 -0.48,-2.254 -1.316,-4.402 -2.496,-6.472 -1.179,-2.059 -2.621,-3.868 -4.32,-5.418 -1.699,-1.567 -3.578,-2.727 -5.629,-3.497 -2.055,-0.781 -4.234,-1.074 -6.531,-0.898 -2.309,0.164 -4.656,0.945 -7.055,2.313 -2.398,1.378 -4.258,3.015 -5.57,4.914 -1.313,1.894 -2.156,3.925 -2.528,6.093 -0.378,2.157 -0.32,4.364 0.164,6.621 0.485,2.254 1.321,4.414 2.5,6.473 1.176,2.063 2.618,3.867 4.317,5.43" id="path61" style="fill:#231f20;fill-opacity:1;fill-rule:nonzero;stroke:none" transform="matrix(0.13333333,0,0,-0.13333333,0,130.30667)"></path>
      <path d="m 314.566,178.953 c -1.23,1.781 -2.988,3.09 -5.281,3.938 -1.945,0.734 -3.754,0.988 -5.414,0.769 -1.66,-0.211 -3.168,-0.777 -4.531,-1.676 -1.356,-0.898 -2.543,-2.062 -3.563,-3.488 -1.015,-1.426 -1.839,-2.996 -2.476,-4.707 -0.696,-1.855 -1.137,-3.699 -1.328,-5.516 -0.192,-1.828 -0.063,-3.515 0.375,-5.089 0.441,-1.571 1.226,-2.981 2.355,-4.239 1.133,-1.25 2.668,-2.246 4.621,-2.968 1.438,-0.536 2.793,-0.774 4.09,-0.711 1.281,0.058 2.488,0.359 3.613,0.894 1.118,0.539 2.121,1.301 3.012,2.289 0.891,0.996 1.625,2.137 2.219,3.446 l 4.344,-1.622 c -1.957,-3.953 -4.567,-6.628 -7.829,-8.015 -3.261,-1.399 -6.98,-1.309 -11.156,0.242 -2.535,0.938 -4.582,2.199 -6.148,3.77 -1.567,1.574 -2.696,3.359 -3.379,5.343 -0.684,1.992 -0.949,4.141 -0.805,6.446 0.149,2.312 0.664,4.644 1.547,7.031 0.891,2.383 2.051,4.488 3.504,6.328 1.449,1.836 3.109,3.289 4.984,4.363 1.875,1.074 3.946,1.699 6.219,1.887 2.274,0.176 4.652,-0.195 7.16,-1.133 1.703,-0.637 3.239,-1.465 4.594,-2.492 1.352,-1.023 2.461,-2.195 3.32,-3.523 0.86,-1.329 1.442,-2.805 1.739,-4.426 0.296,-1.621 0.25,-3.348 -0.157,-5.176 l -4.343,1.621 c 0.375,2.5 -0.055,4.641 -1.286,6.414" id="path62" style="fill:#231f20;fill-opacity:1;fill-rule:nonzero;stroke:none" transform="matrix(0.13333333,0,0,-0.13333333,0,130.30667)"></path>
      <path d="m 334.172,178.613 -8.352,-33.836 -4.504,1.114 8.352,33.836 4.504,-1.114" id="path63" style="fill:#231f20;fill-opacity:1;fill-rule:nonzero;stroke:none" transform="matrix(0.13333333,0,0,-0.13333333,0,130.30667)"></path>
      <path d="m 356.57,154.023 -3.609,16.887 -0.094,0.008 -8.004,-15.332 z m -0.492,20.704 8.899,-36.348 -5.079,0.676 -2.386,10.906 -14.617,1.945 -5.254,-9.883 -4.692,0.625 18.051,32.754 5.078,-0.675" id="path64" style="fill:#231f20;fill-opacity:1;fill-rule:nonzero;stroke:none" transform="matrix(0.13333333,0,0,-0.13333333,0,130.30667)"></path>
      <path d="m 365.406,169.707 0.078,3.906 27.868,-0.578 -0.082,-3.902 -11.614,0.242 -0.64,-30.945 -4.633,0.097 0.633,30.938 -11.61,0.242" id="path65" style="fill:#231f20;fill-opacity:1;fill-rule:nonzero;stroke:none" transform="matrix(0.13333333,0,0,-0.13333333,0,130.30667)"></path>
      <path d="m 402.313,174.563 3.5,-34.668 -4.614,-0.469 -3.496,34.676 4.61,0.461" id="path66" style="fill:#231f20;fill-opacity:1;fill-rule:nonzero;stroke:none" transform="matrix(0.13333333,0,0,-0.13333333,0,130.30667)"></path>
      <path d="m 418.215,153.723 c 0.816,-1.575 1.863,-2.91 3.113,-4.024 1.262,-1.113 2.727,-1.914 4.395,-2.383 1.679,-0.468 3.547,-0.468 5.605,0 2.063,0.469 3.75,1.278 5.059,2.422 1.308,1.153 2.285,2.5 2.929,4.051 0.657,1.543 1.004,3.203 1.075,4.973 0.07,1.765 -0.098,3.504 -0.481,5.215 -0.39,1.718 -0.992,3.359 -1.824,4.921 -0.82,1.563 -1.856,2.911 -3.113,4.024 -1.25,1.113 -2.715,1.902 -4.399,2.383 -1.668,0.468 -3.543,0.468 -5.601,0 -2.063,-0.469 -3.75,-1.282 -5.063,-2.434 -1.305,-1.141 -2.281,-2.488 -2.93,-4.043 -0.652,-1.543 -1.003,-3.203 -1.074,-4.969 -0.066,-1.769 0.102,-3.507 0.489,-5.226 0.39,-1.707 1,-3.348 1.82,-4.91 z m -6.836,10.808 c 0.191,2.297 0.789,4.422 1.773,6.387 0.989,1.953 2.383,3.66 4.203,5.109 1.805,1.446 4.051,2.469 6.747,3.086 2.707,0.606 5.175,0.653 7.429,0.137 2.258,-0.527 4.25,-1.457 5.989,-2.797 1.738,-1.344 3.195,-3.004 4.367,-4.988 1.172,-1.992 2.019,-4.141 2.547,-6.453 0.515,-2.324 0.683,-4.629 0.488,-6.926 -0.195,-2.293 -0.781,-4.426 -1.777,-6.387 -0.989,-1.961 -2.383,-3.652 -4.2,-5.078 -1.804,-1.433 -4.062,-2.449 -6.757,-3.066 -2.696,-0.614 -5.176,-0.664 -7.422,-0.157 -2.254,0.5 -4.246,1.426 -5.989,2.762 -1.734,1.34 -3.191,3.012 -4.363,4.992 -1.172,1.993 -2.012,4.141 -2.539,6.457 -0.527,2.313 -0.691,4.618 -0.496,6.922" id="path67" style="fill:#231f20;fill-opacity:1;fill-rule:nonzero;stroke:none" transform="matrix(0.13333333,0,0,-0.13333333,0,130.30667)"></path>
      <path d="m 450.039,185.773 27.844,-18.996 0.086,0.039 -10.906,26.075 4.05,1.699 13.457,-32.156 -4.687,-1.954 -27.586,18.77 -0.102,-0.039 10.801,-25.801 -4.051,-1.691 -13.457,32.148 4.551,1.906" id="path68" style="fill:#231f20;fill-opacity:1;fill-rule:nonzero;stroke:none" transform="matrix(0.13333333,0,0,-0.13333333,0,130.30667)"></path>
      <path d="m 496.445,175.234 2.395,-4.304 c 0.894,-1.621 1.297,-3.227 1.211,-4.805 -0.102,-1.574 -0.84,-3.066 -2.219,-4.465 l -1.184,2.141 c 0.395,0.437 0.657,0.906 0.801,1.414 0.149,0.508 0.219,1.015 0.196,1.504 -0.008,0.5 -0.086,0.969 -0.243,1.406 -0.144,0.441 -0.332,0.82 -0.547,1.145 l -2.519,-1.399 -2.625,4.738 4.734,2.625" id="path69" style="fill:#231f20;fill-opacity:1;fill-rule:nonzero;stroke:none" transform="matrix(0.13333333,0,0,-0.13333333,0,130.30667)"></path>
      <path d="m 503.066,214.426 20.11,-28.469 -3.789,-2.676 -20.11,28.469 3.789,2.676" id="path70" style="fill:#231f20;fill-opacity:1;fill-rule:nonzero;stroke:none" transform="matrix(0.13333333,0,0,-0.13333333,0,130.30667)"></path>
      <path d="m 512.949,221.738 32.332,-9.461 0.078,0.059 -18.425,21.434 3.332,2.863 22.722,-26.43 -3.855,-3.308 -32.031,9.347 -0.082,-0.07 18.234,-21.211 -3.328,-2.859 -22.715,26.425 3.738,3.211" id="path71" style="fill:#231f20;fill-opacity:1;fill-rule:nonzero;stroke:none" transform="matrix(0.13333333,0,0,-0.13333333,0,130.30667)"></path>
      <path d="m 553.32,254.336 c -2.109,-0.508 -3.972,-1.66 -5.593,-3.477 -1.387,-1.562 -2.289,-3.144 -2.688,-4.765 -0.41,-1.629 -0.437,-3.242 -0.098,-4.832 0.34,-1.594 0.997,-3.125 1.954,-4.59 0.957,-1.469 2.121,-2.813 3.476,-4.024 1.477,-1.32 3.027,-2.402 4.656,-3.242 1.621,-0.851 3.243,-1.347 4.875,-1.515 1.621,-0.164 3.223,0.058 4.793,0.656 1.582,0.594 3.071,1.668 4.453,3.223 1.028,1.132 1.743,2.312 2.161,3.535 0.41,1.218 0.578,2.449 0.476,3.691 -0.086,1.238 -0.43,2.457 -1.031,3.641 -0.598,1.191 -1.391,2.297 -2.395,3.32 l 3.086,3.457 c 2.981,-3.262 4.512,-6.668 4.618,-10.215 0.109,-3.535 -1.329,-6.972 -4.293,-10.293 -1.797,-2.019 -3.723,-3.465 -5.754,-4.355 -2.039,-0.891 -4.102,-1.278 -6.211,-1.192 -2.102,0.09 -4.2,0.625 -6.289,1.602 -2.098,0.977 -4.09,2.316 -5.989,4.004 -1.882,1.691 -3.425,3.547 -4.605,5.566 -1.192,2.012 -1.945,4.094 -2.258,6.231 -0.312,2.14 -0.137,4.297 0.52,6.476 0.664,2.176 1.882,4.266 3.66,6.258 1.211,1.359 2.551,2.481 3.996,3.371 1.441,0.887 2.945,1.485 4.488,1.805 1.555,0.312 3.137,0.324 4.758,0.012 1.621,-0.313 3.203,-0.996 4.766,-2.032 l -3.094,-3.457 c -2.192,1.25 -4.336,1.629 -6.438,1.141" id="path72" style="fill:#231f20;fill-opacity:1;fill-rule:nonzero;stroke:none" transform="matrix(0.13333333,0,0,-0.13333333,0,130.30667)"></path>
      <path d="m 584.934,254.902 4.324,-3.269 -3.274,-4.317 -4.312,3.27 3.262,4.316" id="path73" style="fill:#231f20;fill-opacity:1;fill-rule:nonzero;stroke:none" transform="matrix(0.13333333,0,0,-0.13333333,0,130.30667)"></path>
    </g>
  </g>
  <HeaderAndFooter HeaderFirstPage="No" FooterVisible="No" FooterFirstPage="Yes" StartingPage="1" HeaderVisible="Yes">
    <Header>
      <Paragraph Alignment="Right" Leading="Regular" FirstIndent="0.00" StartsNewPage="No" RightIndent="-1.25" LeftIndent="1.25" SpaceBefore="0" Spacing="1">
        <Text AdornmentStyle="0" Size="12" Color="#000000000000" Style="" TagNumber="0" Font="Courier Final Draft" RevisionID="0" Background="#FFFFFFFFFFFF"> </Text>
      </Paragraph>
    </Header>
    <Footer>
      <Paragraph Alignment="Right" Leading="Regular" FirstIndent="0.00" StartsNewPage="No" RightIndent="-1.25" LeftIndent="1.25" SpaceBefore="0" Spacing="1">
        <Text AdornmentStyle="0" Size="12" Color="#000000000000" Style="" TagNumber="0" Font="Courier Final Draft" RevisionID="0" Background="#FFFFFFFFFFFF"> </Text>
      </Paragraph>
    </Footer>
  </HeaderAndFooter>
  <Revisions ActiveSet="1" ShowPageColor="No" RevisionsShown="Active" ShowAllMarks="Yes" Location="7.75" ShowAllSets="Yes" RevisionMode="No">
    <Revision PageColor="#DD6B08C206A2" Mark="*" Color="#DD6B08C206A2" Style="" Name="First Revision" ID="1" FullRevision="No"></Revision>
    <Revision PageColor="#00000000D400" Mark="*" Color="#00000000D400" Style="" Name="Second Revision" ID="2" FullRevision="No"></Revision>
    <Revision PageColor="#000064AF11B0" Mark="*" Color="#000064AF11B0" Style="" Name="Third Revision" ID="3" FullRevision="No"></Revision>
    <Revision PageColor="#FC00F370052F" Mark="*" Color="#FC00F370052F" Style="" Name="Fourth Revision" ID="4" FullRevision="No"></Revision>
  </Revisions>
  <SceneNumberOptions ShowNumbersOnRight="YES" ShowNumbersOnLeft="YES" RightLocation="7.38" LeftLocation="0.75">
    <FontSpec AdornmentStyle="0" Size="12" Color="#000000000000" Style="" Font="Courier Final Draft" RevisionID="0" Background="#FFFFFFFFFFFF"></FontSpec>
  </SceneNumberOptions>
  <SmartType>
    <Characters></Characters>
    <Extensions></Extensions>
    <SceneIntros></SceneIntros>
    <Locations></Locations>
    <TimesOfDay></TimesOfDay>
    <Transitions></Transitions>
  </SmartType>
  <SpellCheckIgnoreLists>
    <IgnoredWords></IgnoredWords>
    <IgnoredRanges></IgnoredRanges>
  </SpellCheckIgnoreLists>
  <TextState Scaling="0" ShowInvisibles="No" Selection="0,0"></TextState>
  <CastList SortOption="Alphabetical">
    <CustomOrder></CustomOrder>
  </CastList>
  <TitlePage>
    <Content>
      <Paragraph Alignment="Left" Leading="Regular" FirstIndent="0.00" StartsNewPage="No" RightIndent="7.50" LeftIndent="1.00" SpaceBefore="0" Spacing="1">
        <Text></Text>
      </Paragraph>
    </Content>
    <HeaderAndFooter>
      <Header></Header>
      <Footer></Footer>
    </HeaderAndFooter>
  </TitlePage>
  <PageLayout BottomMargin="72" TopMargin="72" ForegroundColor="#000000000000" HeaderMargin="36" UsesSmartQuotes="Yes" FooterMargin="36" InvisiblesColor="#808080808080" DocumentLeading="Regular" BackgroundColor="#FFFFFFFFFFFF" BreakDialogueAndActionAtSentences="Yes">
    <PageSize Height="11.000000" Width="8.500000"></PageSize>
  </PageLayout>
  <ElementSettings Type="Action">
    <FontSpec AdornmentStyle="0" Size="12" Color="#000000000000" Style="" TagNumber="0" Font="Courier Final Draft" RevisionID="0" Background="#FFFFFFFFFFFF"></FontSpec>
    <ParagraphSpec StartsNewPage="No" Spacing="1" Alignment="Left" FirstIndent="0.00" RightIndent="7.50" LeftIndent="1.50" SpaceBefore="12" Leading="Regular"></ParagraphSpec>
    <Behavior ReturnKey="Action" PaginateAs="Action" Shortcut="4339621192"></Behavior>
  </ElementSettings>
  <ElementSettings Type="Cast List">
    <FontSpec AdornmentStyle="0" Size="12" Color="#000000000000" Style="AllCaps" TagNumber="0" Font="Courier Final Draft" RevisionID="0" Background="#FFFFFFFFFFFF"></FontSpec>
    <ParagraphSpec StartsNewPage="No" Spacing="1" Alignment="Left" FirstIndent="0.00" RightIndent="7.50" LeftIndent="1.50" SpaceBefore="0" Leading="Regular"></ParagraphSpec>
    <Behavior ReturnKey="Action" PaginateAs="Action" Shortcut="4339624488"></Behavior>
  </ElementSettings>
  <ElementSettings Type="Character">
    <FontSpec AdornmentStyle="0" Size="12" Color="#000000000000" Style="AllCaps" TagNumber="0" Font="Courier Final Draft" RevisionID="0" Background="#FFFFFFFFFFFF"></FontSpec>
    <ParagraphSpec StartsNewPage="No" Spacing="1" Alignment="Left" FirstIndent="0.00" RightIndent="7.25" LeftIndent="3.50" SpaceBefore="12" Leading="Regular"></ParagraphSpec>
    <Behavior ReturnKey="Dialogue" PaginateAs="Character" Shortcut="4339616520"></Behavior>
  </ElementSettings>
  <ElementSettings Type="Dialogue">
    <FontSpec AdornmentStyle="0" Size="12" Color="#000000000000" Style="" TagNumber="0" Font="Courier Final Draft" RevisionID="0" Background="#FFFFFFFFFFFF"></FontSpec>
    <ParagraphSpec StartsNewPage="No" Spacing="1" Alignment="Left" FirstIndent="0.00" RightIndent="6.00" LeftIndent="2.50" SpaceBefore="0" Leading="Regular"></ParagraphSpec>
    <Behavior ReturnKey="Action" PaginateAs="Dialogue" Shortcut="4339624392"></Behavior>
  </ElementSettings>
  <ElementSettings Type="General">
    <FontSpec AdornmentStyle="0" Size="12" Color="#000000000000" Style="" TagNumber="0" Font="Courier Final Draft" RevisionID="0" Background="#FFFFFFFFFFFF"></FontSpec>
    <ParagraphSpec StartsNewPage="No" Spacing="1" Alignment="Left" FirstIndent="0.00" RightIndent="7.50" LeftIndent="1.50" SpaceBefore="0" Leading="Regular"></ParagraphSpec>
    <Behavior ReturnKey="General" PaginateAs="General" Shortcut="4339617672"></Behavior>
  </ElementSettings>
  <ElementSettings Type="Parenthetical">
    <FontSpec AdornmentStyle="0" Size="12" Color="#000000000000" Style="" TagNumber="0" Font="Courier Final Draft" RevisionID="0" Background="#FFFFFFFFFFFF"></FontSpec>
    <ParagraphSpec StartsNewPage="No" Spacing="1" Alignment="Left" FirstIndent="0.00" RightIndent="5.50" LeftIndent="3.00" SpaceBefore="0" Leading="Regular"></ParagraphSpec>
    <Behavior ReturnKey="Dialogue" PaginateAs="Parenthetical" Shortcut="4339624360"></Behavior>
  </ElementSettings>
  <ElementSettings Type="Scene Heading">
    <FontSpec AdornmentStyle="0" Size="12" Color="#000000000000" Style="AllCaps" TagNumber="0" Font="Courier Final Draft" RevisionID="0" Background="#FFFFFFFFFFFF"></FontSpec>
    <ParagraphSpec StartsNewPage="No" Spacing="1" Alignment="Left" FirstIndent="0.00" RightIndent="7.50" LeftIndent="1.50" SpaceBefore="12" Leading="Regular"></ParagraphSpec>
    <Behavior ReturnKey="Action" PaginateAs="Scene Heading" Shortcut="4339617736"></Behavior>
  </ElementSettings>
  <ElementSettings Type="Shot">
    <FontSpec AdornmentStyle="0" Size="12" Color="#000000000000" Style="AllCaps" TagNumber="0" Font="Courier Final Draft" RevisionID="0" Background="#FFFFFFFFFFFF"></FontSpec>
    <ParagraphSpec StartsNewPage="No" Spacing="1" Alignment="Left" FirstIndent="0.00" RightIndent="7.50" LeftIndent="1.50" SpaceBefore="24" Leading="Regular"></ParagraphSpec>
    <Behavior ReturnKey="Action" PaginateAs="Scene Heading" Shortcut="4339624456"></Behavior>
  </ElementSettings>
  <ElementSettings Type="Transition">
    <FontSpec AdornmentStyle="0" Size="12" Color="#000000000000" Style="AllCaps" TagNumber="0" Font="Courier Final Draft" RevisionID="0" Background="#FFFFFFFFFFFF"></FontSpec>
    <ParagraphSpec StartsNewPage="No" Spacing="1" Alignment="Left" FirstIndent="0.00" RightIndent="7.12" LeftIndent="5.50" SpaceBefore="12" Leading="Regular"></ParagraphSpec>
    <Behavior ReturnKey="Scene Heading" PaginateAs="Transition" Shortcut="4339624424"></Behavior>
  </ElementSettings>
  <MoresAndContinueds>
    <FontSpec AdornmentStyle="0" Size="12" Color="#000000000000" Style="" Font="Courier Final Draft" RevisionID="0" Background="#FFFFFFFFFFFF"></FontSpec>
    <DialogueBreaks AutomaticCharacterContinueds="Yes" TopOfNext="Yes" BottomOfPage="Yes" DialogueBottom="(MORE)" DialogueTop="(CONT'D)"></DialogueBreaks>
    <SceneBreaks SceneBottomOfPage="No" SceneTop="CONTINUED:" ContinuedNumber="No" SceneBottom="(CONTINUED)" SceneTopOfNext="No"></SceneBreaks>
  </MoresAndContinueds>
  <LockedPages></LockedPages>
  <CharacterHighlighting></CharacterHighlighting>
  <DeletedText></DeletedText>
  <ScriptNotes></ScriptNotes>
  <ListItems></ListItems>
</svg>
