<svg width="238" height="73" viewBox="0 0 238 73" fill="none" xmlns="http://www.w3.org/2000/svg">
<g clip-path="url(#clip0_82_968)">
<path d="M66.6845 72.4942L66.805 72.7764L66.6053 72.8555H66.4435L66.2817 72.7764L66.1234 72.6559L65.9616 72.4942L65.8411 72.2534L66.0442 72.133L66.1612 72.2121L66.3609 72.2534L66.5227 72.3738L66.6845 72.4942Z" fill="#8A2529"/>
<path d="M63.9167 68.9265L64.075 69.3256L63.7962 69.5286L63.5139 69.4873L63.2351 69.3256L62.9528 69.1673L62.7153 68.9265L62.5535 68.4861L62.7944 68.3244L63.0733 68.3657L63.3969 68.4861L63.6757 68.6857L63.9167 68.9265Z" fill="#8A2529"/>
<path d="M61.1111 65.3174L61.3521 65.9195L60.9906 66.1603L60.6291 66.0812L60.1885 65.9195L59.7857 65.6787L59.4656 65.3174L59.2246 64.7188L59.5861 64.5192L59.9475 64.5571L60.3882 64.7188L60.7909 64.9975L61.1111 65.3174Z" fill="#8A2529"/>
<path d="M58.3433 61.7531L58.5843 62.1556L58.6635 62.4756L58.543 62.7577L58.1815 62.8334L57.703 62.7577L57.1419 62.4756L56.6599 62.1556L56.2193 61.7531L55.9783 61.3127L55.937 60.9928L56.0575 60.7519L56.419 60.6728L56.8596 60.7519L57.4207 60.9928L57.9027 61.3127L58.3433 61.7531Z" fill="#8A2529"/>
<path d="M55.5756 58.1475L55.937 58.6704L55.9783 59.0282L55.8166 59.3069L55.3759 59.4308L54.8148 59.3069L54.1332 59.0282L53.4894 58.6704L52.9696 58.1475L52.6495 57.6245L52.6082 57.2254L52.7699 56.9433L53.2106 56.8229L53.7717 56.9433L54.4533 57.2254L55.0558 57.6245L55.5756 58.1475Z" fill="#8A2529"/>
<path d="M52.8078 54.5384L53.2106 55.1405L53.2898 55.6635L53.0488 55.9421L52.5703 56.1038L51.8474 55.9421L51.0866 55.6635L50.3637 55.1405L49.7612 54.5384L49.3585 53.9776L49.2793 53.4581L49.4824 53.1381L49.9609 53.0177L50.6838 53.1381L51.4481 53.4581L52.2089 53.9776L52.8078 54.5384Z" fill="#8A2529"/>
<path d="M62.9941 72.5321L63.1146 72.7764L62.9528 72.8555H62.7531L62.6327 72.7764L62.433 72.6559L62.3125 72.5321L62.192 72.2534L62.3538 72.133L62.4743 72.2121L62.674 72.2534L62.8736 72.3738L62.9941 72.5321Z" fill="#8A2529"/>
<path d="M60.2298 68.9265L60.3882 69.3256L60.1472 69.5286L59.8683 69.4873L59.5861 69.3256L59.3072 69.1673L59.0249 68.9265L58.8666 68.5274L59.1041 68.3244L59.3864 68.3657L59.7065 68.5274L59.9888 68.6857L60.2298 68.9265Z" fill="#8A2529"/>
<path d="M57.4208 65.3174L57.703 65.9195L57.3003 66.1603L56.8975 66.1225L56.4982 65.9195L56.1367 65.6787L55.7753 65.3174L55.5377 64.7188L55.937 64.5192L56.2985 64.5571L56.6978 64.7188L57.1419 64.9975L57.4208 65.3174Z" fill="#8A2529"/>
<path d="M54.6943 61.7531L54.9353 62.1969L55.0145 62.5134L54.8561 62.7577L54.4947 62.8334L54.0506 62.7577L53.4895 62.5134L52.9696 62.1969L52.529 61.7531L52.288 61.3127L52.2089 60.9928L52.3672 60.7519L52.7287 60.6728L53.2106 60.7519L53.7718 60.9928L54.2537 61.3127L54.6943 61.7531Z" fill="#8A2529"/>
<path d="M51.9265 58.1475L52.2087 58.6704L52.2879 59.0282L52.0883 59.3069L51.6855 59.4308L51.1244 59.3069L50.4841 59.0282L49.8403 58.6704L49.2792 58.1475L49.0003 57.6245L48.9177 57.2254L49.1208 56.9433L49.5202 56.8229L50.1226 56.9433L50.7629 57.2254L51.3653 57.6245L51.9265 58.1475Z" fill="#8A2529"/>
<path d="M49.1209 54.5797L49.5202 55.1405L49.5615 55.6635L49.3998 55.9421L48.8799 56.1038L48.157 55.9421L47.4341 55.6635L46.7146 55.1405L46.0743 54.5797L45.7128 53.9776L45.6337 53.4581L45.792 53.1381L46.3153 53.0177L47.0348 53.1381L47.7956 53.4581L48.5185 53.9776L49.1209 54.5797Z" fill="#8A2529"/>
<path d="M59.3072 72.5321L59.4277 72.7764L59.2659 72.8555H59.1041L58.9458 72.7764L58.7461 72.6559L58.5843 72.5321L58.5051 72.2534L58.6635 72.133L58.8253 72.2121L59.0249 72.2534L59.1867 72.3738L59.3072 72.5321Z" fill="#8A2529"/>
<path d="M56.5808 68.9265L56.6978 69.3256L56.419 69.5286L56.178 69.4873L55.8992 69.3256L55.5756 69.1673L55.3759 68.9265L55.1763 68.5274L55.4551 68.3244L55.7374 68.3657L56.0162 68.5274L56.2985 68.6857L56.5808 68.9265Z" fill="#8A2529"/>
<path d="M53.7716 65.3174L54.0126 65.9195L53.6098 66.1603L53.2484 66.1225L52.8491 65.9195L52.4497 65.6787L52.0883 65.3174L51.8473 64.7188L52.2088 64.5192L52.6081 64.5571L53.0487 64.7188L53.4515 64.9975L53.7716 65.3174Z" fill="#8A2529"/>
<path d="M51.004 61.7531L51.245 62.1969L51.3241 62.5134L51.1658 62.7577L50.8043 62.8334L50.3224 62.7577L49.8404 62.5134L49.2793 62.1969L48.8387 61.7531L48.5977 61.3127L48.5598 60.9928L48.7182 60.7519L49.0418 60.6728L49.5616 60.7519L50.0814 60.9928L50.6047 61.3127L51.004 61.7531Z" fill="#8A2529"/>
<path d="M48.2361 58.1475L48.5597 58.6704L48.6389 59.0282L48.4392 59.3069L47.9986 59.4308L47.434 59.3069L46.7559 59.0282L46.1534 58.6704L45.6336 58.1475L45.2721 57.6245L45.2308 57.2254L45.4305 56.9433L45.8333 56.8229L46.4323 56.9433L47.0347 57.2254L47.7163 57.6245L48.2361 58.1475Z" fill="#8A2529"/>
<path d="M45.4718 54.5797L45.8333 55.1405L45.9125 55.6635L45.7128 55.9421L45.1896 56.1038L44.5079 55.9421L43.785 55.6635L43.0242 55.1405L42.3839 54.5797L41.9812 53.9776L41.902 53.4581L42.143 53.1381L42.6249 53.0177L43.3478 53.1381L44.1086 53.4581L44.8315 53.9776L45.4718 54.5797Z" fill="#8A2529"/>
<path d="M55.6582 72.5321L55.7374 72.7764L55.5756 72.8555H55.4551L55.2968 72.7764L55.0971 72.6559L54.9353 72.5321L54.8148 72.2534L55.0145 72.133L55.135 72.2121L55.3346 72.2534L55.4964 72.3738L55.6582 72.5321Z" fill="#8A2529"/>
<path d="M52.8491 68.9265L53.0488 69.3256L52.77 69.5286L52.529 69.4873L52.2088 69.3256L51.9266 69.1673L51.6856 68.9265L51.5272 68.5274L51.8061 68.3244L52.0883 68.3657L52.3672 68.5274L52.6495 68.6857L52.8491 68.9265Z" fill="#8A2529"/>
<path d="M50.0813 65.3174L50.3223 65.9195L49.9608 66.1603L49.5615 66.1225L49.1587 65.9195L48.7594 65.6787L48.4393 65.3174L48.157 64.7188L48.5598 64.5192L48.9591 64.5571L49.3584 64.7188L49.7612 64.9975L50.0813 65.3174Z" fill="#8A2529"/>
<path d="M47.3171 61.7531L47.5959 62.1969L47.6372 62.5134L47.5167 62.7577L47.1553 62.8334L46.6733 62.7577L46.1535 62.5134L45.6337 62.1969L45.1896 61.7531L44.9486 61.3127L44.9108 60.9928L45.0726 60.7519L45.3514 60.6728L45.8712 60.7519L46.3945 60.9928L46.9143 61.3127L47.3171 61.7531Z" fill="#8A2529"/>
<path d="M44.5492 58.1475L44.9107 58.6704L44.9485 59.0282L44.7902 59.3069L44.3495 59.4308L43.785 59.3069L43.1068 59.0282L42.5044 58.6704L41.9811 58.1475L41.661 57.6245L41.5818 57.2254L41.7401 56.9433L42.1842 56.8229L42.7453 56.9433L43.3857 57.2254L44.026 57.6245L44.5492 58.1475Z" fill="#8A2529"/>
<path d="M41.8228 54.5797L42.1843 55.1405L42.2634 55.6635L42.0225 55.9421L41.5405 56.1038L40.8589 55.9421L40.0981 55.6635L39.3786 55.1405L38.7349 54.5797L38.3321 53.9776L38.2529 53.4581L38.4526 53.1381L38.9759 53.0177L39.6575 53.1381L40.4183 53.4581L41.1412 53.9776L41.8228 54.5797Z" fill="#8A2529"/>
<path d="M51.9679 72.5321L52.0884 72.7764L51.9266 72.8555H51.7648L51.6064 72.7764L51.4033 72.6559L51.2449 72.5321L51.1658 72.2534L51.3654 72.133L51.5272 72.2121L51.6477 72.2534L51.8061 72.3738L51.9679 72.5321Z" fill="#8A2529"/>
<path d="M49.2001 68.9265L49.3998 69.3256L49.1209 69.5286L48.8386 69.4873L48.5598 69.3256L48.2775 69.1673L48.0365 68.9265L47.8782 68.5274L48.157 68.3244L48.398 68.3657L48.7181 68.5274L49.0004 68.6857L49.2001 68.9265Z" fill="#8A2529"/>
<path d="M46.4323 65.3174L46.6733 65.9195L46.3152 66.1603L45.9125 66.1225L45.5097 65.9195L45.1104 65.6787L44.7902 65.3174L44.5079 64.7188L44.9107 64.5192L45.2722 64.5571L45.7128 64.7188L46.1121 64.9975L46.4323 65.3174Z" fill="#8A2529"/>
<path d="M43.668 61.7531L43.9469 62.1969L43.9882 62.5134L43.8677 62.7577L43.5062 62.8334L43.0243 62.7577L42.5045 62.5134L41.9812 62.1969L41.5406 61.7531L41.2996 61.3127L41.2617 60.9928L41.3788 60.7519L41.7024 60.6728L42.1843 60.7519L42.7454 60.9928L43.2239 61.3127L43.668 61.7531Z" fill="#8A2529"/>
<path d="M40.9003 58.1475L41.2617 58.6704L41.2996 59.0282L41.1413 59.3069L40.7006 59.4308L40.1395 59.3069L39.4544 59.0282L38.8141 58.6704L38.2943 58.1475L37.9742 57.6245L37.9329 57.2254L38.0947 56.9433L38.5353 56.8229L39.0964 56.9433L39.7367 57.2254L40.3805 57.6245L40.9003 58.1475Z" fill="#8A2529"/>
<path d="M38.1325 54.5797L38.5353 55.1405L38.5731 55.6635L38.3735 55.9421L37.895 56.1038L37.1721 55.9421L36.4078 55.6635L35.7262 55.1405L35.1238 54.5797L34.7244 53.9776L34.6453 53.4581L34.8449 53.1381L35.3269 53.0177L36.0498 53.1381L36.7693 53.4581L37.4922 53.9776L38.1325 54.5797Z" fill="#8A2529"/>
<path d="M48.3188 72.5321L48.4392 72.7764L48.2774 72.8555H48.0778L47.8781 72.7764L47.7576 72.6559L47.5958 72.5321L47.4753 72.2534L47.6371 72.133L47.7955 72.2121L47.9986 72.2534L48.157 72.3738L48.3188 72.5321Z" fill="#8A2529"/>
<path d="M45.551 68.9265L45.7506 69.3256L45.4718 69.5286L45.1895 69.4873L44.9107 69.3256L44.6284 69.1673L44.3495 68.9265L44.1877 68.5274L44.47 68.3244L44.711 68.3657L45.0312 68.5274L45.31 68.6857L45.551 68.9265Z" fill="#8A2529"/>
<path d="M42.7454 65.3174L43.0242 65.9195L42.6628 66.1603L42.2634 66.1225L41.8641 65.9195L41.4235 65.6787L41.0999 65.3174L40.8589 64.7188L41.2617 64.5192L41.6231 64.5571L42.0224 64.7188L42.4252 64.9975L42.7454 65.3174Z" fill="#8A2529"/>
<path d="M40.0189 61.7531L40.2565 62.1969L40.2978 62.5134L40.1773 62.7577L39.8158 62.8334L39.3373 62.7577L38.8141 62.5134L38.2942 62.1969L37.8949 61.7531L37.6126 61.3127L37.5334 60.9928L37.6918 60.7519L38.0533 60.6728L38.5352 60.7519L39.055 60.9928L39.5783 61.3127L40.0189 61.7531Z" fill="#8A2529"/>
<path d="M37.2099 58.1475L37.5714 58.6704L37.6127 59.0282L37.4509 59.3069L37.0516 59.4308L36.4491 59.3069L35.8088 59.0282L35.2064 58.6704L34.6453 58.1475L34.3251 57.6245L34.2838 57.2254L34.4835 56.9433L34.8862 56.8229L35.4852 56.9433L36.129 57.2254L36.6901 57.6245L37.2099 58.1475Z" fill="#8A2529"/>
<path d="M34.4834 54.5797L34.8862 55.1405L34.924 55.6635L34.7657 55.9421L34.2424 56.1038L33.5229 55.9421L32.8 55.6635L32.0392 55.1405L31.3989 54.5797L31.0375 53.9776L30.9548 53.4581L31.1545 53.1381L31.6778 53.0177L32.3594 53.1381L33.1615 53.4581L33.8844 53.9776L34.4834 54.5797Z" fill="#8A2529"/>
<path d="M44.6284 72.4942L44.7489 72.7764L44.5492 72.8555H44.3874L44.2291 72.7764L44.0673 72.6559L43.9468 72.4942L43.8263 72.2534L43.9468 72.133L44.1499 72.2121L44.3496 72.2534L44.5079 72.3738L44.6284 72.4942Z" fill="#8A2529"/>
<path d="M41.8641 68.9265L42.0225 69.3256L41.7402 69.5286L41.5026 69.4873L41.1791 69.3256L40.9002 69.1673L40.7005 68.9265L40.4974 68.4861L40.7384 68.3244L41.0207 68.3657L41.3408 68.4861L41.6231 68.6857L41.8641 68.9265Z" fill="#8A2529"/>
<path d="M39.055 65.3174L39.3373 65.9195L38.938 66.1603L38.5352 66.0812L38.1738 65.9195L37.7331 65.6787L37.4095 65.3174L37.172 64.7188L37.5335 64.5192L37.9328 64.5571L38.3321 64.7188L38.7349 64.9975L39.055 65.3174Z" fill="#8A2529"/>
<path d="M36.3285 61.7531L36.5695 62.1556L36.6074 62.4756L36.4903 62.7577L36.1702 62.8334L35.6882 62.7577L35.165 62.4756L34.6452 62.1556L34.2045 61.7531L33.9636 61.3127L33.9222 60.9928L34.0427 60.7519L34.4042 60.6728L34.8861 60.7519L35.406 60.9928L35.9258 61.3127L36.3285 61.7531Z" fill="#8A2529"/>
<path d="M33.5608 58.1475L33.9222 58.6704L34.0014 59.0282L33.8018 59.3069L33.3611 59.4308L32.8 59.3069L32.1184 59.0282L31.5159 58.6704L30.9961 58.1475L30.6347 57.6245L30.5968 57.2254L30.7552 56.9433L31.1958 56.8229L31.7569 56.9433L32.4007 57.2254L33.041 57.6245L33.5608 58.1475Z" fill="#8A2529"/>
<path d="M30.8378 54.5384L31.1958 55.1405L31.2784 55.6635L31.0753 55.9421L30.5555 56.1038L29.8739 55.9421L29.1097 55.6635L28.3902 55.1405L27.7465 54.5384L27.3471 53.9776L27.2679 53.4581L27.4676 53.1381L27.9874 53.0177L28.669 53.1381L29.4711 53.4581L30.1941 53.9776L30.8378 54.5384Z" fill="#8A2529"/>
<path d="M28.0288 50.9741L28.4694 51.6553L28.5899 52.2161L28.3076 52.5773L27.7465 52.7356L27.3472 52.6978L26.9478 52.5773L26.5037 52.4569L26.0631 52.2161L25.6225 51.934L25.2231 51.6553L24.8204 51.3353L24.4623 50.9741L24.0596 50.2516L23.9391 49.6908L24.1801 49.3295L24.7825 49.2126H25.1818L25.5846 49.3295L26.0218 49.4912L26.4659 49.6908L26.9065 49.9729L27.3058 50.2516L27.7086 50.6128L28.0288 50.9741Z" fill="#8A2529"/>
<path d="M31.7191 50.9741L32.1597 51.6553L32.2389 52.2161L31.9979 52.5773L31.3989 52.7356L31.0375 52.6978L30.6347 52.5773L30.1528 52.4569L29.7121 52.2161L29.3128 51.934L28.8687 51.6553L28.4694 51.3353L28.1492 50.9741L27.7465 50.2516L27.626 49.7321L27.8669 49.3295L28.4694 49.2126H28.8308L29.2302 49.3295L29.7121 49.4912L30.1528 49.7321L30.5555 49.9729L30.9962 50.2516L31.3989 50.6128L31.7191 50.9741Z" fill="#8A2529"/>
<path d="M35.3647 50.9741L35.8087 51.6553L35.8879 52.2161L35.6882 52.5773L35.1237 52.7356L34.7244 52.6978L34.2837 52.5773L33.8431 52.4569L33.4403 52.2161L32.9618 51.934L32.559 51.6553L32.1597 51.3353L31.8395 50.9741L31.3989 50.2516L31.3163 49.7321L31.5573 49.3295L32.1184 49.2126H32.5177L32.9618 49.3295L33.3611 49.4912L33.8018 49.7321L34.2424 49.9729L34.6452 50.2516L35.0445 50.6128L35.3647 50.9741Z" fill="#8A2529"/>
<path d="M39.0172 50.9741L39.4544 51.6553L39.5783 52.2161L39.2961 52.5773L38.7349 52.7356L38.3322 52.6978L37.9328 52.5773L37.4922 52.4569L37.0516 52.2161L36.6075 51.934L36.2495 51.6553L35.888 51.3353L35.5265 50.9741L35.0859 50.2516L35.0067 49.7321L35.2064 49.3295L35.7675 49.2126H36.1703L36.5696 49.3295L37.0102 49.4912L37.4509 49.7321L37.895 49.9729L38.2943 50.2516L38.6936 50.6128L39.0172 50.9741Z" fill="#8A2529"/>
<path d="M42.6627 50.9741L43.1068 51.6553L43.2239 52.2161L42.9863 52.5773L42.3839 52.7356L41.9811 52.6978L41.5818 52.5773L41.1412 52.4569L40.7005 52.2161L40.2978 51.934L39.8571 51.6553L39.4543 51.3353L39.1342 50.9741L38.7349 50.2516L38.6144 49.7321L38.8554 49.3295L39.4165 49.2126H39.8158L40.2186 49.3295L40.6592 49.4912L41.0999 49.7321L41.5405 49.9729L41.9811 50.2516L42.3426 50.6128L42.6627 50.9741Z" fill="#8A2529"/>
<path d="M46.3531 50.9741L46.7937 51.6553L46.8729 52.2161L46.6354 52.5773L46.0743 52.7356L45.6715 52.6978L45.2722 52.5773L44.8315 52.4569L44.3874 52.2161L43.9468 51.934L43.5475 51.6553L43.1447 51.3353L42.8246 50.9741L42.3839 50.2516L42.2634 49.7321L42.5457 49.3295L43.1068 49.2126H43.5062L43.9089 49.3295L44.3496 49.4912L44.7902 49.7321L45.2309 49.9729L45.6336 50.2516L46.033 50.6128L46.3531 50.9741Z" fill="#8A2529"/>
<path d="M50.0435 50.9741L50.4842 51.6553L50.5634 52.2161L50.3224 52.5773L49.7613 52.7356L49.3585 52.6978L48.9178 52.5773L48.4772 52.4569L48.0779 52.2161L47.5959 51.934L47.1966 51.6553L46.7938 51.3353L46.4737 50.9741L46.033 50.2516L45.9539 49.6908L46.1948 49.3295L46.756 49.2126H47.1553L47.5959 49.3295L47.9987 49.4912L48.4393 49.6908L48.9178 49.9729L49.3206 50.2516L49.6821 50.6128L50.0435 50.9741Z" fill="#8A2529"/>
<path d="M6.13447 0.36125L6.0553 0.0791309L6.21709 0H6.41676L6.57856 0.0791309L6.73691 0.199548L6.8574 0.36125L6.97789 0.602083L6.81609 0.7225L6.65773 0.639928L6.49594 0.602083L6.29627 0.440381L6.13447 0.36125Z" fill="#8A2529"/>
<path d="M8.94359 3.92902L8.74048 3.52648L9.02276 3.32693L9.3016 3.36478L9.58389 3.52648L9.86617 3.68818L10.1037 3.92902L10.3034 4.36596L10.0658 4.52766L9.787 4.48637L9.4634 4.36596L9.14325 4.16641L8.94359 3.92902Z" fill="#8A2529"/>
<path d="M11.7492 7.53119L11.4703 6.93254L11.8284 6.69171L12.2311 6.77084L12.6305 6.93254L13.0332 7.17338L13.3534 7.53119L13.6322 8.09543L13.2329 8.33626L12.8714 8.29497L12.4721 8.09543L12.028 7.85459L11.7492 7.53119Z" fill="#8A2529"/>
<path d="M14.4757 11.099L14.2347 10.6586L14.1555 10.3386L14.3139 10.0978L14.6375 10.0187L15.1573 10.0978L15.6805 10.3386L16.2004 10.6586L16.5997 11.099L16.882 11.5015L16.9611 11.8628L16.8028 12.0623L16.4826 12.1414L16.0007 12.0623L15.4774 11.8628L14.9163 11.5015L14.4757 11.099Z" fill="#8A2529"/>
<path d="M17.2813 14.6668L16.9611 14.1851L16.882 13.7447L17.0816 13.466L17.481 13.3869L18.0868 13.466L18.7271 13.7447L19.3674 14.1851L19.8873 14.6668L20.2108 15.1863L20.29 15.5888L20.1282 15.8675L19.6876 15.9879L19.1265 15.8675L18.4448 15.5888L17.8045 15.1863L17.2813 14.6668Z" fill="#8A2529"/>
<path d="M20.049 18.2724L19.6876 17.6737L19.6084 17.1921L19.8115 16.8721L20.29 16.7104L21.0129 16.8721L21.7737 17.1921L22.4966 17.6737L23.137 18.2724L23.5397 18.8744L23.5776 19.3561L23.3779 19.6761L22.896 19.7965L22.1731 19.6761L21.4123 19.3561L20.6893 18.8744L20.049 18.2724Z" fill="#8A2529"/>
<path d="M9.86614 0.319964L9.70435 0.0791309L9.90401 0H10.0658L10.2242 0.0791309L10.4273 0.199548L10.5478 0.319964L10.6648 0.602083L10.5064 0.7225L10.3446 0.639928L10.145 0.602083L9.98319 0.440381L9.86614 0.319964Z" fill="#8A2529"/>
<path d="M12.5891 3.92902L12.4308 3.52648L12.7096 3.32693L12.9506 3.36478L13.2742 3.52648L13.553 3.68818L13.794 3.92902L13.9937 4.32811L13.7148 4.52766L13.4326 4.48637L13.1503 4.32811L12.8714 4.16641L12.5891 3.92902Z" fill="#8A2529"/>
<path d="M15.3982 7.53119L15.1572 6.93254L15.5187 6.69171L15.918 6.733L16.3208 6.93254L16.7201 7.17338L17.0816 7.53119L17.3226 8.09543L16.9198 8.33626L16.5205 8.29497L16.1211 8.09543L15.7184 7.85459L15.3982 7.53119Z" fill="#8A2529"/>
<path d="M18.166 11.099L17.8837 10.6586L17.8424 10.3386L18.0042 10.0978L18.3244 10.0187L18.8063 10.0978L19.3296 10.3386L19.8494 10.6586L20.29 11.099L20.5723 11.5015L20.6102 11.8628L20.4897 12.0623L20.1695 12.1414L19.6497 12.0623L19.1265 11.8628L18.5653 11.5015L18.166 11.099Z" fill="#8A2529"/>
<path d="M20.9716 14.6668L20.6101 14.1851L20.5723 13.7447L20.7306 13.466L21.1713 13.3869L21.7324 13.466L22.414 13.7447L23.0577 14.1851L23.5776 14.6668L23.8977 15.1863L23.939 15.5888L23.7772 15.8675L23.3366 15.9879L22.7755 15.8675L22.1352 15.5888L21.4914 15.1863L20.9716 14.6668Z" fill="#8A2529"/>
<path d="M23.7394 18.2345L23.3366 17.6737L23.2574 17.1508L23.4984 16.8308L23.9804 16.7104L24.662 16.8308L25.4228 17.1508L26.1457 17.6737L26.786 18.2345L27.1853 18.8332L27.2679 19.3561L27.0683 19.6761L26.5863 19.7965L25.8634 19.6761L25.1026 19.3561L24.3797 18.8332L23.7394 18.2345Z" fill="#8A2529"/>
<path d="M13.5118 0.319964L13.4326 0.0791309L13.5531 0H13.7149L13.8733 0.0791309L14.0729 0.199548L14.2347 0.319964L14.3552 0.602083L14.1555 0.7225L13.9937 0.639928L13.8354 0.602083L13.6736 0.440381L13.5118 0.319964Z" fill="#8A2529"/>
<path d="M16.2796 3.92902L16.1212 3.52648L16.4001 3.32693L16.641 3.36478L16.9199 3.52648L17.2435 3.68818L17.481 3.92902L17.6428 4.32811L17.364 4.52766L17.0817 4.48637L16.8028 4.32811L16.5205 4.16641L16.2796 3.92902Z" fill="#8A2529"/>
<path d="M19.0473 7.53119L18.8477 6.93254L19.2057 6.69171L19.5671 6.733L19.9699 6.93254L20.4105 7.17338L20.7307 7.53119L20.9717 8.09543L20.6102 8.33626L20.2109 8.29497L19.8116 8.09543L19.4088 7.85459L19.0473 7.53119Z" fill="#8A2529"/>
<path d="M21.8529 11.099L21.574 10.6586L21.5327 10.3386L21.6532 10.0978L22.0147 10.0187L22.4966 10.0978L23.0164 10.3386L23.5397 10.6586L23.9803 11.099L24.2592 11.5015L24.3383 11.8628L24.18 12.0623L23.8185 12.1414L23.3366 12.0623L22.7755 11.8628L22.2556 11.5015L21.8529 11.099Z" fill="#8A2529"/>
<path d="M24.662 14.6668L24.3385 14.1851L24.2593 13.7447L24.4211 13.466L24.8204 13.3869L25.4228 13.466L26.1045 13.7447L26.7069 14.1851L27.268 14.6668L27.5469 15.1863L27.626 15.5888L27.4677 15.8675L27.027 15.9879L26.4246 15.8675L25.7843 15.5888L25.1819 15.1863L24.662 14.6668Z" fill="#8A2529"/>
<path d="M27.4263 18.2345L27.0269 17.6737L26.9478 17.1508L27.1853 16.8308L27.6672 16.7104L28.3902 16.8308L29.1096 17.1508L29.8326 17.6737L30.4729 18.2345L30.8378 18.8332L30.9169 19.3561L30.7138 19.6761L30.2732 19.7965L29.5124 19.6761L28.7929 19.3561L28.0287 18.8332L27.4263 18.2345Z" fill="#8A2529"/>
<path d="M17.2022 0.319964L17.0817 0.0791309L17.2435 0H17.4431L17.6049 0.0791309L17.7633 0.199548L17.9251 0.319964L18.0043 0.602083L17.8425 0.7225L17.6841 0.639928L17.5223 0.602083L17.3639 0.440381L17.2022 0.319964Z" fill="#8A2529"/>
<path d="M19.9699 3.92902L19.7703 3.52648L20.0491 3.32693L20.3279 3.36478L20.6102 3.52648L20.9304 3.68818L21.1714 3.92902L21.3332 4.32811L21.0509 4.52766L20.772 4.48637L20.4519 4.32811L20.2109 4.16641L19.9699 3.92902Z" fill="#8A2529"/>
<path d="M22.7377 7.53119L22.4967 6.93254L22.8582 6.69171L23.2575 6.733L23.6981 6.93254L24.0975 7.17338L24.4211 7.53119L24.6207 7.85459L24.662 8.09543L24.5415 8.29497L24.2593 8.33626L23.8978 8.29497L23.4985 8.09543L23.0578 7.85459L22.7377 7.53119Z" fill="#8A2529"/>
<path d="M25.5019 11.099L25.2609 10.6586L25.1818 10.3386L25.3022 10.0978L25.6637 10.0187L26.1457 10.0978L26.7068 10.3386L27.2266 10.6586L27.6672 11.099L27.9495 11.5015L27.9874 11.8628L27.829 12.0623L27.4676 12.1414L26.9856 12.0623L26.4658 11.8628L25.9426 11.5015L25.5019 11.099Z" fill="#8A2529"/>
<path d="M28.3077 14.6668L27.9875 14.1851L27.9083 13.7447L28.108 13.466L28.5108 13.3869L29.1098 13.466L29.7948 13.7447L30.4351 14.1851L30.9171 14.6668L31.2785 15.1863L31.3164 15.5888L31.1167 15.8675L30.6761 15.9879L30.0737 15.8675L29.4712 15.5888L28.8309 15.1863L28.3077 14.6668Z" fill="#8A2529"/>
<path d="M31.0754 18.2345L30.6761 17.6737L30.6348 17.1508L30.8379 16.8308L31.3164 16.7104L32.0393 16.8308L32.8001 17.1508L33.523 17.6737L34.1633 18.2345L34.5626 18.8332L34.6453 19.3561L34.4043 19.6761L33.9223 19.7965L33.1994 19.6761L32.4386 19.3561L31.6778 18.8332L31.0754 18.2345Z" fill="#8A2529"/>
<path d="M20.8924 0.319964L20.8098 0.0791309L20.9303 0H21.0921L21.2918 0.0791309L21.4536 0.199548L21.6119 0.319964L21.7324 0.602083L21.5327 0.7225L21.3744 0.639928L21.2126 0.602083L21.0508 0.440381L20.8924 0.319964Z" fill="#8A2529"/>
<path d="M23.6602 3.92902L23.4984 3.52648L23.7394 3.32693L24.0182 3.36478L24.3384 3.52648L24.5794 3.68818L24.8203 3.92902L25.0234 4.32811L24.7412 4.52766L24.4623 4.48637L24.18 4.32811L23.8977 4.16641L23.6602 3.92902Z" fill="#8A2529"/>
<path d="M26.4246 7.53119L26.1836 6.93254L26.5864 6.69171L26.9478 6.733L27.3472 6.93254L27.7465 7.17338L28.1079 7.53119L28.3489 8.09543L27.9496 8.33626L27.5468 8.29497L27.1854 8.09543L26.786 7.85459L26.4246 7.53119Z" fill="#8A2529"/>
<path d="M29.2302 11.099L28.9514 10.6586L28.8688 10.3386L29.0306 10.0978L29.392 10.0187L29.8327 10.0978L30.3525 10.3386L30.9171 10.6586L31.3164 11.099L31.5987 11.5015L31.6778 11.8628L31.5161 12.0623L31.1959 12.1414L30.7139 12.0623L30.1528 11.8628L29.633 11.5015L29.2302 11.099Z" fill="#8A2529"/>
<path d="M31.9979 14.6668L31.6778 14.1851L31.6399 13.7447L31.7569 13.466L32.1976 13.3869L32.8 13.466L33.4403 13.7447L34.0841 14.1851L34.6039 14.6668L34.924 15.1863L35.0066 15.5888L34.807 15.8675L34.3629 15.9879L33.8018 15.8675L33.1615 15.5888L32.5177 15.1863L31.9979 14.6668Z" fill="#8A2529"/>
<path d="M34.7657 18.2345L34.3629 17.6737L34.3251 17.1508L34.5247 16.8308L35.0446 16.7104L35.7262 16.8308L36.4491 17.1508L37.172 17.6737L37.771 18.2345L38.1738 18.8332L38.253 19.3561L38.0533 19.6761L37.5713 19.7965L36.8484 19.6761L36.1702 19.3561L35.406 18.8332L34.7657 18.2345Z" fill="#8A2529"/>
<path d="M24.5415 0.319964L24.4623 0.0791309L24.6206 0H24.7824L24.9408 0.0791309L25.1026 0.199548L25.2609 0.319964L25.3814 0.602083L25.2231 0.7225L25.0234 0.639928L24.8616 0.602083L24.6998 0.440381L24.5415 0.319964Z" fill="#8A2529"/>
<path d="M27.3058 3.92902L27.1475 3.52648L27.4263 3.32693L27.7086 3.36478L27.9874 3.52648L28.2697 3.68818L28.5107 3.92902L28.669 4.32811L28.3902 4.52766L28.1492 4.48637L27.8291 4.32811L27.5468 4.16641L27.3058 3.92902Z" fill="#8A2529"/>
<path d="M30.0736 7.53119L29.8326 6.93254L30.2354 6.69171L30.6347 6.733L31.0375 6.93254L31.4368 7.17338L31.757 7.53119L31.998 8.09543L31.6399 8.33626L31.2372 8.29497L30.8378 8.09543L30.4351 7.85459L30.0736 7.53119Z" fill="#8A2529"/>
<path d="M32.8792 11.099L32.6004 10.6586L32.5591 10.3386L32.6796 10.0978L33.041 10.0187L33.523 10.0978L34.0428 10.3386L34.5626 10.6586L35.0446 11.099L35.2855 11.5015L35.3647 11.8628L35.2064 12.0623L34.8449 12.1414L34.3629 12.0623L33.8431 11.8628L33.3233 11.5015L32.8792 11.099Z" fill="#8A2529"/>
<path d="M35.6883 14.6668L35.3268 14.1851L35.2855 13.7447L35.4852 13.466L35.888 13.3869L36.4491 13.466L37.0894 13.7447L37.6918 14.1851L38.253 14.6668L38.5731 15.1863L38.6144 15.5888L38.4526 15.8675L38.012 15.9879L37.4095 15.8675L36.7692 15.5888L36.2081 15.1863L35.6883 14.6668Z" fill="#8A2529"/>
<path d="M38.4148 18.2345L38.012 17.6737L37.9741 17.1508L38.1738 16.8308L38.6557 16.7104L39.3787 16.8308L40.1394 17.1508L40.8589 17.6737L41.5027 18.2345L41.8641 18.8332L41.9433 19.3561L41.7402 19.6761L41.2617 19.7965L40.5388 19.6761L39.778 19.3561L39.0172 18.8332L38.4148 18.2345Z" fill="#8A2529"/>
<path d="M28.2285 0.36125L28.1493 0.0791309L28.3076 0H28.4694L28.6312 0.0791309L28.793 0.199548L28.9514 0.36125L29.0306 0.602083L28.8688 0.7225L28.7517 0.639928L28.5486 0.602083L28.3903 0.440381L28.2285 0.36125Z" fill="#8A2529"/>
<path d="M30.9961 3.92902L30.8378 3.52648L31.1166 3.32693L31.3989 3.36478L31.6777 3.52648L31.9566 3.68818L32.1976 3.92902L32.3593 4.36596L32.1184 4.52766L31.8395 4.48637L31.5159 4.36596L31.2371 4.16641L30.9961 3.92902Z" fill="#8A2529"/>
<path d="M33.8018 7.53119L33.5229 6.93254L33.9223 6.69171L34.3251 6.77084L34.7244 6.93254L35.1237 7.17338L35.4473 7.53119L35.6883 8.09543L35.3268 8.33626L34.924 8.29497L34.5247 8.09543L34.1254 7.85459L33.8018 7.53119Z" fill="#8A2529"/>
<path d="M36.5282 11.099L36.3286 10.6586L36.2494 10.3386L36.3699 10.0978L36.69 10.0187L37.172 10.0978L37.6918 10.3386L38.2151 10.6586L38.6144 11.099L38.8932 11.5015L39.0171 11.8628L38.8554 12.0623L38.4939 12.1414L38.0119 12.0623L37.4921 11.8628L36.931 11.5015L36.5282 11.099Z" fill="#8A2529"/>
<path d="M39.3373 14.6668L39.0172 14.1851L38.938 13.7447L39.0963 13.466L39.537 13.3869L40.1394 13.466L40.7797 13.7447L41.4235 14.1851L41.902 14.6668L42.2634 15.1863L42.3426 15.5888L42.1429 15.8675L41.7023 15.9879L41.1412 15.8675L40.4974 15.5888L39.8571 15.1863L39.3373 14.6668Z" fill="#8A2529"/>
<path d="M42.1017 18.2724L41.7023 17.6737L41.6232 17.1921L41.8641 16.8721L42.3426 16.7104L43.0243 16.8721L43.8264 17.1921L44.508 17.6737L45.1896 18.2724L45.5511 18.8744L45.6337 19.3561L45.4306 19.6761L44.9107 19.7965L44.2291 19.6761L43.4649 19.3561L42.7041 18.8744L42.1017 18.2724Z" fill="#8A2529"/>
<path d="M44.8694 21.8401L44.4288 21.1589L44.3496 20.5981L44.6285 20.2369L45.1896 20.0786H45.551L45.9538 20.2369L46.3944 20.3573L46.873 20.5981L47.317 20.839L47.7164 21.1589L48.0778 21.4789L48.4393 21.8401L48.8386 22.5214L48.9591 23.0821L48.7181 23.4434L48.157 23.6429L47.7577 23.6051L47.317 23.4434L46.873 23.323L46.4736 23.0821L46.033 22.8413L45.5923 22.5214L45.1896 22.2014L44.8694 21.8401Z" fill="#8A2529"/>
<path d="M41.1791 21.8401L40.7385 21.1589L40.6593 20.5981L40.9003 20.2369L41.5027 20.0786H41.8642L42.2635 20.2369L42.7455 20.3573L43.1861 20.5981L43.5854 20.839L44.0261 21.1589L44.4288 21.4789L44.749 21.8401L45.1896 22.5214L45.2722 23.0821L45.0313 23.4434L44.4288 23.6429L44.0674 23.6051L43.668 23.4434L43.224 23.323L42.7455 23.0821L42.3427 22.8413L41.902 22.5214L41.5406 22.2014L41.1791 21.8401Z" fill="#8A2529"/>
<path d="M37.5335 21.8401L37.0894 21.1589L37.0103 20.5981L37.2099 20.2369L37.771 20.0786H38.1738L38.6145 20.2369L39.0551 20.3573L39.4544 20.5981L39.9364 20.839L40.3391 21.1589L40.7385 21.4789L41.0621 21.8401L41.5027 22.5214L41.5819 23.0821L41.3409 23.4434L40.7798 23.6429L40.4183 23.6051L39.9777 23.4434L39.5784 23.323L39.0964 23.0821L38.6558 22.8413L38.253 22.5214L37.895 22.2014L37.5335 21.8401Z" fill="#8A2529"/>
<path d="M33.8432 21.8401L33.4404 21.1589L33.3234 20.5981L33.5609 20.2369L34.1633 20.0786H34.5627L34.9654 20.2369L35.4061 20.3573L35.888 20.5981L36.2873 20.839L36.6488 21.1589L37.0516 21.4789L37.3717 21.8401L37.8124 22.5214L37.9329 23.0821L37.654 23.4434L37.0894 23.6429L36.6901 23.6051L36.3287 23.4434L35.888 23.323L35.4474 23.0821L35.0067 22.8413L34.5627 22.5214L34.2046 22.2014L33.8432 21.8401Z" fill="#8A2529"/>
<path d="M30.194 21.8401L29.7534 21.1589L29.6708 20.5981L29.8739 20.2369L30.4729 20.0786H30.8756L31.2784 20.2369L31.7191 20.3573L32.1597 20.5981L32.6003 20.839L32.9997 21.1589L33.4024 21.4789L33.7226 21.8401L34.1632 22.5214L34.2837 23.0821L34.0014 23.4434L33.4403 23.6429L33.0823 23.6051L32.6382 23.4434L32.1976 23.323L31.7569 23.0821L31.3163 22.8413L30.917 22.5214L30.5142 22.2014L30.194 21.8401Z" fill="#8A2529"/>
<path d="M26.5037 21.8401L26.0631 21.1589L25.9839 20.5981L26.2249 20.2369L26.786 20.0786H27.1853L27.626 20.2369L28.0287 20.3573L28.4694 20.5981L28.9134 20.839L29.3128 21.1589L29.7121 21.4789L30.0736 21.8401L30.4729 22.5214L30.5555 23.0821L30.3524 23.4434L29.7947 23.6429L29.392 23.6051L28.9513 23.4434L28.5485 23.323L28.1079 23.0821L27.626 22.8413L27.2266 22.5214L26.8652 22.2014L26.5037 21.8401Z" fill="#8A2529"/>
<path d="M22.8168 21.8401L22.414 21.1589L22.297 20.5981L22.5345 20.2369L23.137 20.0786H23.5397L23.9391 20.2369L24.3797 20.3573L24.8203 20.5981L25.261 20.839L25.6638 21.1589L26.0631 21.4789L26.3832 21.8401L26.8239 22.5214L26.9065 23.0821L26.6655 23.4434L26.1044 23.6429L25.7016 23.6051L25.3023 23.4434L24.8203 23.323L24.421 23.0821L23.9804 22.8413L23.5397 22.5214L23.137 22.2014L22.8168 21.8401Z" fill="#8A2529"/>
<path d="M72.4575 6.21005L72.6985 6.08963L72.8189 6.25133L72.6985 6.61258L72.4575 6.8947L72.2165 7.01168L72.1373 6.85342L72.2165 6.53001L72.4575 6.21005Z" fill="#8A2529"/>
<path d="M68.8498 8.97619L69.1287 8.81793L69.2905 8.77664L69.411 8.85577L69.4901 9.05532L69.411 9.33744L69.2905 9.61612L69.1287 9.89824L68.8498 10.1769L68.6467 10.2973L68.4471 10.3386L68.3266 10.256L68.2853 10.0978L68.3266 9.81911L68.4471 9.4957L68.6467 9.21702L68.8498 8.97619Z" fill="#8A2529"/>
<path d="M65.2799 11.7802L65.6001 11.5806L65.8411 11.5015L66.0442 11.6219L66.1233 11.9006L66.0442 12.2618L65.8411 12.7022L65.6001 13.0635L65.2799 13.4247L64.9598 13.6243L64.7188 13.6656L64.557 13.5451L64.4365 13.2665L64.557 12.9018L64.7188 12.5027L64.9598 12.1036L65.2799 11.7802Z" fill="#8A2529"/>
<path d="M61.7135 14.5051L62.1128 14.2677L62.4743 14.2264L62.6739 14.3468L62.7531 14.6668L62.6739 15.1863L62.4743 15.7092L62.1128 16.2287L61.7135 16.6313L61.2694 16.91L60.9906 16.9512L60.7496 16.8308L60.6704 16.4696L60.7496 15.9879L60.9906 15.4684L61.2694 14.9489L61.7135 14.5051Z" fill="#8A2529"/>
<path d="M58.1024 17.2712L58.6635 16.9512L59.025 16.9099L59.3073 17.0716L59.4277 17.4707L59.3073 18.0728L59.025 18.7128L58.6635 19.3561L58.1024 19.9169L57.6204 20.2369L57.2211 20.2782L56.9388 20.0786L56.8218 19.6761L56.9388 19.1153L57.2211 18.4341L57.6204 17.832L58.1024 17.2712Z" fill="#8A2529"/>
<path d="M54.5324 20.0373L55.1349 19.6761L55.6168 19.597L55.937 19.7965L56.0575 20.316L55.937 20.9972L55.6168 21.7576L55.1349 22.5214L54.5324 23.1234L53.9334 23.5225L53.4515 23.6051L53.1313 23.3643L53.0109 22.8826L53.1313 22.1601L53.4515 21.3998L53.9334 20.6773L54.5324 20.0373Z" fill="#8A2529"/>
<path d="M72.4988 9.89825L72.6985 9.77783L72.8189 9.93953L72.6985 10.2561L72.4988 10.5795L72.2165 10.6999L72.1373 10.5382L72.2165 10.1769L72.4988 9.89825Z" fill="#8A2529"/>
<path d="M68.8877 12.6231L69.1287 12.5027H69.2905L69.411 12.544L69.4901 12.7435L69.411 12.9844L69.2905 13.3043L69.1287 13.583L68.8877 13.8238L68.6467 13.9855L68.4884 14.0268L68.3679 13.9064L68.2853 13.7447L68.3679 13.466L68.4884 13.1839L68.6467 12.9018L68.8877 12.6231Z" fill="#8A2529"/>
<path d="M65.2799 15.4271L65.6001 15.2275L65.8411 15.1862L66.0442 15.3067L66.1233 15.5888L66.0442 15.95L65.8411 16.3491L65.6001 16.7517L65.2799 17.1095L64.9598 17.2712L64.7188 17.3503L64.557 17.2333L64.4365 16.9512L64.557 16.59L64.7188 16.1496L64.9598 15.7505L65.2799 15.4271Z" fill="#8A2529"/>
<path d="M61.7135 18.1932L62.1128 17.9524L62.4743 17.8733L62.6739 18.0315L62.7531 18.3962L62.6739 18.8332L62.4743 19.3974L62.1128 19.9169L61.7135 20.316L61.2694 20.5568L60.9906 20.6394L60.7496 20.4777L60.6704 20.1577L60.7496 19.6348L60.9906 19.1153L61.2694 18.5958L61.7135 18.1932Z" fill="#8A2529"/>
<path d="M58.1024 20.9594L58.6635 20.6394L59.025 20.5568L59.3073 20.7564L59.4277 21.1589L59.3073 21.7576L59.025 22.4009L58.6635 23.0408L58.1024 23.5638L57.6204 23.8838L57.2211 23.925L56.9388 23.7633L56.8218 23.3643L56.9388 22.7622L57.2211 22.1188L57.6204 21.4789L58.1024 20.9594Z" fill="#8A2529"/>
<path d="M54.5324 23.7221L55.1349 23.3643L55.6581 23.2817L55.9783 23.4434L56.0575 24.0042L55.9783 24.6854L55.6581 25.4079L55.1349 26.1683L54.5324 26.8082L53.9713 27.1694L53.4515 27.252L53.1313 27.049L53.0109 26.5674L53.1313 25.8483L53.4515 25.0845L53.9713 24.3655L54.5324 23.7221Z" fill="#8A2529"/>
<path d="M72.4988 13.5452L72.6985 13.466L72.8189 13.6243L72.6985 13.9443L72.4988 14.2677L72.2165 14.3846L72.1373 14.2264L72.2165 13.8651L72.4988 13.5452Z" fill="#8A2529"/>
<path d="M68.8877 16.3113L69.1287 16.1496H69.2905L69.411 16.2287L69.4901 16.4283L69.411 16.7104L69.2905 16.9891L69.1287 17.2712L68.8877 17.512L68.6467 17.6737H68.4884L68.3679 17.5912L68.2853 17.4329L68.3679 17.1508L68.4884 16.8721L68.6467 16.5487L68.8877 16.3113Z" fill="#8A2529"/>
<path d="M65.2799 19.1153L65.6001 18.8745H65.8411L66.0442 18.9536L66.1233 19.2357L66.0442 19.6348L65.8411 20.0373L65.6001 20.4399L65.2799 20.7564L64.9598 20.9594L64.7188 20.9972L64.557 20.9181L64.4365 20.6394L64.557 20.2782L64.7188 19.8343L64.9598 19.4352L65.2799 19.1153Z" fill="#8A2529"/>
<path d="M61.7135 21.878L62.1128 21.5993L62.4743 21.5615L62.6739 21.6784L62.7531 22.0397L62.6739 22.5214L62.4743 23.0409L62.1128 23.5638L61.7135 24.0042L61.2694 24.2829H60.9906L60.7496 24.1625L60.6704 23.8425L60.7496 23.323L60.9906 22.8035L61.2694 22.2805L61.7135 21.878Z" fill="#8A2529"/>
<path d="M58.1024 24.6441L58.6635 24.2829L59.025 24.245L59.3073 24.4446L59.4277 24.8471L59.3073 25.4079L59.025 26.0857L58.6635 26.729L58.1024 27.252L57.6204 27.572L57.2211 27.6511L56.9388 27.4515L56.8218 27.0112L56.9388 26.4469L57.2211 25.807L57.6204 25.1671L58.1024 24.6441Z" fill="#8A2529"/>
<path d="M54.5324 27.4103L55.1349 27.0112L55.6581 26.9699L55.9783 27.1316L56.0575 27.6511L55.9783 28.3736L55.6581 29.0927L55.1349 29.8152L54.5324 30.4551L53.9713 30.8576L53.4515 30.9367L53.1313 30.7372L53.0109 30.2555L53.1313 29.533L53.4515 28.7727L53.9713 28.0502L54.5324 27.4103Z" fill="#8A2529"/>
<path d="M72.4988 17.2334L72.6985 17.1095L72.8189 17.2712L72.6985 17.5912L72.4988 17.9524L72.2165 18.0315L72.1373 17.8733L72.2165 17.5533L72.4988 17.2334Z" fill="#8A2529"/>
<path d="M68.8877 19.9961L69.1287 19.8344L69.2905 19.7965L69.411 19.9169L69.4901 20.0786L69.411 20.3573L69.2905 20.6394L69.1287 20.9181L68.8877 21.1589L68.6467 21.3206H68.4884L68.3679 21.2381L68.2853 21.0798L68.3679 20.7977L68.4884 20.519L68.6467 20.2369L68.8877 19.9961Z" fill="#8A2529"/>
<path d="M65.2799 22.8035L65.6001 22.6005L65.8411 22.5214L66.0442 22.6005L66.1233 22.8826L66.0442 23.2817L65.8411 23.6842L65.6001 24.1246L65.2799 24.4446L64.9598 24.6063L64.7188 24.6854L64.557 24.565L64.4365 24.2829L64.557 23.9251L64.7188 23.5225L64.9598 23.0822L65.2799 22.8035Z" fill="#8A2529"/>
<path d="M61.7135 25.5249L62.1128 25.2875L62.4743 25.2084L62.6739 25.3666L62.7531 25.6866L62.6739 26.1683L62.4743 26.7291L62.1128 27.2107L61.7135 27.6511L61.2694 27.9298H60.9906L60.7496 27.8128L60.6704 27.4929L60.7496 27.0112L60.9906 26.4469L61.2694 25.9687L61.7135 25.5249Z" fill="#8A2529"/>
<path d="M58.1024 28.3323L58.6635 27.9711L59.025 27.8919L59.3073 28.0915L59.4277 28.4906L59.3073 29.0927L59.025 29.736L58.6635 30.376L58.1024 30.8989L57.6204 31.2154L57.2211 31.298L56.9388 31.0985L56.8218 30.6581L56.9388 30.0973L57.2211 29.4539L57.6204 28.814L58.1024 28.3323Z" fill="#8A2529"/>
<path d="M54.5324 31.0572L55.1349 30.6581L55.6581 30.6168L55.9783 30.8576L56.0575 31.298L55.9783 32.0205L55.6581 32.7809L55.1349 33.5033L54.5324 34.102L53.9713 34.5045L53.4515 34.5837L53.1313 34.3841L53.0109 33.9024L53.1313 33.1799L53.4515 32.4196L53.9713 31.6971L54.5324 31.0572Z" fill="#8A2529"/>
<path d="M72.4988 20.9181L72.6985 20.7564L72.8189 20.9181L72.6985 21.2793L72.4988 21.5993L72.2165 21.6784L72.1373 21.5202L72.2165 21.2002L72.4988 20.9181Z" fill="#8A2529"/>
<path d="M68.8877 23.6429L69.1287 23.5225L69.2905 23.4434L69.411 23.5638L69.4901 23.7221L69.411 24.0042L69.2905 24.2829L69.1287 24.565L68.8877 24.8471L68.6467 24.9675L68.4884 25.0054L68.3679 24.9262L68.2853 24.7232L68.3679 24.4859L68.4884 24.1625L68.6467 23.8838L68.8877 23.6429Z" fill="#8A2529"/>
<path d="M65.2799 26.4469L65.6001 26.2474L65.8411 26.1682L66.0442 26.2887L66.1233 26.5673L66.0442 26.9699L65.8411 27.369L65.6001 27.7715L65.2799 28.0915L64.9598 28.291L64.7188 28.3323L64.557 28.2119L64.4365 27.9298L64.557 27.572L64.7188 27.1694L64.9598 26.7703L65.2799 26.4469Z" fill="#8A2529"/>
<path d="M61.7135 29.2131L62.1128 28.931L62.4743 28.8931L62.6739 29.0135L62.7531 29.3335L62.6739 29.8152L62.4743 30.376L62.1128 30.8989L61.7135 31.298L61.2694 31.5767L60.9906 31.618L60.7496 31.4976L60.6704 31.1363L60.7496 30.6581L60.9906 30.1351L61.2694 29.6156L61.7135 29.2131Z" fill="#8A2529"/>
<path d="M58.1024 31.9792L58.6635 31.618L59.025 31.5767L59.3073 31.7384L59.4277 32.1375L59.3073 32.7396L59.025 33.4208L58.6635 34.0229L58.1024 34.5837L57.6204 34.8658L57.2211 34.9449L56.9388 34.7832L56.8218 34.3428L56.9388 33.7442L57.2211 33.1008L57.6204 32.4987L58.1024 31.9792Z" fill="#8A2529"/>
<path d="M54.5324 34.7419L55.1349 34.3428L55.6581 34.2637L55.9783 34.5045L56.0575 34.9828L55.9783 35.6674L55.6581 36.4278L55.1349 37.1468L54.5324 37.7489L53.9713 38.1514L53.4515 38.2306L53.1313 38.031L53.0109 37.5081L53.1313 36.8269L53.4515 36.1044L53.9713 35.344L54.5324 34.7419Z" fill="#8A2529"/>
<path d="M72.4988 24.565L72.6985 24.4446L72.8189 24.6063L72.6985 24.9675L72.4988 25.2875L72.2165 25.3666L72.1373 25.2084L72.2165 24.8471L72.4988 24.565Z" fill="#8A2529"/>
<path d="M68.8877 27.2899L69.1287 27.1694L69.2905 27.1316L69.411 27.2107L69.4901 27.4103L69.411 27.6511L69.2905 27.9711L69.1287 28.2532L68.8877 28.4906L68.6467 28.6523L68.4884 28.6936L68.3679 28.6144L68.2853 28.4114L68.3679 28.1328L68.4884 27.8506L68.6467 27.572L68.8877 27.2899Z" fill="#8A2529"/>
<path d="M65.2799 30.0973L65.6001 29.8943L65.8411 29.8152L66.0442 29.9356L66.1233 30.2142L66.0442 30.6168L65.8411 31.0193L65.6001 31.4184L65.2799 31.7797L64.9598 31.9792H64.7188L64.557 31.8588L64.4365 31.618L64.557 31.2154L64.7188 30.8576L64.9598 30.4172L65.2799 30.0973Z" fill="#8A2529"/>
<path d="M61.7135 32.86L62.1128 32.6191L62.4743 32.54L62.6739 32.6983L62.7531 33.063L62.6739 33.5412L62.4743 34.0229L62.1128 34.5836L61.7135 34.9827L61.2694 35.2236L60.9906 35.3027L60.7496 35.1444L60.6704 34.8245L60.7496 34.3015L60.9906 33.782L61.2694 33.2591L61.7135 32.86Z" fill="#8A2529"/>
<path d="M58.1024 35.6261L58.6635 35.3027L59.025 35.2236L59.3073 35.4266L59.4277 35.8257L59.3073 36.4277L59.025 37.0677L58.6635 37.6697L58.1024 38.1893L57.6204 38.5505L57.2211 38.5918L56.9388 38.3888L56.8218 37.9897L56.9388 37.3876L57.2211 36.7477L57.6204 36.1456L58.1024 35.6261Z" fill="#8A2529"/>
<path d="M54.5324 38.351L55.1349 37.9897L55.6581 37.9106L55.9783 38.1101L56.0575 38.6296L55.9783 39.3109L55.6581 40.0712L55.1349 40.7937L54.5324 41.4371L53.9713 41.8362L53.4515 41.9153L53.1313 41.6745L53.0109 41.1962L53.1313 40.515L53.4515 39.7134L53.9713 38.9909L54.5324 38.351Z" fill="#8A2529"/>
<path d="M72.4575 28.2119L72.6985 28.1328L72.8189 28.3323L72.6985 28.6523L72.4575 28.9309L72.2165 29.0514L72.1373 28.8931L72.2165 28.5318L72.4575 28.2119Z" fill="#8A2529"/>
<path d="M68.8498 31.0193L69.1287 30.8576H69.2905L69.411 30.8989L69.4901 31.0985L69.411 31.3771L69.2905 31.6971L69.1287 31.9379L68.8498 32.1788L68.6467 32.3405H68.4471L68.3266 32.2992L68.2853 32.0996L68.3266 31.8588L68.4471 31.4976L68.6467 31.2154L68.8498 31.0193Z" fill="#8A2529"/>
<path d="M65.2799 33.782L65.6001 33.5825L65.8411 33.5412L66.0442 33.6616L66.1233 33.9437L66.0442 34.3015L65.8411 34.7041L65.6001 35.1032L65.2799 35.4266L64.9598 35.6261L64.7188 35.7053L64.557 35.5848L64.4365 35.3027L64.557 34.9449L64.7188 34.5045L64.9598 34.102L65.2799 33.782Z" fill="#8A2529"/>
<path d="M61.7135 36.5069L62.1128 36.3073L62.4743 36.2661L62.6739 36.3486L62.7531 36.6686L62.6739 37.1881L62.4743 37.7111L62.1128 38.2306L61.7135 38.6297L61.2694 38.9118L60.9906 38.9531L60.7496 38.8326L60.6704 38.4714L60.7496 37.9897L60.9906 37.4289L61.2694 36.9473L61.7135 36.5069Z" fill="#8A2529"/>
<path d="M58.1024 39.3109L58.6635 38.9531L59.025 38.8705L59.3073 39.07L59.4277 39.4726L59.3073 40.0712L59.025 40.7146L58.6635 41.3545L58.1024 41.8775L57.6204 42.1974L57.2211 42.2766L56.9388 42.1183L56.8218 41.6745L56.9388 41.0758L57.2211 40.4325L57.6204 39.7925L58.1024 39.3109Z" fill="#8A2529"/>
<path d="M54.5324 42.0357L55.1349 41.6745L55.6168 41.5953L55.937 41.7949L56.0575 42.2765L55.937 42.9991L55.6168 43.7594L55.1349 44.4819L54.5324 45.1218L53.9334 45.4831L53.4515 45.5622L53.1313 45.3627L53.0109 44.8844L53.1313 44.1619L53.4515 43.3981L53.9334 42.6791L54.5324 42.0357Z" fill="#8A2529"/>
<path d="M50.9627 44.8019L51.6477 44.3615L52.2089 44.2823L52.5703 44.5232L52.7287 45.1218L52.5703 45.9235L52.2089 46.7664L51.6477 47.6471L50.9627 48.3696L50.2432 48.81L49.6821 48.9304L49.3206 48.6518L49.1588 48.0875L49.3206 47.2446L49.6821 46.4051L50.2432 45.5622L50.9627 44.8019Z" fill="#8A2529"/>
<path d="M50.9627 41.155L51.6477 40.7146L52.2089 40.5942L52.5703 40.8763L52.7287 41.4371L52.5703 42.2387L52.2089 43.1195L51.6477 43.9624L50.9627 44.7228L50.2432 45.1218L49.6821 45.201L49.3206 44.9636L49.1588 44.4028L49.3206 43.6012L49.6821 42.7204L50.2432 41.8362L50.9627 41.155Z" fill="#8A2529"/>
<path d="M50.9627 37.4702L51.6477 37.0677L52.2089 36.9473L52.5703 37.1881L52.7287 37.7489L52.5703 38.5505L52.2089 39.4313L51.6477 40.3155L50.9627 40.9967L50.2432 41.4371L49.6821 41.5541L49.3206 41.2754L49.1588 40.7146L49.3206 39.913L49.6821 39.0322L50.2432 38.1893L50.9627 37.4702Z" fill="#8A2529"/>
<path d="M50.9627 33.8233L51.6477 33.4208L52.2089 33.3004L52.5703 33.5412L52.7287 34.1433L52.5703 34.9449L52.2089 35.7878L51.6477 36.6273L50.9627 37.3498L50.2432 37.7902L49.6821 37.8693L49.3206 37.6285L49.1588 37.0677L49.3206 36.3073L49.6821 35.4266L50.2432 34.5836L50.9627 33.8233Z" fill="#8A2529"/>
<path d="M50.9627 30.1764L51.6477 29.736L52.2089 29.6534L52.5703 29.8943L52.7287 30.4551L52.5703 31.298L52.2089 32.1375L51.6477 32.9804L50.9627 33.7442L50.2432 34.1433L49.6821 34.2637L49.3206 34.0228L49.1588 33.4586L49.3206 32.6191L49.6821 31.7797L50.2432 30.8989L50.9627 30.1764Z" fill="#8A2529"/>
<path d="M50.9627 26.5295L51.6477 26.0857L52.2089 25.9687L52.5703 26.2061L52.7287 26.8082L52.5703 27.6098L52.2089 28.4906L51.6477 29.3335L50.9627 30.056L50.2432 30.4551L49.6821 30.5755L49.3206 30.3347L49.1588 29.7739L49.3206 28.9757L49.6821 28.0915L50.2432 27.2107L50.9627 26.5295Z" fill="#8A2529"/>
<path d="M50.9627 22.8413L51.6477 22.4009L52.2089 22.3218L52.5703 22.5214L52.7287 23.1234L52.5703 23.9251L52.2089 24.8058L51.6477 25.6866L50.9627 26.3678L50.2432 26.8082L49.6821 26.9286L49.3206 26.6499L49.1588 26.0857L49.3206 25.2875L49.6821 24.4033L50.2432 23.5638L50.9627 22.8413Z" fill="#8A2529"/>
<path d="M0.320152 64.2784L0.0791773 64.3575L0 64.158L0.0791773 63.838L0.320152 63.5593L0.602436 63.4768L0.681613 63.6385L0.602436 63.9963L0.320152 64.2784Z" fill="#8A2529"/>
<path d="M3.96916 61.9148L3.69032 62.0352H3.52852L3.40803 61.9148L3.32886 61.7531L3.40803 61.471L3.52852 61.1923L3.69032 60.9136L3.96916 60.7106L4.17227 60.5937L4.37193 60.5524L4.49242 60.6315L4.53029 60.831L4.49242 61.1132L4.37193 61.3918L4.17227 61.674L3.96916 61.9148Z" fill="#8A2529"/>
<path d="M7.53909 59.5099L7.17763 59.6682H6.93665L6.7783 59.5512L6.69568 59.2691L6.7783 58.9078L6.93665 58.5087L7.17763 58.1475L7.53909 57.8275L7.81793 57.7071L8.10021 57.6658L8.25857 57.7862L8.37906 58.0649L8.25857 58.4261L8.10021 58.8287L7.81793 59.2312L7.53909 59.5099Z" fill="#8A2529"/>
<path d="M11.1089 57.105L10.7061 57.3458H10.3446L10.145 57.1841L10.0658 56.8229L10.145 56.3825L10.3446 55.863L10.7061 55.3813L11.1089 55.0201L11.5495 54.7792L11.8697 54.7414L12.1106 54.8997L12.1898 55.2609L12.1106 55.7426L11.8697 56.2242L11.5495 56.7437L11.1089 57.105Z" fill="#8A2529"/>
<path d="M14.7167 54.7414L14.2347 55.0201H13.7941L13.5118 54.8205L13.4326 54.3801L13.5118 53.7781L13.7941 53.176L14.2347 52.5773L14.7167 52.1369L15.2365 51.8548H15.6393L15.9181 52.0544L16.0386 52.4948L15.9181 53.0556L15.6393 53.6989L15.2365 54.2597L14.7167 54.7414Z" fill="#8A2529"/>
<path d="M18.2864 52.3744L17.7219 52.6565L17.2434 52.6978L16.8819 52.4569L16.8027 51.934L16.8819 51.2528L17.2434 50.5337L17.7219 49.8491L18.2864 49.2883L18.9268 48.9683L19.4087 48.9305L19.7289 49.2126L19.8493 49.6908L19.7289 50.4133L19.4087 51.0945L18.9268 51.8136L18.2864 52.3744Z" fill="#8A2529"/>
<path d="M0.320152 60.5936L0.0791773 60.6728L0 60.4698L0.0791773 60.1533L0.320152 59.8677L0.602436 59.7886L0.681613 59.9503L0.602436 60.3115L0.320152 60.5936Z" fill="#8A2529"/>
<path d="M3.93129 58.1853L3.69032 58.347H3.52852L3.40803 58.2679L3.32886 58.0649L3.40803 57.7862L3.52852 57.5075L3.69032 57.2633L3.93129 57.0259L4.17227 56.9055H4.33062L4.45111 56.9846L4.53029 57.1841L4.45111 57.4663L4.33062 57.7449L4.17227 57.9858L3.93129 58.1853Z" fill="#8A2529"/>
<path d="M7.53909 55.863L7.17763 55.9834L6.93665 56.0212L6.7783 55.863L6.69568 55.5809L6.7783 55.2196L6.93665 54.8205L7.17763 54.4593L7.53909 54.1806L7.81793 53.9776H8.10021L8.25857 54.1393L8.37906 54.3801L8.25857 54.7414L8.10021 55.1405L7.81793 55.543L7.53909 55.863Z" fill="#8A2529"/>
<path d="M11.1089 53.4581L10.7061 53.6989H10.3446L10.145 53.4994L10.0658 53.1381L10.145 52.6977L10.3446 52.2161L10.7061 51.7344L11.1089 51.3353L11.5495 51.0945H11.8697L12.1106 51.2527L12.1898 51.614L12.1106 52.0544L11.8697 52.5773L11.5495 53.0556L11.1089 53.4581Z" fill="#8A2529"/>
<path d="M14.7167 51.0532L14.2347 51.3353L13.7941 51.3732L13.5118 51.1323L13.4326 50.6954L13.5118 50.1312L13.7941 49.5291L14.2347 48.9304L14.7167 48.4488L15.2365 48.1667H15.6393L15.9181 48.3696L16.0386 48.81L15.9181 49.4121L15.6393 50.0108L15.2365 50.6128L14.7167 51.0532Z" fill="#8A2529"/>
<path d="M18.2864 48.6896L17.7219 49.0096H17.2021L16.8819 48.7687L16.8027 48.2905L16.8819 47.568L17.2021 46.8455L17.7219 46.1643L18.2864 45.6448L18.8889 45.3248L19.4087 45.2835L19.7289 45.5622L19.8493 46.0439L19.7289 46.7251L19.4087 47.4476L18.8889 48.1288L18.2864 48.6896Z" fill="#8A2529"/>
<path d="M0.320152 56.9055L0.0791773 56.9846L0 56.785L0.0791773 56.5029L0.320152 56.2242L0.602436 56.1451L0.681613 56.3034L0.602436 56.6233L0.320152 56.9055Z" fill="#8A2529"/>
<path d="M3.93129 54.5384L3.69032 54.6588H3.52852L3.40803 54.5797L3.32886 54.3802L3.40803 54.1393L3.52852 53.8194L3.69032 53.5785L3.93129 53.3377L4.17227 53.2173H4.33062L4.45111 53.3377L4.53029 53.4994L4.45111 53.7781L4.33062 54.0602L4.17227 54.2976L3.93129 54.5384Z" fill="#8A2529"/>
<path d="M7.53909 52.1748L7.17763 52.2952L6.93665 52.3365L6.7783 52.2161L6.69568 51.934L6.7783 51.5349L6.93665 51.1736L7.17763 50.8124L7.53909 50.4924L7.81793 50.3307H8.10021L8.25857 50.4133L8.37906 50.6954L8.25857 51.0945L8.10021 51.4558L7.81793 51.8549L7.53909 52.1748Z" fill="#8A2529"/>
<path d="M11.1089 49.7734L10.7061 50.0108H10.3446L10.145 49.8491L10.0658 49.4912L10.145 49.0096L10.3446 48.5279L10.7061 48.0497L11.1089 47.6471L11.5495 47.4476L11.8697 47.4063L12.1106 47.568L12.1898 47.888L12.1106 48.3696L11.8697 48.9304L11.5495 49.4121L11.1089 49.7734Z" fill="#8A2529"/>
<path d="M14.7167 47.4063L14.2347 47.6471L13.7941 47.6884L13.5118 47.4476L13.4326 47.0451L13.5118 46.443L13.7941 45.8443L14.2347 45.2835L14.7167 44.8019L15.2365 44.5232L15.6393 44.4819L15.9181 44.7227L16.0386 45.1218L15.9181 45.7239L15.6393 46.326L15.2365 46.8868L14.7167 47.4063Z" fill="#8A2529"/>
<path d="M18.2864 45.0014L17.7219 45.3248L17.2021 45.3627L16.8819 45.084L16.8027 44.6023L16.8819 43.8798L17.2021 43.1986L17.7219 42.4795L18.2864 41.9566L18.8889 41.6366L19.4087 41.5953L19.7289 41.8362L19.8493 42.3591L19.7289 43.0403L19.4087 43.8007L18.8889 44.4406L18.2864 45.0014Z" fill="#8A2529"/>
<path d="M0.320152 53.2173L0.0791773 53.3377L0 53.1381L0.0791773 52.7769L0.320152 52.4948L0.602436 52.4569L0.681613 52.6152L0.602436 52.9386L0.320152 53.2173Z" fill="#8A2529"/>
<path d="M3.93129 50.8537L3.69032 50.9741L3.52852 51.0119L3.40803 50.8949L3.32886 50.6954L3.40803 50.4133L3.52852 50.1312L3.69032 49.849L3.93129 49.6495L4.17227 49.5291H4.33062L4.45111 49.6495L4.53029 49.849L4.45111 50.0933L4.33062 50.372L4.17227 50.6128L3.93129 50.8537Z" fill="#8A2529"/>
<path d="M7.53909 48.4901L7.17763 48.6518H6.93665L6.7783 48.5279L6.69568 48.2905L6.7783 47.888L6.93665 47.4889L7.17763 47.0863L7.53909 46.7664L7.81793 46.6425L8.10021 46.6047L8.25857 46.7664L8.37906 47.0451L8.25857 47.4476L8.10021 47.8088L7.81793 48.1666L7.53909 48.4901Z" fill="#8A2529"/>
<path d="M11.1089 46.123L10.7061 46.326L10.3446 46.3638L10.145 46.1643L10.0658 45.8443L10.145 45.3248L10.3446 44.8019L10.7061 44.3615L11.1089 43.9624L11.5495 43.7216L11.8697 43.6803L12.1106 43.8798L12.1898 44.2411L12.1106 44.7227L11.8697 45.2422L11.5495 45.7239L11.1089 46.123Z" fill="#8A2529"/>
<path d="M14.7167 43.7215L14.2347 43.9624L13.7941 44.0415L13.5118 43.8007L13.4326 43.3603L13.5118 42.7995L13.7941 42.1561L14.2347 41.554L14.7167 41.0758L15.2365 40.7937H15.6393L15.9181 41.0345L16.0386 41.4749L15.9181 42.077L15.6393 42.6791L15.2365 43.2399L14.7167 43.7215Z" fill="#8A2529"/>
<path d="M18.2864 41.3545L17.7219 41.6366L17.2021 41.6745L16.8819 41.4371L16.8027 40.9141L16.8819 40.2329L17.2021 39.4726L17.7219 38.8326L18.2864 38.2718L18.8889 37.9484L19.4087 37.9106L19.7289 38.1893L19.8493 38.6709L19.7289 39.3934L19.4087 40.1159L18.8889 40.7937L18.2864 41.3545Z" fill="#8A2529"/>
<path d="M0.320152 49.5291L0.0791773 49.6116L0 49.4499L0.0791773 49.13L0.320152 48.8479L0.602436 48.7274L0.681613 48.9304L0.602436 49.2504L0.320152 49.5291Z" fill="#8A2529"/>
<path d="M3.93129 47.1655L3.69032 47.2859L3.52852 47.3272L3.40803 47.2446L3.32886 47.0072L3.40803 46.7251L3.52852 46.4843L3.69032 46.2056L3.93129 46.006L4.17227 45.8443H4.33062L4.45111 45.9647L4.53029 46.1643L4.45111 46.4051L4.33062 46.6872L4.17227 46.9659L3.93129 47.1655Z" fill="#8A2529"/>
<path d="M7.53909 44.8019L7.17763 44.9636H6.93665L6.7783 44.8431L6.69568 44.561L6.7783 44.1998L6.93665 43.8007L7.17763 43.4394L7.53909 43.1195L7.81793 42.9578H8.10021L8.25857 43.0782L8.37906 43.3603L8.25857 43.7215L8.10021 44.1206L7.81793 44.4819L7.53909 44.8019Z" fill="#8A2529"/>
<path d="M11.1089 42.4382L10.7061 42.6378L10.3446 42.6791L10.145 42.4795L10.0658 42.1183L10.145 41.6366L10.3446 41.155L10.7061 40.7146L11.1089 40.3155L11.5495 40.0712L11.8697 40.0334L12.1106 40.2329L12.1898 40.5563L12.1106 41.0345L11.8697 41.554L11.5495 41.9979L11.1089 42.4382Z" fill="#8A2529"/>
<path d="M14.7167 40.0334L14.2347 40.2742L13.7941 40.3155L13.5118 40.1159L13.4326 39.6721L13.5118 39.1113L13.7941 38.4714L14.2347 37.9106L14.7167 37.4289L15.2365 37.1468H15.6393L15.9181 37.3498L16.0386 37.7902L15.9181 38.351L15.6393 38.9531L15.2365 39.5552L14.7167 40.0334Z" fill="#8A2529"/>
<path d="M18.2864 37.6285L17.7219 37.9897H17.2021L16.8819 37.7489L16.8027 37.2294L16.8819 36.5482L17.2021 35.867L17.7219 35.1857L18.2864 34.6249L18.8889 34.3015H19.4087L19.7289 34.5045L19.8493 35.0653L19.7289 35.7053L19.4087 36.4278L18.8889 37.109L18.2864 37.6285Z" fill="#8A2529"/>
<path d="M0.320152 45.8856L0.0791773 45.9648L0 45.7618L0.0791773 45.4452L0.320152 45.1631L0.602436 45.084L0.681613 45.2835L0.602436 45.5622L0.320152 45.8856Z" fill="#8A2529"/>
<path d="M3.93129 43.5186L3.69032 43.639H3.52852L3.40803 43.5186L3.32886 43.3603L3.40803 43.0782L3.52852 42.7995L3.69032 42.5174L3.93129 42.3178L4.17227 42.1974H4.33062L4.45111 42.2765L4.53029 42.4795L4.45111 42.7582L4.33062 43.0403L4.17227 43.2812L3.93129 43.5186Z" fill="#8A2529"/>
<path d="M7.53909 41.1137L7.17763 41.2754L6.93665 41.3167L6.7783 41.155L6.69568 40.9141L6.7783 40.5563L6.93665 40.1538L7.17763 39.7547L7.53909 39.4726L7.81793 39.3109H8.10021L8.25857 39.4313L8.37906 39.7134L8.25857 40.0712L8.10021 40.4738L7.81793 40.835L7.53909 41.1137Z" fill="#8A2529"/>
<path d="M11.1089 38.7501L10.7061 38.9909H10.3446L10.145 38.8326L10.0658 38.4714L10.145 37.9897L10.3446 37.4702L10.7061 36.9885L11.1089 36.6273L11.5495 36.4277H11.8697L12.1106 36.5482L12.1898 36.8681L12.1106 37.3498L11.8697 37.8693L11.5495 38.351L11.1089 38.7501Z" fill="#8A2529"/>
<path d="M14.7167 36.4278L14.2347 36.6273H13.7941L13.5118 36.4278L13.4326 36.0665L13.5118 35.4644L13.7941 34.8245L14.2347 34.2637L14.7167 33.782L15.2365 33.5412L15.6393 33.5034L15.9181 33.7029L16.0386 34.1433L15.9181 34.7419L15.6393 35.344L15.2365 35.9461L14.7167 36.4278Z" fill="#8A2529"/>
<path d="M18.2864 34.0229L17.7219 34.3015L17.2021 34.3841L16.8819 34.102L16.8027 33.5825L16.8819 32.9013L17.2021 32.1788L17.7219 31.4976L18.2864 30.9368L18.8889 30.6168H19.4087L19.7289 30.8576L19.8493 31.3771L19.7289 32.0584L19.4087 32.7809L18.8889 33.4586L18.2864 34.0229Z" fill="#8A2529"/>
<path d="M0.320152 42.1974L0.0791773 42.2766L0 42.1183L0.0791773 41.7571L0.320152 41.4749L0.602436 41.3958L0.681613 41.5541L0.602436 41.9153L0.320152 42.1974Z" fill="#8A2529"/>
<path d="M3.96916 39.8338L3.69032 39.9542H3.52852L3.40803 39.8751L3.32886 39.6721L3.40803 39.3935L3.52852 39.1113L3.69032 38.8705L3.96916 38.6297L4.17227 38.5093L4.37193 38.4714L4.49242 38.5918L4.53029 38.7914L4.49242 39.07L4.37193 39.3109L4.17227 39.593L3.96916 39.8338Z" fill="#8A2529"/>
<path d="M7.53909 37.4289L7.17763 37.6285H6.93665L6.7783 37.4702L6.69568 37.2294L6.7783 36.8681L6.93665 36.4278L7.17763 36.1044L7.53909 35.8257L7.81793 35.6674L8.10021 35.6261L8.25857 35.7878L8.37906 36.0665L8.25857 36.4278L8.10021 36.789L7.81793 37.1468L7.53909 37.4289Z" fill="#8A2529"/>
<path d="M11.1089 35.1032L10.7061 35.3027L10.3446 35.344L10.145 35.1445L10.0658 34.8245L10.145 34.3428L10.3446 33.8233L10.7061 33.3829L11.1089 32.9804L11.5495 32.7396L11.8697 32.6983L12.1106 32.9013L12.1898 33.2591L12.1106 33.7442L11.8697 34.2224L11.5495 34.7041L11.1089 35.1032Z" fill="#8A2529"/>
<path d="M14.7167 32.6983L14.2347 32.9804H13.7941L13.5118 32.7808L13.4326 32.3405L13.5118 31.7797L13.7941 31.1363L14.2347 30.5755L14.7167 30.0973L15.2365 29.8152H15.6393L15.9181 30.0147L16.0386 30.4551L15.9181 31.0193L15.6393 31.6592L15.2365 32.2579L14.7167 32.6983Z" fill="#8A2529"/>
<path d="M18.2864 30.3347L17.7219 30.6581H17.2434L16.8819 30.4172L16.8027 29.8943L16.8819 29.2544L17.2434 28.4906L17.7219 27.8506L18.2864 27.252L18.9268 26.9699L19.4087 26.9286L19.7289 27.1694L19.8493 27.6511L19.7289 28.3736L19.4087 29.0926L18.9268 29.7739L18.2864 30.3347Z" fill="#8A2529"/>
<path d="M21.8943 27.9298L21.2127 28.3323H20.6516L20.2522 28.0502L20.1283 27.4929L20.2522 26.6878L20.6516 25.8483L21.2127 25.0467L21.8943 24.4033L22.5759 24.0455L23.137 24.0042L23.5398 24.2829L23.6603 24.885L23.5398 25.6866L23.137 26.5295L22.5759 27.2899L21.8943 27.9298Z" fill="#8A2529"/>
<path d="M21.8943 31.618L21.2127 31.9792L20.6516 32.0205L20.2522 31.7384L20.1283 31.1363L20.2522 30.376L20.6516 29.533L21.2127 28.7314L21.8943 28.0915L22.5759 27.7302L23.137 27.6924L23.5398 27.9711L23.6603 28.5731L23.5398 29.3335L23.137 30.1764L22.5759 31.0193L21.8943 31.618Z" fill="#8A2529"/>
<path d="M21.8943 35.3027L21.2127 35.6674L20.6516 35.7053L20.2522 35.4266L20.1283 34.8245L20.2522 34.0229L20.6516 33.1799L21.2127 32.4196L21.8943 31.7797L22.5759 31.4184L23.137 31.3771L23.5398 31.6971L23.6603 32.2579L23.5398 33.063L23.137 33.9024L22.5759 34.6628L21.8943 35.3027Z" fill="#8A2529"/>
<path d="M21.8943 38.953L21.2127 39.3109L20.6516 39.3521L20.2522 39.07L20.1283 38.4714L20.2522 37.711L20.6516 36.8268L21.2127 36.0665L21.8943 35.4266L22.5759 35.1032L23.137 35.0653L23.5398 35.344L23.6603 35.9461L23.5398 36.7099L23.137 37.5493L22.5759 38.3097L21.8943 38.953Z" fill="#8A2529"/>
<path d="M21.8943 42.6378L21.2127 42.9991L20.6516 43.0403L20.2522 42.7582L20.1283 42.1561L20.2522 41.3545L20.6516 40.515L21.2127 39.7547L21.8943 39.1113L22.5759 38.7501L23.137 38.7122L23.5398 38.9909L23.6603 39.593L23.5398 40.3533L23.137 41.1962L22.5759 41.9979L21.8943 42.6378Z" fill="#8A2529"/>
<path d="M21.8943 46.326L21.2127 46.6872H20.6516L20.2522 46.4051L20.1283 45.8443L20.2522 45.0427L20.6516 44.1998L21.2127 43.3981L21.8943 42.7582L22.5759 42.4383L23.137 42.397L23.5398 42.6791L23.6603 43.2399L23.5398 44.0828L23.137 44.8844L22.5759 45.6448L21.8943 46.326Z" fill="#8A2529"/>
<path d="M21.8943 49.9729L21.2127 50.3307L20.6516 50.372L20.2522 50.0933L20.1283 49.4912L20.2522 48.7275L20.6516 47.888L21.2127 47.0451L21.8943 46.4051L22.5759 46.0439H23.137L23.5398 46.326L23.6603 46.9281L23.5398 47.7263L23.137 48.5692L22.5759 49.3295L21.8943 49.9729Z" fill="#8A2529"/>
<path d="M46.9246 25.7967H25.6534V47.0554H46.9246V25.7967Z" fill="#8A2529"/>
<path d="M89.0916 28.611C88.0888 28.601 87.0929 28.7784 86.1552 29.134C85.2828 29.4683 84.4943 29.9897 83.8453 30.6615C83.1784 31.3748 82.6662 32.2182 82.3409 33.1387C81.9634 34.2196 81.7804 35.3588 81.8005 36.5034C81.7808 37.624 81.9472 38.7401 82.2927 39.8063C82.5853 40.6931 83.0695 41.5048 83.711 42.1837C84.3411 42.8318 85.1129 43.3253 85.9659 43.6252C86.9348 43.9626 87.9556 44.1268 88.9815 44.1103C89.8078 44.1093 90.6329 44.0461 91.4498 43.9211C92.2502 43.8027 93.0391 43.6162 93.8079 43.3638V46.7217C93.0169 46.9425 92.2118 47.1091 91.3981 47.2205C90.5121 47.3462 89.6182 47.4083 88.7233 47.4063C87.1026 47.437 85.4897 47.1747 83.9623 46.6322C82.6673 46.1708 81.4913 45.4268 80.5198 44.4544C79.5906 43.4955 78.8852 42.3429 78.4544 41.0793C77.9785 39.6831 77.7457 38.2157 77.7659 36.7408C77.7508 35.2037 78.0012 33.6755 78.506 32.2235C78.9666 30.8879 79.6926 29.6591 80.6403 28.611C81.61 27.5616 82.7996 26.7393 84.1241 26.2027C85.6308 25.5991 87.2413 25.2964 88.8645 25.3116C89.7215 25.3089 90.5776 25.3699 91.4257 25.4939C92.1673 25.6012 92.8978 25.7751 93.6082 26.0134V29.3232C92.8334 29.0756 92.0403 28.8892 91.2363 28.7658C90.5261 28.6627 89.8093 28.611 89.0916 28.611Z" fill="#231F20" stroke="#231F20" stroke-width="0.8" stroke-miterlimit="10"/>
<path d="M110.8 41.5816H102.776L100.689 47.0072H96.5343L104.989 25.7141H108.555L117.01 47.0072H112.879L110.8 41.5816ZM106.755 30.837C106.011 33.0664 105.347 34.9289 104.762 36.4243L104.035 38.3166H109.543L108.817 36.4243C108.239 34.9128 107.574 33.0504 106.824 30.837H106.755Z" fill="#231F20" stroke="#231F20" stroke-width="0.8" stroke-miterlimit="10"/>
<path d="M131.951 35.6124C133.479 37.7867 134.722 39.718 135.679 41.4061H135.772C135.643 38.6377 135.58 36.6216 135.582 35.3578V25.7244H139.483V47.0175H135.39L128.45 37.2156C127.226 35.516 125.964 33.5469 124.663 31.3083H124.567C124.695 33.9185 124.759 35.9404 124.759 37.3739V47.0072H120.852V25.7141H124.945L131.951 35.6124Z" fill="#231F20" stroke="#231F20" stroke-width="0.8" stroke-miterlimit="10"/>
<path d="M157.58 41.5816H149.559L147.469 47.0072H143.325L151.779 25.7141H155.346L163.804 47.0072H159.673L157.58 41.5816ZM153.538 30.837C152.79 33.0664 152.126 34.9289 151.545 36.4243L150.815 38.3166H156.323L155.597 36.4243C155.015 34.9139 154.354 33.0526 153.6 30.837H153.538Z" fill="#231F20" stroke="#231F20" stroke-width="0.8" stroke-miterlimit="10"/>
<path d="M178.121 40.8969C178.142 40.4261 178.001 39.9624 177.722 39.5827C177.43 39.2295 177.06 38.9492 176.641 38.7638C176.148 38.5385 175.632 38.3655 175.102 38.2478C174.538 38.1136 173.939 37.9829 173.312 37.8556C172.511 37.6829 171.719 37.4681 170.94 37.2122C170.224 36.9823 169.551 36.6334 168.951 36.18C168.367 35.735 167.896 35.1601 167.574 34.5011C167.208 33.7035 167.034 32.8318 167.064 31.9551C167.04 30.9454 167.241 29.943 167.653 29.0204C168.023 28.2198 168.57 27.5139 169.253 26.9561C169.956 26.3961 170.762 25.9799 171.625 25.7313C172.622 25.4481 173.654 25.3114 174.689 25.3253C175.839 25.3293 176.986 25.4445 178.114 25.6694C179.128 25.8533 180.12 26.1416 181.075 26.5295V29.8737C180.049 29.4595 178.986 29.1416 177.901 28.9241C176.959 28.7359 176.001 28.638 175.04 28.6316C173.756 28.6316 172.768 28.8622 172.073 29.3197C171.733 29.5503 171.459 29.8654 171.278 30.234C171.097 30.6026 171.015 31.012 171.04 31.4219C171.022 31.8909 171.142 32.3548 171.384 32.7568C171.622 33.116 171.942 33.4133 172.317 33.6238C172.742 33.8668 173.197 34.0519 173.67 34.1742C174.18 34.3119 174.703 34.4392 175.295 34.5561C176.197 34.7488 177.058 34.969 177.884 35.2167C178.663 35.4428 179.4 35.7912 180.07 36.2489C180.711 36.6966 181.231 37.2958 181.584 37.9932C181.988 38.8529 182.179 39.7967 182.142 40.7456C182.168 41.7728 181.949 42.7914 181.505 43.7181C181.083 44.5449 180.462 45.2541 179.698 45.7824C178.836 46.3647 177.871 46.778 176.855 47.0003C175.653 47.2754 174.424 47.4093 173.192 47.3994C172.045 47.4011 170.9 47.2858 169.777 47.0554C168.801 46.8793 167.858 46.5544 166.981 46.0921V42.8202C167.969 43.2569 168.999 43.5901 170.056 43.8145C171.075 44.0234 172.113 44.1271 173.154 44.1241C173.763 44.1258 174.371 44.0752 174.971 43.9727C175.528 43.8849 176.066 43.7108 176.569 43.4567C177.027 43.2272 177.419 42.8851 177.708 42.4624C178.003 41.9952 178.147 41.4487 178.121 40.8969Z" fill="#231F20" stroke="#231F20" stroke-width="0.8" stroke-miterlimit="10"/>
<path d="M198.831 41.5816H190.81L188.721 47.0072H184.566L193.038 25.7141H196.604L205.062 47.0072H200.931L198.831 41.5816ZM194.952 30.837C194.206 33.0664 193.541 34.9289 192.958 36.4243L192.229 38.3166H197.737L197.007 36.4243C196.429 34.9128 195.764 33.0504 195.014 30.837H194.952Z" fill="#231F20" stroke="#231F20" stroke-width="0.8" stroke-miterlimit="10"/>
<path d="M84.2308 60.4319C83.6653 60.662 83.0578 60.771 82.4476 60.7519C80.5439 60.7519 79.1118 59.5512 79.1118 57.3355C79.1118 55.2231 80.5439 53.7918 82.6369 53.7918C83.1873 53.7701 83.7356 53.8724 84.2411 54.0911L84.0311 54.8033C83.5989 54.6082 83.1283 54.513 82.6541 54.5246C81.0706 54.5246 80.0206 55.5361 80.0206 57.308C80.0206 58.9594 80.9708 60.0191 82.6128 60.0191C83.1021 60.0258 83.5874 59.9309 84.038 59.7404L84.2308 60.4319Z" fill="#231F20"/>
<path d="M88.0072 60.6522L87.9384 60.0398H87.9074C87.7352 60.2693 87.5109 60.4545 87.2529 60.5802C86.9949 60.7058 86.7106 60.7682 86.4237 60.7622C86.2329 60.7766 86.0412 60.7511 85.8608 60.6873C85.6805 60.6235 85.5154 60.5228 85.3761 60.3917C85.2369 60.2606 85.1264 60.102 85.0519 59.9259C84.9774 59.7497 84.9405 59.56 84.9434 59.3689C84.9434 58.1991 85.9761 57.5557 87.8557 57.566V57.4663C87.8557 57.0672 87.7456 56.3447 86.7542 56.3447C86.3088 56.3464 85.8727 56.4715 85.4942 56.7059L85.2911 56.1245C85.7726 55.8371 86.3242 55.6883 86.885 55.6944C88.3687 55.6944 88.7301 56.7059 88.7301 57.6761V59.4893C88.7242 59.8784 88.7507 60.2674 88.8093 60.6522H88.0072ZM87.8764 58.1785C86.9159 58.1578 85.8109 58.3298 85.8109 59.2691C85.8018 59.3809 85.8168 59.4934 85.8551 59.5989C85.8934 59.7044 85.9539 59.8004 86.0327 59.8803C86.1114 59.9603 86.2064 60.0224 86.3113 60.0624C86.4162 60.1024 86.5285 60.1193 86.6405 60.112C86.8971 60.1188 87.1492 60.0438 87.3603 59.8978C87.5714 59.7518 87.7304 59.5424 87.8144 59.3C87.8438 59.2088 87.86 59.1138 87.8626 59.0179L87.8764 58.1785Z" fill="#231F20"/>
<path d="M90.2517 57.1153C90.2517 56.6165 90.2517 56.2071 90.2139 55.8045H90.9919L91.0435 56.6062H91.0642C91.2229 56.3224 91.4563 56.0875 91.7391 55.9268C92.0218 55.7661 92.3432 55.6857 92.6684 55.6944C93.3362 55.6944 94.3896 56.097 94.3896 57.7587V60.6522H93.5083V57.8585C93.5083 57.0775 93.2192 56.4272 92.3861 56.4272C92.1185 56.4309 91.8592 56.5205 91.6466 56.6828C91.4339 56.8452 91.2792 57.0716 91.2053 57.3287C91.1615 57.4606 91.1405 57.5991 91.1433 57.7381V60.6522H90.2621L90.2517 57.1153Z" fill="#231F20"/>
<path d="M98.5963 60.6521L98.5275 60.0397H98.4965C98.3251 60.2692 98.1014 60.4545 97.8439 60.5801C97.5864 60.7058 97.3027 60.7682 97.0162 60.7622C96.8252 60.7771 96.6331 60.752 96.4523 60.6884C96.2716 60.6248 96.1061 60.5243 95.9664 60.3931C95.8267 60.2619 95.716 60.1031 95.6413 59.9267C95.5666 59.7504 95.5295 59.5604 95.5325 59.3689C95.5325 58.1991 96.5653 57.5557 98.4483 57.566V57.4663C98.4483 57.0672 98.3381 56.3447 97.3467 56.3447C96.9002 56.3458 96.4628 56.4709 96.0833 56.7059L95.8836 56.1245C96.3648 55.8363 96.9166 55.6874 97.4775 55.6944C98.9578 55.6944 99.3193 56.7059 99.3193 57.6761V59.4893C99.3133 59.8784 99.3398 60.2674 99.3984 60.6521H98.5963ZM98.469 58.1784C97.5051 58.1578 96.4035 58.3298 96.4035 59.2691C96.3943 59.3812 96.4094 59.494 96.4479 59.5997C96.4863 59.7055 96.5472 59.8017 96.6263 59.8817C96.7054 59.9618 96.8009 60.0238 96.9063 60.0635C97.0116 60.1033 97.1242 60.1198 97.2365 60.112C97.4926 60.1181 97.7439 60.0427 97.9543 59.8968C98.1646 59.7508 98.3232 59.5419 98.407 59.3C98.4391 59.2093 98.4565 59.1141 98.4586 59.0179L98.469 58.1784Z" fill="#231F20"/>
<path d="M105.03 53.5407V59.3895C105.03 59.8196 105.03 60.3115 105.072 60.6418H104.28L104.239 59.7989H104.221C104.064 60.097 103.825 60.3446 103.533 60.5132C103.24 60.6818 102.906 60.7645 102.569 60.7519C101.395 60.7519 100.504 59.7611 100.504 58.2885C100.504 56.675 101.498 55.6841 102.679 55.6841C102.967 55.6667 103.254 55.726 103.511 55.856C103.768 55.986 103.986 56.1819 104.142 56.4238H104.163V53.5304L105.03 53.5407ZM104.149 57.7793C104.151 57.6543 104.137 57.5294 104.108 57.4078C104.047 57.1155 103.887 56.8532 103.655 56.6652C103.423 56.4772 103.133 56.3749 102.834 56.3756C101.925 56.3756 101.385 57.1773 101.385 58.2473C101.385 59.2278 101.863 60.0397 102.817 60.0397C103.12 60.039 103.414 59.9339 103.649 59.7422C103.884 59.5505 104.046 59.2838 104.108 58.987C104.138 58.8632 104.152 58.7359 104.149 58.6085V57.7793Z" fill="#231F20"/>
<path d="M107.574 54.4421C107.563 54.5792 107.501 54.7072 107.4 54.8006C107.299 54.8939 107.166 54.9458 107.029 54.9458C106.891 54.9458 106.758 54.8939 106.657 54.8006C106.556 54.7072 106.494 54.5792 106.483 54.4421C106.481 54.3693 106.494 54.2968 106.521 54.2292C106.548 54.1616 106.589 54.1001 106.64 54.0486C106.692 53.9971 106.753 53.9566 106.821 53.9297C106.889 53.9027 106.961 53.8897 107.034 53.8916C107.106 53.8891 107.179 53.9017 107.246 53.9287C107.313 53.9556 107.374 53.9962 107.425 54.048C107.476 54.0998 107.516 54.1615 107.541 54.2294C107.567 54.2972 107.578 54.3697 107.574 54.4421ZM106.593 60.6521V55.8045H107.475V60.6521H106.593Z" fill="#231F20"/>
<path d="M111.723 60.6521L111.654 60.0397H111.623C111.451 60.2693 111.226 60.4545 110.968 60.5801C110.71 60.7058 110.426 60.7682 110.139 60.7622C109.948 60.7771 109.756 60.752 109.575 60.6884C109.394 60.6248 109.229 60.5242 109.089 60.3931C108.95 60.2619 108.839 60.1031 108.764 59.9267C108.689 59.7504 108.652 59.5604 108.655 59.3688C108.655 58.1991 109.688 57.5557 111.571 57.566V57.4663C111.571 57.0672 111.461 56.3447 110.47 56.3447C110.024 56.3464 109.588 56.4715 109.21 56.7059L109.006 56.1245C109.488 55.8367 110.039 55.6879 110.6 55.6944C112.084 55.6944 112.446 56.7059 112.446 57.6761V59.4893C112.438 59.8785 112.464 60.2676 112.525 60.6521H111.723ZM111.592 58.1784C110.631 58.1578 109.526 58.3298 109.526 59.2691C109.517 59.3812 109.532 59.494 109.571 59.5997C109.609 59.7055 109.67 59.8017 109.749 59.8817C109.828 59.9618 109.924 60.0238 110.029 60.0635C110.134 60.1033 110.247 60.1198 110.359 60.112C110.616 60.1188 110.868 60.0438 111.079 59.8978C111.29 59.7518 111.449 59.5424 111.533 59.3C111.563 59.2088 111.579 59.1138 111.581 59.0179L111.592 58.1784Z" fill="#231F20"/>
<path d="M113.967 57.1153C113.967 56.6165 113.967 56.2071 113.926 55.8045H114.707L114.759 56.6062H114.78C114.938 56.3227 115.17 56.0879 115.453 55.9272C115.735 55.7664 116.056 55.686 116.38 55.6944C117.052 55.6944 118.102 56.097 118.102 57.7587V60.6521H117.22V57.8585C117.22 57.0775 116.928 56.4272 116.098 56.4272C115.83 56.4312 115.571 56.5209 115.357 56.6832C115.144 56.8454 114.989 57.0716 114.914 57.3286C114.873 57.4612 114.853 57.5994 114.855 57.7381V60.6521H113.974L113.967 57.1153Z" fill="#231F20"/>
<path d="M121.778 59.589C122.251 59.8721 122.79 60.0241 123.341 60.0294C124.233 60.0294 124.756 59.5615 124.756 58.8803C124.756 58.1991 124.394 57.8894 123.482 57.5385C122.381 57.1463 121.699 56.5752 121.699 55.6256C121.699 54.5728 122.57 53.7918 123.885 53.7918C124.403 53.7802 124.915 53.8985 125.376 54.1359L125.135 54.8481C124.739 54.6313 124.295 54.5177 123.844 54.5178C122.921 54.5178 122.57 55.0682 122.57 55.5293C122.57 56.1589 122.983 56.4685 123.912 56.8298C125.055 57.2702 125.634 57.8206 125.634 58.8115C125.634 59.8436 124.863 60.7554 123.269 60.7554C122.668 60.7624 122.075 60.6143 121.547 60.3253L121.778 59.589Z" fill="#231F20"/>
<path d="M127.444 58.3883C127.462 59.5787 128.222 60.0707 129.107 60.0707C129.568 60.0852 130.026 59.9995 130.45 59.8195L130.598 60.4526C130.088 60.6635 129.539 60.7654 128.987 60.7519C127.493 60.7519 126.601 59.7714 126.601 58.3092C126.601 56.847 127.462 55.6944 128.877 55.6944C130.457 55.6944 130.88 57.0878 130.88 57.9789C130.878 58.1159 130.868 58.2526 130.849 58.3883H127.444ZM130.026 57.7587C130.026 57.1979 129.799 56.3274 128.804 56.3274C127.913 56.3274 127.524 57.1463 127.451 57.7587H130.026Z" fill="#231F20"/>
<path d="M135.527 60.4698C135.095 60.6636 134.625 60.7599 134.15 60.7519C132.687 60.7519 131.741 59.761 131.741 58.2782C131.725 57.9333 131.781 57.589 131.907 57.2674C132.033 56.9459 132.225 56.6543 132.47 56.4117C132.716 56.169 133.01 55.9807 133.333 55.8589C133.657 55.7371 134.002 55.6846 134.347 55.7047C134.767 55.7003 135.184 55.7859 135.569 55.9559L135.369 56.644C135.051 56.4776 134.695 56.3981 134.336 56.4135C133.224 56.4135 132.615 57.2323 132.615 58.2438C132.615 59.3654 133.338 60.0569 134.298 60.0569C134.672 60.059 135.042 59.9767 135.379 59.8161L135.527 60.4698Z" fill="#231F20"/>
<path d="M140.712 59.3344C140.712 59.8333 140.712 60.2737 140.75 60.6556H139.968L139.92 59.8643H139.899C139.736 60.1429 139.501 60.3731 139.219 60.5315C138.937 60.6898 138.618 60.7706 138.295 60.7657C137.534 60.7657 136.622 60.3459 136.622 58.6429V55.808H137.503V58.4915C137.503 59.4136 137.786 60.0329 138.588 60.0329C138.839 60.0292 139.083 59.951 139.29 59.8083C139.496 59.6656 139.656 59.4647 139.748 59.2312C139.803 59.0886 139.831 58.9369 139.83 58.784V55.808H140.712V59.3344Z" fill="#231F20"/>
<path d="M142.282 57.3183C142.282 56.7472 142.282 56.2552 142.24 55.8045H143.011L143.042 56.7575H143.084C143.166 56.4613 143.341 56.1988 143.582 56.0078C143.823 55.8168 144.119 55.7071 144.426 55.6944C144.51 55.6933 144.593 55.7037 144.674 55.7254V56.5545C144.575 56.5354 144.475 56.5262 144.375 56.527C143.751 56.527 143.314 56.9949 143.194 57.6589C143.168 57.794 143.154 57.9309 143.152 58.0684V60.6522H142.282V57.3183Z" fill="#231F20"/>
<path d="M146.678 54.4421C146.667 54.5792 146.605 54.7072 146.503 54.8006C146.402 54.8939 146.27 54.9458 146.132 54.9458C145.994 54.9458 145.862 54.8939 145.761 54.8006C145.659 54.7072 145.597 54.5792 145.586 54.4421C145.584 54.3693 145.597 54.2968 145.624 54.2292C145.651 54.1616 145.692 54.1001 145.743 54.0486C145.795 53.9971 145.856 53.9566 145.924 53.9297C145.992 53.9027 146.064 53.8897 146.137 53.8916C146.21 53.8891 146.282 53.9017 146.349 53.9287C146.417 53.9556 146.478 53.9962 146.529 54.048C146.579 54.0998 146.619 54.1615 146.645 54.2294C146.67 54.2972 146.681 54.3697 146.678 54.4421ZM145.697 60.6521V55.8045H146.564V60.6521H145.697Z" fill="#231F20"/>
<path d="M149.204 54.4146V55.7907H150.464V56.4616H149.204V59.0764C149.204 59.675 149.373 60.0156 149.865 60.0156C150.037 60.019 150.208 59.9993 150.375 59.9572L150.416 60.6177C150.165 60.7049 149.9 60.7457 149.635 60.7381C149.458 60.7486 149.282 60.7207 149.117 60.6566C148.953 60.5925 148.804 60.4935 148.681 60.3666C148.413 60.0035 148.29 59.553 148.337 59.1039V56.4616H147.597V55.7907H148.347V54.6279L149.204 54.4146Z" fill="#231F20"/>
<path d="M151.969 55.8045L153.029 58.6704C153.139 58.9904 153.26 59.3585 153.342 59.6613H153.36C153.452 59.3689 153.552 58.9973 153.673 58.6498L154.633 55.8045H155.566L154.244 59.245C153.611 60.9067 153.181 61.76 152.578 62.2795C152.274 62.5605 151.901 62.7573 151.497 62.8506L151.277 62.1109C151.559 62.0162 151.82 61.8691 152.048 61.6774C152.368 61.4125 152.623 61.0769 152.792 60.6969C152.826 60.6313 152.849 60.5603 152.86 60.487C152.852 60.4074 152.831 60.3296 152.798 60.2565L151.008 55.7839L151.969 55.8045Z" fill="#231F20"/>
<path d="M159.814 58.5294L159.126 60.6521H158.224L160.52 53.9019H161.57L163.876 60.6521H162.943L162.22 58.5294H159.814ZM162.028 57.8413L161.367 55.8939C161.215 55.4536 161.115 55.0545 161.023 54.6623H161.002C160.902 55.0648 160.792 55.4742 160.658 55.8836L159.99 57.8481L162.028 57.8413Z" fill="#231F20"/>
<path d="M164.744 59.7507C165.093 59.9663 165.494 60.085 165.904 60.0948C166.544 60.0948 166.847 59.7748 166.847 59.3723C166.847 58.9697 166.596 58.722 165.945 58.4812C165.074 58.1716 164.661 57.6899 164.661 57.105C164.661 56.324 165.295 55.6841 166.334 55.6841C166.752 55.6798 167.164 55.7842 167.529 55.9868L167.309 56.6268C167.01 56.4432 166.667 56.3456 166.317 56.3447C165.794 56.3447 165.505 56.644 165.505 57.0052C165.505 57.3665 165.794 57.5867 166.427 57.8275C167.267 58.1475 167.698 58.5672 167.698 59.2897C167.698 60.1395 167.037 60.7416 165.887 60.7416C165.406 60.7491 164.931 60.6305 164.51 60.3975L164.744 59.7507Z" fill="#231F20"/>
<path d="M168.809 59.7508C169.16 59.9658 169.562 60.0845 169.973 60.0948C170.613 60.0948 170.916 59.7748 170.916 59.3723C170.916 58.9698 170.665 58.722 170.014 58.4812C169.14 58.1716 168.73 57.6899 168.73 57.105C168.73 56.324 169.36 55.6841 170.403 55.6841C170.82 55.6795 171.231 55.7839 171.594 55.9869L171.374 56.6268C171.076 56.4423 170.733 56.3445 170.383 56.3447C169.863 56.3447 169.57 56.644 169.57 57.0052C169.57 57.3665 169.863 57.5867 170.493 57.8275C171.336 58.1475 171.767 58.5672 171.767 59.2897C171.767 60.1395 171.106 60.7416 169.952 60.7416C169.471 60.748 168.997 60.6295 168.575 60.3976L168.809 59.7508Z" fill="#231F20"/>
<path d="M177.388 58.1887C177.388 59.9812 176.145 60.7622 174.978 60.7622C173.667 60.7622 172.655 59.7989 172.655 58.2679C172.655 56.6474 173.715 55.6944 175.064 55.6944C176.414 55.6944 177.388 56.7059 177.388 58.1887ZM173.539 58.2369C173.539 59.3 174.149 60.1016 175.013 60.1016C175.877 60.1016 176.486 59.3103 176.486 58.2197C176.486 57.3974 176.073 56.355 175.033 56.355C173.994 56.355 173.539 57.3183 173.539 58.2369Z" fill="#231F20"/>
<path d="M182.056 60.4698C181.618 60.6656 181.142 60.7619 180.662 60.7519C179.199 60.7519 178.252 59.7611 178.252 58.2782C178.236 57.9335 178.292 57.5892 178.417 57.2677C178.542 56.9461 178.734 56.6545 178.979 56.4118C179.225 56.1691 179.519 55.9807 179.842 55.8589C180.165 55.7371 180.51 55.6846 180.855 55.7047C181.276 55.6999 181.694 55.7856 182.08 55.9559L181.877 56.644C181.559 56.4776 181.203 56.3981 180.844 56.4135C179.732 56.4135 179.123 57.2323 179.123 58.2438C179.123 59.3654 179.843 60.0569 180.806 60.0569C181.18 60.0581 181.549 59.9758 181.887 59.8161L182.056 60.4698Z" fill="#231F20"/>
<path d="M184.17 54.4421C184.159 54.5792 184.097 54.7072 183.996 54.8006C183.894 54.8939 183.762 54.9458 183.624 54.9458C183.487 54.9458 183.354 54.8939 183.253 54.8006C183.152 54.7072 183.089 54.5792 183.079 54.4421C183.077 54.3693 183.09 54.2968 183.117 54.2292C183.144 54.1616 183.184 54.1001 183.236 54.0486C183.287 53.9971 183.349 53.9566 183.416 53.9297C183.484 53.9027 183.556 53.8897 183.629 53.8916C183.702 53.8891 183.774 53.9017 183.842 53.9287C183.909 53.9556 183.97 53.9962 184.021 54.048C184.072 54.0998 184.111 54.1615 184.137 54.2294C184.162 54.2972 184.174 54.3697 184.17 54.4421ZM183.189 60.6521V55.8045H184.087V60.6521H183.189Z" fill="#231F20"/>
<path d="M188.318 60.6521L188.246 60.0397H188.218C188.046 60.2693 187.822 60.4545 187.564 60.5801C187.306 60.7058 187.021 60.7682 186.734 60.7622C186.543 60.7771 186.351 60.752 186.171 60.6884C185.99 60.6248 185.824 60.5243 185.685 60.3931C185.545 60.2619 185.434 60.1031 185.36 59.9267C185.285 59.7504 185.248 59.5604 185.251 59.3689C185.251 58.1991 186.284 57.5557 188.167 57.566V57.4663C188.167 57.0672 188.056 56.3447 187.065 56.3447C186.618 56.3458 186.181 56.4709 185.802 56.7059L185.602 56.1245C186.083 55.8363 186.635 55.6874 187.196 55.6944C188.676 55.6944 189.038 56.7059 189.038 57.6761V59.4893C189.031 59.8786 189.059 60.2677 189.12 60.6521H188.318ZM188.187 58.1784C187.223 58.1578 186.122 58.3298 186.122 59.2691C186.113 59.3812 186.128 59.494 186.166 59.5997C186.205 59.7055 186.265 59.8017 186.345 59.8817C186.424 59.9618 186.519 60.0238 186.625 60.0635C186.73 60.1033 186.843 60.1198 186.955 60.112C187.211 60.1186 187.463 60.0435 187.673 59.8974C187.883 59.7514 188.042 59.5422 188.125 59.3C188.157 59.2093 188.175 59.1141 188.177 59.0179L188.187 58.1784Z" fill="#231F20"/>
<path d="M191.585 54.4146V55.7907H192.845V56.4616H191.585V59.0764C191.585 59.675 191.754 60.0156 192.246 60.0156C192.418 60.019 192.589 59.9993 192.755 59.9572L192.797 60.6177C192.546 60.7049 192.281 60.7457 192.015 60.7381C191.839 60.7488 191.662 60.7211 191.498 60.6569C191.333 60.5928 191.184 60.4937 191.062 60.3666C190.81 60.1085 190.717 59.6785 190.717 59.1039V56.4616H189.967V55.7907H190.717V54.6279L191.585 54.4146Z" fill="#231F20"/>
<path d="M194.921 54.4421C194.91 54.5792 194.848 54.7072 194.746 54.8006C194.645 54.8939 194.513 54.9458 194.375 54.9458C194.237 54.9458 194.105 54.8939 194.004 54.8006C193.903 54.7072 193.84 54.5792 193.829 54.4421C193.828 54.3693 193.84 54.2968 193.867 54.2292C193.894 54.1616 193.935 54.1001 193.987 54.0486C194.038 53.9971 194.1 53.9566 194.167 53.9297C194.235 53.9027 194.307 53.8897 194.38 53.8916C194.453 53.8891 194.525 53.9017 194.592 53.9287C194.66 53.9556 194.721 53.9962 194.772 54.048C194.822 54.0998 194.862 54.1615 194.888 54.2294C194.913 54.2972 194.925 54.3697 194.921 54.4421ZM193.94 60.6521V55.8045H194.821V60.6521H193.94Z" fill="#231F20"/>
<path d="M200.773 58.1887C200.773 59.9812 199.53 60.7622 198.363 60.7622C197.052 60.7622 196.039 59.7989 196.039 58.2679C196.039 56.6474 197.1 55.6944 198.449 55.6944C199.83 55.6944 200.773 56.7059 200.773 58.1887ZM196.924 58.2369C196.924 59.3 197.533 60.1016 198.398 60.1016C199.262 60.1016 199.871 59.3103 199.871 58.2197C199.871 57.3974 199.458 56.355 198.418 56.355C197.379 56.355 196.924 57.3183 196.924 58.2369Z" fill="#231F20"/>
<path d="M201.988 57.1153C201.988 56.6165 201.988 56.2071 201.947 55.8045H202.728L202.78 56.6062H202.797C202.956 56.3224 203.189 56.0875 203.472 55.9268C203.755 55.7661 204.076 55.6857 204.401 55.6944C205.09 55.6944 206.123 56.097 206.123 57.7587V60.6522H205.241V57.8585C205.241 57.0775 204.949 56.4272 204.119 56.4272C203.851 56.4312 203.592 56.5209 203.378 56.6832C203.165 56.8454 203.01 57.0716 202.935 57.3287C202.894 57.4612 202.874 57.5994 202.876 57.7381V60.6522H201.988V57.1153Z" fill="#231F20"/>
<path d="M80.6025 70.7671L79.914 72.8899H79.0121L81.3048 66.1397H82.3582L84.6612 72.8899H83.7283L83.0088 70.7671H80.6025ZM82.816 70.0791L82.1585 68.1352C82.0071 67.6948 81.9072 67.2957 81.8143 66.9035H81.7936C81.6938 67.306 81.5836 67.7154 81.4494 68.1283L80.7884 70.0791H82.816Z" fill="#231F20"/>
<path d="M85.5321 71.9885C85.8828 72.2036 86.2842 72.3222 86.6956 72.3326C87.3359 72.3326 87.6389 72.0126 87.6389 71.61C87.6389 71.2075 87.3876 70.9598 86.7369 70.719C85.8625 70.4093 85.4529 69.9277 85.4529 69.3428C85.4529 68.5583 86.0829 67.9184 87.1259 67.9184C87.5426 67.9138 87.9532 68.0182 88.317 68.2212L88.0967 68.8611C87.799 68.6766 87.4556 68.5789 87.1053 68.579C86.5855 68.579 86.2929 68.8818 86.2929 69.2396C86.2929 69.5974 86.5855 69.821 87.2154 70.0618C88.0589 70.3818 88.4892 70.8015 88.4892 71.524C88.4892 72.3738 87.8282 72.9759 86.675 72.9759C86.1939 72.9823 85.7194 72.8638 85.298 72.6319L85.5321 71.9885Z" fill="#231F20"/>
<path d="M89.6012 71.9885C89.9509 72.2031 90.351 72.3218 90.7613 72.3326C91.405 72.3326 91.7045 72.0126 91.7045 71.6101C91.7045 71.2075 91.4532 70.9598 90.8026 70.719C89.9316 70.4093 89.522 69.9277 89.522 69.3428C89.522 68.5584 90.152 67.9184 91.195 67.9184C91.6116 67.9148 92.0219 68.0191 92.3861 68.2212L92.1658 68.8611C91.8681 68.6766 91.5247 68.5789 91.1744 68.579C90.6511 68.579 90.3619 68.8818 90.3619 69.2396C90.3619 69.5974 90.6511 69.821 91.2845 70.0618C92.1245 70.3818 92.5583 70.8015 92.5583 71.524C92.5583 72.3738 91.8939 72.9759 90.7441 72.9759C90.263 72.9823 89.7885 72.8638 89.3671 72.6319L89.6012 71.9885Z" fill="#231F20"/>
<path d="M98.1764 70.4265C98.1764 72.219 96.9337 73 95.7667 73C94.4551 73 93.443 72.0401 93.443 70.5057C93.443 68.8852 94.5033 67.9322 95.8527 67.9322C97.2022 67.9322 98.1764 68.9437 98.1764 70.4265ZM94.3312 70.4781C94.3312 71.5378 94.9405 72.3394 95.8011 72.3394C96.6617 72.3394 97.2745 71.5481 97.2745 70.4575C97.2745 69.6352 96.8648 68.5928 95.8218 68.5928C94.7787 68.5928 94.3312 69.5561 94.3312 70.4781Z" fill="#231F20"/>
<path d="M102.844 72.711C102.411 72.9033 101.941 72.9985 101.467 72.9897C100.004 72.9897 99.0576 71.9988 99.0576 70.516C99.0416 70.1711 99.0982 69.8267 99.224 69.5052C99.3497 69.1836 99.5416 68.8921 99.7873 68.6494C100.033 68.4068 100.327 68.2184 100.65 68.0967C100.973 67.9749 101.319 67.9223 101.664 67.9425C102.084 67.9381 102.501 68.0237 102.886 68.1936L102.686 68.8817C102.368 68.7154 102.012 68.6358 101.653 68.6512C100.541 68.6512 99.932 69.4735 99.932 70.485C99.932 71.6032 100.655 72.2947 101.615 72.2947C101.99 72.2963 102.361 72.214 102.7 72.0539L102.844 72.711Z" fill="#231F20"/>
<path d="M104.958 66.6798C104.947 66.817 104.885 66.945 104.784 67.0383C104.683 67.1317 104.55 67.1835 104.412 67.1835C104.275 67.1835 104.142 67.1317 104.041 67.0383C103.94 66.945 103.878 66.817 103.867 66.6798C103.865 66.607 103.878 66.5346 103.905 66.467C103.932 66.3993 103.972 66.3379 104.024 66.2864C104.075 66.2349 104.137 66.1944 104.205 66.1674C104.272 66.1404 104.345 66.1275 104.418 66.1294C104.49 66.1269 104.562 66.1395 104.63 66.1664C104.697 66.1933 104.758 66.234 104.809 66.2857C104.86 66.3375 104.899 66.3993 104.925 66.4671C104.951 66.535 104.962 66.6074 104.958 66.6798ZM103.977 72.8899V68.0423H104.858V72.8899H103.977Z" fill="#231F20"/>
<path d="M109.106 72.8899L109.037 72.2775H109.007C108.835 72.507 108.611 72.6922 108.354 72.8179C108.096 72.9435 107.813 73.006 107.526 73C107.335 73.0149 107.143 72.9897 106.962 72.9262C106.782 72.8626 106.616 72.762 106.476 72.6309C106.337 72.4997 106.226 72.3409 106.151 72.1645C106.077 71.9881 106.04 71.7981 106.043 71.6066C106.043 70.4369 107.075 69.7969 108.958 69.8072V69.704C108.958 69.3049 108.848 68.5824 107.857 68.5824C107.41 68.5836 106.973 68.7086 106.593 68.9437L106.394 68.3622C106.874 68.0745 107.424 67.9256 107.984 67.9322C109.468 67.9322 109.829 68.9437 109.829 69.9173V71.7201C109.823 72.1093 109.85 72.4983 109.908 72.883L109.106 72.8899ZM108.976 70.4162C108.015 70.3956 106.91 70.5676 106.91 71.5068C106.901 71.6187 106.916 71.7311 106.954 71.8366C106.993 71.9421 107.053 72.0381 107.132 72.1181C107.211 72.1981 107.306 72.2602 107.41 72.3002C107.515 72.3401 107.628 72.357 107.74 72.3498C107.996 72.3566 108.248 72.2816 108.459 72.1356C108.67 71.9896 108.83 71.7802 108.914 71.5378C108.945 71.447 108.961 71.3517 108.962 71.2557L108.976 70.4162Z" fill="#231F20"/>
<path d="M112.373 66.6523V68.0285H113.637V68.6994H112.373V71.3142C112.373 71.9163 112.545 72.2569 113.034 72.2569C113.207 72.2594 113.38 72.2386 113.547 72.1949L113.585 72.8555C113.334 72.9447 113.069 72.9855 112.803 72.9759C112.628 72.9863 112.452 72.9585 112.288 72.8943C112.124 72.8302 111.975 72.7312 111.853 72.6044C111.602 72.3463 111.509 71.9163 111.509 71.3452V68.6994H110.762V68.0285H111.516V66.8691L112.373 66.6523Z" fill="#231F20"/>
<path d="M115.709 66.6798C115.698 66.817 115.636 66.945 115.535 67.0383C115.434 67.1317 115.301 67.1835 115.163 67.1835C115.026 67.1835 114.893 67.1317 114.792 67.0383C114.691 66.945 114.629 66.817 114.618 66.6798C114.616 66.607 114.629 66.5346 114.656 66.467C114.683 66.3993 114.723 66.3379 114.775 66.2864C114.826 66.2349 114.888 66.1944 114.956 66.1674C115.023 66.1404 115.096 66.1275 115.169 66.1294C115.241 66.1269 115.313 66.1395 115.381 66.1664C115.448 66.1933 115.509 66.234 115.56 66.2857C115.611 66.3375 115.65 66.3993 115.676 66.4671C115.702 66.535 115.713 66.6074 115.709 66.6798ZM114.728 72.8899V68.0423H115.609V72.8899H114.728Z" fill="#231F20"/>
<path d="M121.561 70.4265C121.561 72.219 120.318 73 119.151 73C117.836 73 116.824 72.0401 116.824 70.5057C116.824 68.8852 117.888 67.9322 119.234 67.9322C120.58 67.9322 121.561 68.9437 121.561 70.4265ZM117.713 70.4781C117.713 71.5378 118.325 72.3394 119.186 72.3394C120.047 72.3394 120.659 71.5481 120.659 70.4575C120.659 69.6352 120.25 68.5928 119.207 68.5928C118.163 68.5928 117.713 69.5561 117.713 70.4781Z" fill="#231F20"/>
<path d="M122.773 69.3565C122.773 68.8542 122.773 68.4448 122.735 68.0423H123.499L123.551 68.8439H123.572C123.73 68.5602 123.964 68.3252 124.247 68.1645C124.529 68.0038 124.851 67.9235 125.176 67.9322C125.844 67.9322 126.897 68.3347 126.897 69.9965V72.8899H126.016V70.0962C126.016 69.3153 125.727 68.665 124.894 68.665C124.626 68.6686 124.367 68.7583 124.154 68.9206C123.941 69.0829 123.787 69.3094 123.713 69.5664C123.669 69.6984 123.648 69.8368 123.651 69.9758V72.8899H122.77L122.773 69.3565Z" fill="#231F20"/>
<path d="M134.116 72.711C133.683 72.9028 133.213 72.9979 132.739 72.9897C131.276 72.9897 130.329 71.9988 130.329 70.516C130.313 70.1713 130.369 69.827 130.494 69.5054C130.62 69.1839 130.811 68.8923 131.057 68.6496C131.302 68.4069 131.596 68.2185 131.919 68.0967C132.242 67.9748 132.587 67.9223 132.932 67.9425C133.352 67.9372 133.769 68.0229 134.154 68.1937L133.954 68.8818C133.636 68.7154 133.28 68.6359 132.921 68.6512C131.81 68.6512 131.2 69.4735 131.2 70.485C131.2 71.6032 131.92 72.2947 132.884 72.2947C133.257 72.2959 133.627 72.2136 133.965 72.0539L134.116 72.711Z" fill="#231F20"/>
<path d="M137.93 72.8899L137.861 72.2775H137.83C137.659 72.507 137.435 72.6922 137.178 72.8179C136.92 72.9435 136.637 73.006 136.35 73C136.159 73.0149 135.967 72.9897 135.786 72.9262C135.605 72.8626 135.44 72.762 135.3 72.6309C135.161 72.4997 135.05 72.3409 134.975 72.1645C134.9 71.9881 134.863 71.7981 134.866 71.6066C134.866 70.4368 135.899 69.7969 137.782 69.8072V69.704C137.782 69.3049 137.672 68.5824 136.681 68.5824C136.234 68.5836 135.797 68.7086 135.417 68.9437L135.218 68.3622C135.699 68.074 136.25 67.9251 136.811 67.9322C138.292 67.9322 138.653 68.9437 138.653 69.9173V71.7201C138.647 72.1093 138.674 72.4983 138.732 72.883L137.93 72.8899ZM137.803 70.4162C136.839 70.3956 135.737 70.5676 135.737 71.5068C135.728 71.619 135.743 71.7318 135.782 71.8375C135.82 71.9433 135.881 72.0394 135.96 72.1195C136.039 72.1995 136.135 72.2615 136.24 72.3013C136.345 72.341 136.458 72.3576 136.57 72.3498C136.826 72.3558 137.078 72.2805 137.288 72.1345C137.498 71.9886 137.657 71.7796 137.741 71.5378C137.773 71.4472 137.791 71.3519 137.792 71.2557L137.803 70.4162Z" fill="#231F20"/>
<path d="M140.175 69.3565C140.175 68.8542 140.175 68.4448 140.137 68.0423H140.918L140.966 68.8439H140.987C141.146 68.5602 141.379 68.3252 141.662 68.1645C141.945 68.0038 142.266 67.9235 142.591 67.9322C143.28 67.9322 144.313 68.3347 144.313 69.9965V72.8899H143.428V70.0962C143.428 69.3153 143.139 68.665 142.306 68.665C142.038 68.6697 141.78 68.7598 141.567 68.9219C141.355 69.0841 141.2 69.3099 141.125 69.5664C141.082 69.6986 141.062 69.837 141.066 69.9758V72.8899H140.182L140.175 69.3565Z" fill="#231F20"/>
<path d="M148.523 72.8899L148.45 72.2775H148.423C148.251 72.507 148.026 72.6923 147.768 72.8179C147.51 72.9435 147.226 73.006 146.939 73C146.748 73.0149 146.556 72.9897 146.375 72.9262C146.195 72.8626 146.029 72.762 145.889 72.6309C145.75 72.4997 145.639 72.3409 145.564 72.1645C145.49 71.9881 145.453 71.7981 145.455 71.6066C145.455 70.4368 146.488 69.7969 148.371 69.8072V69.704C148.371 69.3049 148.261 68.5824 147.27 68.5824C146.823 68.5836 146.386 68.7086 146.006 68.9437L145.807 68.3622C146.288 68.074 146.84 67.9251 147.4 67.9322C148.884 67.9322 149.242 68.9437 149.242 69.9173V71.7201C149.235 72.1094 149.263 72.4986 149.325 72.883L148.523 72.8899ZM148.392 70.4162C147.428 70.3956 146.326 70.5676 146.326 71.5068C146.317 71.619 146.332 71.7318 146.371 71.8375C146.409 71.9433 146.47 72.0394 146.549 72.1195C146.628 72.1995 146.724 72.2615 146.829 72.3013C146.935 72.341 147.047 72.3576 147.16 72.3498C147.416 72.3564 147.667 72.2812 147.878 72.1352C148.088 71.9892 148.247 71.7799 148.33 71.5378C148.362 71.4472 148.38 71.3519 148.382 71.2557L148.392 70.4162Z" fill="#231F20"/>
<path d="M154.953 65.7819V71.6307C154.953 72.0608 154.953 72.5528 154.995 72.883H154.203L154.162 72.0401H154.137C153.979 72.3385 153.74 72.5862 153.447 72.7548C153.154 72.9234 152.819 73.006 152.482 72.9931C151.311 72.9931 150.416 72.0023 150.416 70.5298C150.416 68.9162 151.408 67.9253 152.588 67.9253C152.876 67.9075 153.164 67.9671 153.421 68.0977C153.678 68.2284 153.896 68.4255 154.051 68.6685H154.072V65.775L154.953 65.7819ZM154.072 70.0171C154.073 69.8923 154.06 69.7677 154.034 69.6456C153.973 69.3533 153.813 69.091 153.581 68.903C153.349 68.7149 153.059 68.6127 152.76 68.6134C151.848 68.6134 151.308 69.415 151.308 70.485C151.308 71.469 151.79 72.2775 152.74 72.2775C153.043 72.2771 153.337 72.1726 153.573 71.9816C153.808 71.7907 153.971 71.5247 154.034 71.2282C154.061 71.1028 154.074 70.9746 154.072 70.8463V70.0171Z" fill="#231F20"/>
<path d="M157.497 66.6798C157.486 66.817 157.424 66.945 157.323 67.0383C157.222 67.1317 157.089 67.1835 156.952 67.1835C156.814 67.1835 156.681 67.1317 156.58 67.0383C156.479 66.945 156.417 66.817 156.406 66.6798C156.404 66.607 156.417 66.5346 156.444 66.467C156.471 66.3993 156.512 66.3379 156.563 66.2864C156.615 66.2349 156.676 66.1944 156.744 66.1674C156.812 66.1404 156.884 66.1275 156.957 66.1294C157.029 66.1269 157.102 66.1395 157.169 66.1664C157.236 66.1933 157.297 66.234 157.348 66.2857C157.399 66.3375 157.439 66.3993 157.464 66.4671C157.49 66.535 157.501 66.6074 157.497 66.6798ZM156.516 72.8899V68.0423H157.398V72.8899H156.516Z" fill="#231F20"/>
<path d="M159.453 70.6261C159.473 71.8165 160.234 72.3085 161.115 72.3085C161.576 72.323 162.034 72.2373 162.458 72.0573L162.609 72.6904C162.098 72.9025 161.548 73.0045 160.995 72.9897C159.501 72.9897 158.609 72.0091 158.609 70.5469C158.609 69.0847 159.473 67.9322 160.885 67.9322C162.468 67.9322 162.888 69.3084 162.888 70.2167C162.888 70.3956 162.868 70.5366 162.861 70.6261H159.453ZM162.055 69.9999C162.055 69.4391 161.825 68.5687 160.833 68.5687C159.942 68.5687 159.549 69.3875 159.48 69.9999H162.055Z" fill="#231F20"/>
<path d="M164.079 69.3565C164.079 68.8542 164.079 68.4448 164.042 68.0423H164.809L164.857 68.8439H164.878C165.038 68.5587 165.274 68.3231 165.559 68.1629C165.845 68.0026 166.169 67.924 166.496 67.9356C167.184 67.9356 168.217 68.3382 168.217 69.9999V72.8934H167.336V70.0997C167.336 69.3187 167.043 68.6685 166.21 68.6685C165.943 68.6732 165.684 68.7632 165.472 68.9254C165.259 69.0876 165.104 69.3134 165.03 69.5699C164.987 69.702 164.967 69.8405 164.971 69.9793V72.8934H164.086L164.079 69.3565Z" fill="#231F20"/>
<path d="M169.742 69.3565C169.742 68.8542 169.742 68.4448 169.701 68.0423H170.482L170.534 68.8439H170.555C170.713 68.5602 170.945 68.3252 171.228 68.1644C171.51 68.0037 171.831 67.9233 172.156 67.9322C172.827 67.9322 173.877 68.3347 173.877 69.9965V72.8899H172.996V70.0962C172.996 69.3152 172.706 68.665 171.873 68.665C171.605 68.669 171.346 68.7587 171.133 68.9209C170.92 69.0831 170.764 69.3094 170.689 69.5664C170.648 69.6989 170.628 69.8371 170.631 69.9758V72.8899H169.749L169.742 69.3565Z" fill="#231F20"/>
<path d="M175.894 70.6261C175.915 71.8165 176.676 72.3085 177.557 72.3085C178.017 72.323 178.475 72.2373 178.899 72.0573L179.051 72.6904C178.54 72.9025 177.99 73.0045 177.436 72.9897C175.942 72.9897 175.051 72.0091 175.051 70.5469C175.051 69.0847 175.915 67.9322 177.326 67.9322C178.91 67.9322 179.33 69.3084 179.33 70.2167C179.328 70.3537 179.318 70.4904 179.299 70.6261H175.894ZM178.479 69.9965C178.479 69.4357 178.249 68.5652 177.257 68.5652C176.366 68.5652 175.973 69.3841 175.904 69.9965H178.479Z" fill="#231F20"/>
<path d="M186.934 65.7819V71.6307C186.934 72.0608 186.934 72.5527 186.975 72.883H186.184L186.153 72.0642H186.132C185.975 72.3629 185.736 72.6109 185.444 72.7796C185.151 72.9482 184.817 73.0306 184.48 73.0172C183.309 73.0172 182.414 72.0264 182.414 70.5538C182.414 68.9402 183.405 67.9494 184.586 67.9494C184.874 67.9316 185.162 67.9911 185.419 68.1218C185.676 68.2525 185.894 68.4495 186.049 68.6925H186.07V65.7991L186.934 65.7819ZM186.053 70.0171C186.054 69.892 186.04 69.7672 186.011 69.6455C185.951 69.3536 185.792 69.0913 185.56 68.9033C185.329 68.7152 185.04 68.6128 184.741 68.6134C183.829 68.6134 183.288 69.415 183.288 70.485C183.288 71.469 183.767 72.2775 184.721 72.2775C185.024 72.2775 185.317 72.1732 185.553 71.9821C185.788 71.791 185.95 71.5247 186.011 71.2282C186.042 71.1032 186.056 70.9748 186.053 70.8463V70.0171Z" fill="#231F20"/>
<path d="M188.989 70.6261C188.989 71.8165 189.771 72.3085 190.652 72.3085C191.115 72.3267 191.577 72.2433 192.005 72.0642L192.153 72.6972C191.643 72.9098 191.094 73.0118 190.542 72.9966C189.048 72.9966 188.156 72.016 188.156 70.5538C188.156 69.0916 189.017 67.9391 190.432 67.9391C192.015 67.9391 192.435 69.3152 192.435 70.2235C192.434 70.3605 192.423 70.4973 192.404 70.6329L188.989 70.6261ZM191.571 69.9965C191.571 69.4357 191.344 68.5652 190.349 68.5652C189.458 68.5652 189.069 69.3841 188.996 69.9965H191.571Z" fill="#231F20"/>
<path d="M195.84 65.7819H196.725V72.8899H195.84V65.7819Z" fill="#231F20"/>
<path d="M200.99 72.8899L200.921 72.2775H200.89C200.719 72.507 200.495 72.6922 200.237 72.8179C199.98 72.9435 199.696 73.006 199.41 73C199.219 73.0149 199.027 72.9897 198.846 72.9262C198.665 72.8626 198.499 72.762 198.36 72.6309C198.22 72.4997 198.109 72.3409 198.035 72.1645C197.96 71.9881 197.923 71.7981 197.926 71.6066C197.926 70.4368 198.959 69.7969 200.842 69.8072V69.704C200.842 69.3049 200.732 68.5824 199.74 68.5824C199.294 68.5836 198.856 68.7086 198.477 68.9437L198.277 68.3622C198.758 68.074 199.31 67.9251 199.871 67.9322C201.351 67.9322 201.713 68.9437 201.713 69.9173V71.7201C201.707 72.1093 201.733 72.4983 201.792 72.883L200.99 72.8899ZM200.862 70.4162C199.898 70.3956 198.797 70.5676 198.797 71.5068C198.788 71.619 198.803 71.7318 198.841 71.8375C198.88 71.9433 198.941 72.0394 199.02 72.1195C199.099 72.1995 199.194 72.2615 199.3 72.3013C199.405 72.341 199.518 72.3576 199.63 72.3498C199.886 72.3558 200.137 72.2805 200.348 72.1345C200.558 71.9886 200.717 71.7796 200.8 71.5378C200.833 71.4472 200.85 71.3519 200.852 71.2557L200.862 70.4162Z" fill="#231F20"/>
<path d="M205.338 71.9885C205.688 72.2036 206.09 72.3222 206.501 72.3326C207.141 72.3326 207.444 72.0126 207.444 71.6101C207.444 71.2075 207.193 70.9598 206.542 70.719C205.672 70.4093 205.258 69.9277 205.258 69.3428C205.258 68.5584 205.892 67.9184 206.931 67.9184C207.349 67.9142 207.761 68.0185 208.126 68.2212L207.906 68.8611C207.608 68.6776 207.264 68.5799 206.914 68.579C206.391 68.579 206.102 68.8818 206.102 69.2396C206.102 69.5974 206.391 69.821 207.024 70.0618C207.864 70.3818 208.295 70.8015 208.295 71.524C208.295 72.3738 207.634 72.9759 206.481 72.9759C205.999 72.9823 205.525 72.8638 205.104 72.6319L205.338 71.9885Z" fill="#231F20"/>
<path d="M210.019 70.6261C210.019 71.8165 210.801 72.3085 211.682 72.3085C212.143 72.323 212.601 72.2373 213.025 72.0573L213.173 72.6904C212.663 72.9029 212.114 73.005 211.562 72.9897C210.068 72.9897 209.176 72.0091 209.176 70.5469C209.176 69.0847 210.037 67.9322 211.452 67.9322C213.035 67.9322 213.455 69.3084 213.455 70.2167C213.453 70.3537 213.443 70.4904 213.424 70.6261H210.019ZM212.601 69.9965C212.601 69.4357 212.374 68.5652 211.383 68.5652C210.488 68.5652 210.099 69.3841 210.026 69.9965H212.601ZM212.815 65.9505L211.593 67.3817H210.959L211.841 65.9505H212.815Z" fill="#231F20"/>
<path d="M218.102 72.711C217.669 72.9033 217.199 72.9985 216.725 72.9897C215.262 72.9897 214.316 71.9988 214.316 70.516C214.3 70.1711 214.356 69.8267 214.482 69.5052C214.608 69.1836 214.8 68.8921 215.045 68.6494C215.291 68.4068 215.585 68.2184 215.908 68.0967C216.232 67.9749 216.577 67.9223 216.922 67.9425C217.342 67.9381 217.759 68.0237 218.144 68.1936L217.944 68.8817C217.626 68.7154 217.27 68.6358 216.911 68.6512C215.799 68.6512 215.19 69.4735 215.19 70.485C215.19 71.6032 215.913 72.2947 216.873 72.2947C217.248 72.2963 217.619 72.214 217.958 72.0539L218.102 72.711Z" fill="#231F20"/>
<path d="M223.294 71.5688C223.294 72.0676 223.294 72.508 223.335 72.8899H222.55L222.502 72.0986H222.481C222.319 72.3774 222.085 72.6079 221.803 72.7663C221.522 72.9248 221.203 73.0054 220.88 73C220.116 73 219.204 72.5803 219.204 70.8772V68.0423H220.089V70.7258C220.089 71.6479 220.368 72.2706 221.17 72.2706C221.5 72.2688 221.817 72.1359 222.05 71.9012C222.283 71.6664 222.413 71.3489 222.412 71.0183V68.0423H223.294V71.5688Z" fill="#231F20"/>
<path d="M224.857 69.5561C224.857 68.985 224.857 68.493 224.815 68.0423H225.586L225.617 68.9953H225.659C225.741 68.699 225.916 68.4366 226.157 68.2456C226.398 68.0546 226.694 67.9449 227.001 67.9322C227.085 67.931 227.168 67.9414 227.249 67.9632V68.7957C227.151 68.7736 227.05 68.7632 226.95 68.7648C226.33 68.7648 225.889 69.2361 225.769 69.8967C225.743 70.0317 225.73 70.1687 225.728 70.3061V72.8899H224.857V69.5561Z" fill="#231F20"/>
<path d="M229.253 66.6798C229.242 66.817 229.179 66.945 229.078 67.0383C228.977 67.1317 228.845 67.1835 228.707 67.1835C228.569 67.1835 228.437 67.1317 228.336 67.0383C228.234 66.945 228.172 66.817 228.161 66.6798C228.159 66.607 228.172 66.5346 228.199 66.467C228.226 66.3993 228.267 66.3379 228.318 66.2864C228.37 66.2349 228.431 66.1944 228.499 66.1674C228.567 66.1404 228.639 66.1275 228.712 66.1294C228.785 66.1269 228.857 66.1395 228.924 66.1664C228.992 66.1933 229.053 66.234 229.104 66.2857C229.154 66.3375 229.194 66.3993 229.22 66.4671C229.245 66.535 229.256 66.6074 229.253 66.6798ZM228.271 72.8899V68.0423H229.153V72.8899H228.271Z" fill="#231F20"/>
<path d="M231.779 66.6523V68.0285H233.043V68.6994H231.779V71.3142C231.779 71.9163 231.948 72.2569 232.44 72.2569C232.612 72.2594 232.784 72.2386 232.95 72.1949L232.991 72.8555C232.741 72.9443 232.476 72.9852 232.21 72.9759C232.034 72.9863 231.858 72.9585 231.694 72.8943C231.53 72.8302 231.382 72.7312 231.26 72.6044C231.008 72.3463 230.915 71.9163 230.915 71.3452V68.6994H230.161V68.0285H230.905V66.8691L231.779 66.6523Z" fill="#231F20"/>
<path d="M234.564 70.6261C234.585 71.8165 235.346 72.3085 236.227 72.3085C236.688 72.323 237.146 72.2373 237.57 72.0573L237.721 72.6904C237.21 72.9025 236.66 73.0045 236.107 72.9897C234.613 72.9897 233.721 72.0091 233.721 70.5469C233.721 69.0847 234.585 67.9322 235.996 67.9322C237.58 67.9322 238 69.3084 238 70.2167C237.998 70.3537 237.988 70.4904 237.969 70.6261H234.564ZM237.15 69.9965C237.15 69.4357 236.919 68.5652 235.928 68.5652C235.036 68.5652 234.644 69.3841 234.575 69.9965H237.15ZM237.36 65.9505L236.138 67.3817H235.504L236.385 65.9505H237.36Z" fill="#231F20"/>
</g>
<defs>
<clipPath id="clip0_82_968">
<rect width="238" height="73" fill="white"/>
</clipPath>
</defs>
</svg>
